<svg version="1.1" id="Layer_1" xmlns="http://www.w3.org/2000/svg" xmlns:xlink="http://www.w3.org/1999/xlink" x="0px" y="0px"
	 width="100%" viewBox="0 0 800 800" enable-background="new 0 0 800 800" xml:space="preserve">
<path opacity="1.000000" stroke="none" 
	d="
M13.652942,527.999878 
	C13.652047,395.015503 13.580497,262.531006 13.749306,130.046844 
	C13.768325,115.120926 21.158630,103.873734 34.574348,97.160095 
	C49.192986,89.844490 63.983871,92.447716 76.330795,103.059364 
	C93.999664,118.244980 108.916389,136.127411 125.462013,152.414337 
	C141.724503,168.422546 157.114716,185.319794 173.219818,201.524506 
	C193.481995,221.911957 213.230286,242.817261 233.462067,263.247284 
	C241.162476,271.023132 248.382721,279.274506 256.023865,287.527374 
	C262.518158,281.395966 266.148956,275.487823 270.285614,270.047333 
	C283.617188,252.513718 296.512299,234.646790 309.929535,217.180222 
	C321.310974,202.363922 332.469727,187.392136 343.490173,172.308395 
	C355.201721,156.278839 367.665802,140.818497 379.249359,124.678947 
	C393.670746,104.585373 422.449402,102.289528 439.067444,121.527832 
	C445.119629,128.534286 450.280609,136.355484 456.214752,143.403122 
	C463.677948,152.266830 470.003082,161.959274 477.602478,170.712173 
	C484.410980,178.554169 489.802277,187.622696 496.571045,195.504074 
	C504.586639,204.837311 511.733398,214.838501 518.834900,224.775818 
	C528.465393,238.251938 540.264526,249.973770 549.239990,263.938660 
	C552.437927,268.914276 556.951294,273.003204 559.898193,278.245453 
	C561.270020,280.685852 563.104309,280.903076 565.085876,278.766388 
	C572.980042,270.254333 580.911438,261.776581 588.780273,253.241211 
	C596.869934,244.466324 604.901367,235.637787 612.960754,226.835007 
	C627.402954,211.060715 641.760986,195.208267 656.319031,179.541672 
	C666.825012,168.235672 677.979065,157.510315 688.116760,145.891373 
	C694.770569,138.265350 701.642456,130.857895 708.714355,123.670219 
	C717.060913,115.186905 723.714966,104.920898 734.120117,98.566811 
	C746.792847,90.828003 759.698853,91.764015 772.464600,98.299728 
	C781.624268,102.989227 785.715942,111.604080 789.429626,120.629089 
	C791.479736,125.611191 791.345032,130.594421 791.345276,135.683517 
	C791.351440,290.831848 791.424438,445.980286 791.220398,601.128357 
	C791.202332,614.852966 783.328857,624.788757 771.956604,631.973694 
	C762.907227,637.690979 752.915405,637.689941 743.180176,635.241516 
	C732.676208,632.599854 724.390503,626.524292 719.902100,615.977905 
	C716.849121,608.804199 715.553467,601.558228 715.561768,593.742737 
	C715.687622,474.923553 715.654175,356.104187 715.614014,237.284882 
	C715.613159,234.699493 716.300659,231.966629 714.486023,228.994720 
	C709.555969,231.160629 706.181641,235.338943 703.428223,239.272141 
	C698.143616,246.820923 691.097412,252.575806 685.050232,259.312683 
	C676.434692,268.910706 667.816101,278.569122 658.749756,287.691620 
	C651.003174,295.486145 643.910400,303.853516 636.319641,311.763458 
	C620.051147,328.716095 604.687439,346.537170 588.959167,364.007965 
	C582.550232,371.126984 574.363281,376.053589 565.173523,376.849274 
	C552.591003,377.938660 540.936096,374.718384 531.855347,364.421509 
	C523.504395,354.952179 516.707886,344.342957 508.629242,334.724548 
	C501.185944,325.862579 494.538422,316.387146 487.404877,307.300140 
	C481.168976,299.356598 475.132812,291.135437 469.180664,282.913177 
	C461.157806,271.830475 452.097260,261.504822 443.696045,250.688095 
	C437.817047,243.118820 432.389221,235.200562 426.584381,227.571716 
	C422.281647,221.916962 417.739349,216.441864 413.218933,210.956619 
	C411.074585,208.354614 409.567413,209.992935 408.117798,211.921951 
	C399.876495,222.888611 391.599487,233.828430 383.348053,244.787476 
	C373.309021,258.120667 363.248077,271.437561 353.262543,284.810760 
	C344.770538,296.183777 336.492432,307.718140 327.901733,319.015411 
	C317.148560,333.156372 307.371338,348.030334 295.712982,361.497284 
	C291.518646,366.342285 288.798157,372.224762 283.268402,376.205444 
	C268.793762,386.625183 247.542297,385.937714 235.168152,373.336548 
	C224.376251,362.346588 213.570374,351.350861 202.723145,340.426300 
	C189.753052,327.363739 177.676880,313.479279 164.576294,300.540375 
	C146.897720,283.079987 130.014008,264.814941 112.338654,247.351212 
	C106.532112,241.614197 101.356789,235.345383 95.565674,229.635117 
	C94.049606,228.140182 92.687630,226.410995 90.233910,225.591904 
	C88.824844,228.076279 89.371307,230.761261 89.370735,233.304428 
	C89.343399,355.123413 89.264809,476.942505 89.437454,598.761230 
	C89.463875,617.407349 75.105110,635.096558 56.021259,636.618530 
	C36.858479,638.146851 21.894796,628.775269 15.349301,610.055847 
	C14.088858,606.451111 13.665792,603.091431 13.662662,599.494446 
	C13.642069,575.829590 13.652740,552.164795 13.652942,527.999878 
z"/>
<path opacity="1.000000" stroke="none" 
	d="
M136.335831,486.000061 
	C136.338608,543.495361 136.340561,600.490662 136.344910,657.485962 
	C136.345459,664.800964 136.390945,665.221313 143.311081,664.566772 
	C154.970764,663.463806 166.518738,661.440002 178.071854,659.458191 
	C192.095047,657.052612 205.700760,652.985718 219.372421,649.302734 
	C233.125565,645.597839 247.044601,643.514771 261.082275,641.502930 
	C281.568146,638.566895 302.120728,638.474487 322.696198,638.716187 
	C338.013519,638.896179 353.187744,641.021545 367.345825,647.030884 
	C375.900635,650.661987 384.748230,654.144836 391.588806,661.101501 
	C394.674530,664.239502 394.879761,667.484192 393.733795,671.096802 
	C392.587585,674.710144 389.475281,675.333801 386.095367,675.395203 
	C383.872101,675.435547 381.463745,675.344116 379.841461,674.095276 
	C373.899445,669.521057 366.989197,666.691406 360.379517,663.514771 
	C352.959961,659.948975 344.646301,658.589478 336.458344,657.376160 
	C321.715668,655.191467 306.877869,656.586609 292.088837,656.463806 
	C277.819702,656.345337 263.638702,658.515564 249.615128,660.711670 
	C232.677948,663.363892 216.315231,668.869141 199.766693,673.412659 
	C190.437012,675.974060 180.829620,677.659363 171.193298,679.100220 
	C156.772339,681.256592 142.375305,683.325928 127.763527,683.333862 
	C120.983337,683.337524 118.744614,681.189026 118.702377,674.386353 
	C118.616516,660.554749 117.891396,646.665405 118.884567,632.904907 
	C120.026932,617.077393 120.166367,601.241089 119.374886,585.509155 
	C118.511902,568.355835 118.314095,551.213928 118.842064,534.120911 
	C119.829498,502.152679 119.452736,470.192169 119.665794,438.228607 
	C119.704605,432.406250 123.005852,429.118134 128.790359,428.655060 
	C138.349182,427.889862 147.761185,426.066803 157.233047,424.682434 
	C169.794037,422.846588 182.176880,420.049683 194.763580,418.293518 
	C202.513412,417.212280 210.350479,415.555511 218.123047,414.061096 
	C229.623169,411.849976 241.162064,409.682556 252.603958,407.311005 
	C263.470886,405.058594 274.689117,405.434692 285.343811,401.996460 
	C289.414612,400.682831 293.889709,401.438507 298.196960,400.942963 
	C311.882019,399.368530 325.665192,398.617065 339.305420,401.619019 
	C356.286377,405.356201 371.885437,412.108887 385.903137,422.577332 
	C390.570251,426.062744 395.022217,429.692596 399.072479,433.844147 
	C401.993225,436.837921 404.373993,436.311859 407.602966,433.703644 
	C416.185455,426.771027 424.734955,419.894440 434.398804,414.225525 
	C442.936066,409.217438 451.975159,406.039856 461.010040,402.601440 
	C464.335297,401.335968 468.107941,401.123718 471.709106,400.727203 
	C486.116791,399.140900 500.446991,399.619110 514.868530,401.369263 
	C525.361938,402.642731 535.912476,403.804230 546.240601,405.791992 
	C557.045288,407.871429 567.994263,408.976196 578.760498,411.416779 
	C588.499451,413.624481 598.447876,415.222778 608.289734,417.035095 
	C618.428894,418.902130 628.628601,420.728424 638.758911,422.758972 
	C651.826599,425.378326 665.131592,426.849487 678.362610,428.602234 
	C684.605164,429.429199 687.152771,431.798859 687.311218,438.210052 
	C687.438782,443.373230 687.347900,448.541870 687.348083,453.708099 
	C687.349304,486.538727 686.509033,519.396484 687.570374,552.192810 
	C688.783142,589.666931 687.772095,627.120789 688.335693,664.578186 
	C688.388184,668.066101 687.962036,671.498230 687.527344,674.971252 
	C686.673645,681.791687 684.507751,683.733704 676.163147,683.211914 
	C668.229675,682.715820 660.081238,682.928040 652.444458,681.092896 
	C642.471619,678.696411 632.085999,679.116211 622.304504,675.813049 
	C619.363708,674.819946 616.104553,674.803040 613.017639,674.202942 
	C600.850769,671.837891 589.257812,667.393616 577.304199,664.283569 
	C569.335938,662.210449 561.186218,660.750488 553.052307,659.414673 
	C528.502014,655.383118 503.714569,656.051392 478.999054,656.513184 
	C462.214020,656.826721 446.454437,661.680786 432.131073,670.722534 
	C429.620361,672.307556 427.174347,674.281067 424.409027,675.114380 
	C419.375183,676.631042 414.987854,674.440369 413.192322,670.283630 
	C411.676971,666.775574 413.677643,661.218811 417.795105,658.694946 
	C429.494873,651.523315 441.345184,645.080688 455.136353,642.074402 
	C465.790619,639.751892 476.352997,638.758728 487.097046,638.687805 
	C503.893768,638.576843 520.801697,637.609619 537.437256,639.904297 
	C548.464905,641.425354 559.566101,643.285889 570.564941,644.977722 
	C585.721008,647.309021 599.647339,653.548950 614.697205,656.071045 
	C626.867065,658.110596 638.981079,660.764587 651.135864,663.070801 
	C656.380249,664.065857 661.633789,663.895813 666.746765,665.034546 
	C669.516418,665.651306 670.489380,664.630371 670.612366,662.135681 
	C670.669678,660.971497 670.650818,659.803162 670.650879,658.636719 
	C670.655090,590.142395 670.659607,521.648010 670.657654,453.153687 
	C670.657410,445.735199 670.366333,444.722351 663.336792,443.850830 
	C650.557922,442.266510 637.947815,439.940826 625.288696,437.650970 
	C613.270142,435.476990 601.222656,433.261688 589.156372,431.261505 
	C573.383728,428.646912 557.676758,425.637573 541.899963,423.001221 
	C530.179199,421.042603 518.354431,419.464722 506.626801,417.911835 
	C495.614655,416.453735 484.201721,416.594574 472.891327,418.552856 
	C457.959930,421.138092 445.028381,427.928467 432.642792,435.915100 
	C425.675140,440.408112 420.108978,446.781586 414.265503,452.697815 
	C406.426025,460.634766 401.986633,460.664520 394.005219,453.139832 
	C382.772919,442.550262 371.346954,432.202515 356.869873,426.066376 
	C349.432007,422.913849 341.910339,420.376068 333.785706,419.088196 
	C327.535706,418.097504 321.365723,416.902527 315.097137,417.422516 
	C303.739960,418.364563 292.411865,419.679718 281.084717,420.955139 
	C271.068726,422.082947 261.062195,423.700562 251.240234,425.666321 
	C240.728134,427.770203 230.101929,429.266815 219.605988,431.508484 
	C208.646667,433.849091 197.576126,435.850006 186.489166,437.691284 
	C174.790054,439.634247 163.065002,441.628784 151.396515,443.843811 
	C147.666382,444.551910 143.857819,444.443390 140.144913,445.744751 
	C137.258163,446.756592 136.254120,448.021515 136.289917,451.009430 
	C136.427612,462.504822 136.339600,474.002960 136.335831,486.000061 
z"/>
<path opacity="1.000000" stroke="none" 
	d="
M243.286560,676.176147 
	C250.114868,673.490723 257.108185,674.254333 263.690186,672.652161 
	C273.699493,670.215820 284.144745,670.404541 294.053802,668.178345 
	C302.604858,666.257263 311.224243,665.799194 319.578613,665.960449 
	C343.501099,666.422180 365.723694,673.651917 385.818176,686.828125 
	C387.789673,688.120911 389.581757,688.694519 391.794128,688.663879 
	C395.293304,688.615479 398.860443,688.216919 402.281372,688.737793 
	C413.695312,690.475769 423.068695,686.043152 432.583069,680.437744 
	C441.766571,675.027222 451.956299,671.841675 462.477997,669.320007 
	C470.784851,667.329041 479.215485,665.818054 487.423279,666.129822 
	C495.789612,666.447510 504.318481,665.620117 512.673401,667.550781 
	C518.454895,668.886902 524.439880,669.319275 530.262695,670.505249 
	C541.746460,672.844299 553.433716,673.867126 564.891418,676.521606 
	C576.301941,679.165100 588.091797,680.170471 599.504150,682.807861 
	C607.543518,684.665771 615.681213,686.385437 623.723450,687.889282 
	C633.718323,689.758240 643.686890,692.220764 653.991882,692.839111 
	C662.463379,693.347351 670.919556,693.433533 679.383240,693.717712 
	C683.528198,693.856873 686.713013,697.417725 687.174377,701.929016 
	C687.657471,706.652832 685.379944,710.063110 680.843750,710.975342 
	C676.716187,711.805420 672.576233,710.648438 668.492371,710.622070 
	C657.665344,710.552002 646.927002,709.490234 636.244629,708.198364 
	C627.302979,707.116943 618.518738,704.742371 609.659119,702.968750 
	C605.931641,702.222534 602.184082,701.576721 598.455078,700.837891 
	C582.613342,697.699158 566.698120,694.962769 550.815430,692.064575 
	C541.397217,690.346008 531.915527,688.881775 522.527344,686.946655 
	C519.298035,686.281128 515.953674,686.161011 512.657593,685.834473 
	C503.490356,684.926270 494.396667,681.842834 485.153809,683.469727 
	C473.507782,685.519531 461.572083,686.564026 450.605774,691.604492 
	C442.812927,695.186401 435.128204,698.878601 428.368378,704.341492 
	C426.107910,706.168152 422.905212,706.432556 419.843445,706.401306 
	C411.344635,706.314575 402.818420,705.953369 394.352478,706.486206 
	C386.713379,706.966919 380.114685,705.246399 373.886414,700.847046 
	C363.045868,693.189697 350.720886,688.849915 337.896942,685.954224 
	C329.363068,684.027344 320.530334,681.661865 311.936127,683.565308 
	C299.636993,686.289307 287.031006,685.874573 274.718964,688.717285 
	C264.151459,691.157349 253.292343,692.745300 242.551392,694.595154 
	C234.136658,696.044312 225.572983,697.099121 217.299026,699.576904 
	C212.739243,700.942383 207.889221,701.320679 203.187576,702.234253 
	C194.618652,703.899353 186.092651,705.805969 177.491989,707.280945 
	C170.488159,708.482117 163.418991,709.768860 156.347015,709.986694 
	C147.691589,710.253418 139.142273,712.561462 130.625046,712.102173 
	C121.951996,711.634521 119.221069,708.495544 119.661232,701.861633 
	C119.915268,698.032959 123.809242,693.591187 127.609917,693.742554 
	C139.450775,694.214050 151.155334,692.591370 162.865021,691.493164 
	C170.999588,690.730225 178.996307,688.525391 187.064056,687.015259 
	C197.762527,685.012756 208.358551,682.520203 219.064224,680.518616 
	C226.995010,679.035889 235.001556,678.000366 243.286560,676.176147 
z"/>
<path opacity="1.000000" stroke="none" 
	d="
M396.656586,526.999878 
	C396.658081,511.173401 396.636810,495.846832 396.673462,480.520447 
	C396.688110,474.402985 399.871826,470.778778 404.988159,470.865082 
	C410.231079,470.953583 413.347565,474.509644 413.348053,480.467743 
	C413.352570,534.443604 413.349701,588.419495 413.348816,642.395386 
	C413.348785,642.895142 413.354126,643.395142 413.343262,643.894714 
	C413.223083,649.418518 409.441742,654.040405 405.041412,654.045471 
	C400.100250,654.051147 396.460907,649.186279 396.549438,643.446533 
	C396.734375,631.454712 396.655548,619.458557 396.659058,607.464172 
	C396.666870,580.809448 396.658691,554.154663 396.656586,526.999878 
z"/>
</svg>