<?xml version="1.0" encoding="UTF-8"?>
<svg id="Layer_1" data-name="Layer 1" xmlns="http://www.w3.org/2000/svg" xmlns:xlink="http://www.w3.org/1999/xlink" version="1.1" viewBox="0 0 2040 2040">
  <defs>
    <style>
      .cls-1 {
        fill: url(#New_Gradient_Swatch_5-5);
      }

      .cls-1, .cls-2, .cls-3, .cls-4, .cls-5 {
        stroke-width: 0px;
      }

      .cls-2 {
        fill: url(#New_Gradient_Swatch_5-6);
      }

      .cls-6 {
        fill: url(#New_Gradient_Swatch_5-4);
        stroke: #fff;
      }

      .cls-6, .cls-7, .cls-3, .cls-8, .cls-4, .cls-9, .cls-10, .cls-11 {
        display: none;
      }

      .cls-6, .cls-8 {
        stroke-width: 159.28px;
      }

      .cls-6, .cls-8, .cls-10 {
        stroke-miterlimit: 10;
      }

      .cls-7, .cls-9 {
        font-family: ArialRoundedMTBold, 'Arial Rounded MT Bold';
        font-size: 85px;
      }

      .cls-7, .cls-5 {
        fill: #fff;
      }

      .cls-3 {
        fill: url(#New_Gradient_Swatch_5);
      }

      .cls-8 {
        fill: url(#New_Gradient_Swatch_5-3);
      }

      .cls-8, .cls-10 {
        stroke: #000;
      }

      .cls-4 {
        fill: url(#New_Gradient_Swatch_5-2);
      }

      .cls-9 {
        fill: #000;
      }

      .cls-10 {
        fill: none;
        stroke-linecap: round;
        stroke-width: 38px;
      }
    </style>
    <radialGradient id="New_Gradient_Swatch_5" data-name="New Gradient Swatch 5" cx="4255.98" cy="-50.66" fx="4255.98" fy="-50.66" r="3002.86" gradientUnits="userSpaceOnUse">
      <stop offset="0" stop-color="#54d6d7"/>
      <stop offset=".06" stop-color="#5fd5d1"/>
      <stop offset=".16" stop-color="#7dd2c1"/>
      <stop offset=".29" stop-color="#adcea7"/>
      <stop offset=".35" stop-color="#c6cd9b"/>
      <stop offset=".42" stop-color="#ccc994"/>
      <stop offset=".51" stop-color="#dfbf84"/>
      <stop offset=".61" stop-color="#fdaf68"/>
      <stop offset=".62" stop-color="#ffaf68"/>
      <stop offset=".66" stop-color="#ffa866"/>
      <stop offset=".71" stop-color="#ff9763"/>
      <stop offset=".77" stop-color="#ff795e"/>
      <stop offset=".84" stop-color="#ff5157"/>
      <stop offset=".91" stop-color="#ff234f"/>
    </radialGradient>
    <radialGradient id="New_Gradient_Swatch_5-2" data-name="New Gradient Swatch 5" cx="6419.04" cy="-20.02" fx="6419.04" fy="-20.02" r="3002.71" xlink:href="#New_Gradient_Swatch_5"/>
    <radialGradient id="New_Gradient_Swatch_5-3" data-name="New Gradient Swatch 5" cx="2062.28" cy="2118.53" fx="2062.28" fy="2118.53" r="2998.39" xlink:href="#New_Gradient_Swatch_5"/>
    <path id="path" d="M148.11,3210.41h0c0-481.75,390.54-872.29,872.29-872.29h0c481.75,0,872.29,390.54,872.29,872.29h0c0,481.75-390.54,872.29-872.29,872.29h0c-481.75,0-872.29-390.54-872.29-872.29Z"/>
    <path id="path-2" d="M1892.68,3193.77c0-481.75-390.54-872.29-872.29-872.29h0c-481.75,0-872.29,390.54-872.29,872.29h0c0,481.75,390.54,872.29,872.29,872.29h0c481.75,0,872.29-390.54,872.29-872.29h0Z"/>
    <radialGradient id="New_Gradient_Swatch_5-4" data-name="New Gradient Swatch 5" cx="4243.72" cy="2118.53" fx="4243.72" fy="2118.53" r="2989.76" xlink:href="#New_Gradient_Swatch_5"/>
    <path id="path-3" d="M2329.16,3240h0c0-481.75,390.54-872.29,872.29-872.29h0c481.75,0,872.29,390.54,872.29,872.29h0c0,481.75-390.54,872.29-872.29,872.29h0c-481.75,0-872.29-390.54-872.29-872.29Z"/>
    <path id="path-4" d="M4073.53,3176.94c0-481.75-390.54-872.29-872.29-872.29h0c-481.75,0-872.29,390.54-872.29,872.29h0c0,481.75,390.54,872.29,872.29,872.29h0c481.75,0,872.29-390.54,872.29-872.29h0Z"/>
    <radialGradient id="New_Gradient_Swatch_5-5" data-name="New Gradient Swatch 5" cx="2060.23" cy="38.2" fx="2060.23" fy="38.2" r="2969.54" xlink:href="#New_Gradient_Swatch_5"/>
    <radialGradient id="New_Gradient_Swatch_5-6" data-name="New Gradient Swatch 5" cx="2060.23" cy="38.2" fx="2060.23" fy="38.2" r="2969.54" xlink:href="#New_Gradient_Swatch_5"/>
  </defs>
  <rect class="cls-3" x="2337.45" y="156" width="1728" height="1728"/>
  <rect class="cls-4" x="4516.9" y="170.35" width="1699.3" height="1699.3" rx="849.65" ry="849.65"/>
  <rect class="cls-8" x="152.88" y="2309.42" width="1735.03" height="1735.03" rx="867.51" ry="867.51"/>
  <text>
    <textPath startOffset="100%" xlink:href="#path"><tspan class="cls-7"><tspan x="0" y="0">The Prom Collective</tspan></tspan>
    </textPath></text>
  <text>
    <textPath startOffset="-85.19%" xlink:href="#path-2"><tspan class="cls-7"><tspan x="0" y="0">nationalproms.com</tspan></tspan>
    </textPath></text>
  <rect class="cls-6" x="2333.93" y="2309.42" width="1735.03" height="1735.03" rx="867.51" ry="867.51"/>
  <text>
    <textPath startOffset="100%" xlink:href="#path-3"><tspan class="cls-9"><tspan x="0" y="0">The Prom Collective</tspan></tspan>
    </textPath></text>
  <text>
    <textPath startOffset="-85.19%" xlink:href="#path-4"><tspan class="cls-9"><tspan x="0" y="0">nationalproms.com</tspan></tspan>
    </textPath></text>
  <path class="cls-10" d="M933.04,3582.79"/>
  <g>
    <path class="cls-1" d="M1483.76,1049.7c-53.39,13.87-119.84,31.13-255.18,35.01-32.1.93-64.54.22-96.44-2.08-3.67-.63-24.77-7.23-40.22-12.07-19-5.94-36.95-11.56-43.6-13.05-13.44-3.01-26.45-7.92-38.67-14.58-10.31-5.62-22.48-6.47-33.38-2.33l-73.42,27.86c-11.19,4.26-19.81,13.2-23.65,24.56-1.27,3.78-2.66,7.56-4.11,11.23l-.5,1.26c-3.59,9.06-5.27,13.16-7.78,15.49-1.6,1.49-3.18,2.48-4.99,3.64-2.63,1.66-5.82,3.69-8.94,7.3l-17.68-1.83c-.41-.04-.82-.05-1.24-.04l-65.47,2.79c-119.26-27.23-177.68-38.42-227.66-43.65v17.03c46.02,4.96,103.92,15.79,224.98,43.45.74.16,1.5.23,2.26.2l66-2.81,10.71,1.11,11.11,1.15c3.24.33,6.23-1.18,7.91-3.69.02-.01.02-.02.02-.03.06-.09.12-.18.18-.27.46-.71.88-1.25,1.15-1.6,1.66-2.15,3.3-3.19,5.77-4.75,2.1-1.34,4.71-2.99,7.46-5.55,5.43-5.05,7.91-11.31,12.02-21.69l.49-1.25c1.56-3.94,3.05-8,4.42-12.05,2.2-6.52,7.15-11.66,13.58-14.1l73.41-27.87c6.26-2.38,13.26-1.88,19.21,1.36,13.61,7.43,28.11,12.89,43.09,16.25,5.96,1.34,25.24,7.37,42.24,12.69,30.94,9.68,40.45,12.53,43.89,12.78,32.52,2.36,65.61,3.08,98.34,2.14,137.26-3.95,204.74-21.47,258.96-35.56,3.77-.98,7.48-1.94,11.14-2.88v-17.54c-5.04,1.27-10.16,2.6-15.41,3.97ZM863.82,1145.62c.06-.09.12-.18.18-.27.46-.71.88-1.25,1.15-1.6,1.66-2.15,3.3-3.19,5.77-4.75,2.1-1.34,4.71-2.99,7.46-5.55,5.43-5.05,7.91-11.31,12.02-21.69l.49-1.25c1.56-3.94,3.05-8,4.42-12.05,2.2-6.52,7.15-11.66,13.58-14.1l73.41-27.87c6.26-2.38,13.26-1.88,19.21,1.36,13.61,7.43,28.11,12.89,43.09,16.25,5.96,1.34,25.24,7.37,42.24,12.69,30.94,9.68,40.45,12.53,43.89,12.78,32.52,2.36,65.61,3.08,98.34,2.14,137.26-3.95,204.74-21.47,258.96-35.56,3.77-.98,7.48-1.94,11.14-2.88v-17.54c-5.04,1.27-10.16,2.6-15.41,3.97-53.39,13.87-119.84,31.13-255.18,35.01-32.1.93-64.54.22-96.44-2.08-3.67-.63-24.77-7.23-40.22-12.07-19-5.94-36.95-11.56-43.6-13.05-13.44-3.01-26.45-7.92-38.67-14.58-10.31-5.62-22.48-6.47-33.38-2.33l-73.42,27.86c-11.19,4.26-19.81,13.2-23.65,24.56-1.27,3.78-2.66,7.56-4.11,11.23l-.5,1.26c-3.59,9.06-5.27,13.16-7.78,15.49-1.6,1.49-3.18,2.48-4.99,3.64-2.63,1.66-5.82,3.69-8.94,7.3-.4.45-.8.93-1.19,1.44-3.63,4.71-5.95,9.67-6.91,14.81-.35,1.8-.52,3.61-.53,5.45-.06,12.05,7.01,23.78,17.19,28.53,11.46,5.35,22.2.48,33.56-4.68,7.92-3.59,12.42-6.88,34.1-22.68l8.97-6.54c3.78-2.75,5.4-3.91,7.52-5.05,4.44-2.38,9.35-4.03,14.6-4.91,5.69-.95,11.5.29,16.35,3.5l208.59,137.92c4.76,3.15,10.17,5.18,15.82,6.03,5.46.83,11.14.55,16.69-.89.03,0,.05-.01.06-.01.57.13,1.14.26,1.71.38,125.47,28.1,214.09,37.91,279.76,41.75v-17.04c-65.21-3.85-153.23-13.7-277.93-41.72-1.14-.26-2.31-.38-3.49-.38-1.44,0-2.9.19-4.37.57-2.35.61-4.72.87-7.05.8h-.1c-4.22-.15-8.29-1.4-11.73-3.67l-208.58-137.92c-8.45-5.59-18.59-7.75-28.53-6.09-7.08,1.18-13.75,3.44-19.83,6.7-3.23,1.73-5.59,3.45-9.49,6.29l-8.99,6.54c-20.99,15.31-24.77,18.07-31.1,20.94-9.57,4.34-15.18,6.7-19.35,4.76-4.17-1.94-7.41-7.67-7.38-13.04.02-3.39,1.39-6.22,2.55-8.08.02-.01.02-.02.02-.03ZM1219.41,1285.24c-1.47-3.61-3.37-7.48-5.68-11.64-1.54-2.79-4.43-4.37-7.4-4.38h-.1c-4.22-.15-8.29-1.4-11.73-3.67l-208.58-137.92c-8.45-5.59-18.59-7.75-28.53-6.09-7.08,1.18-13.75,3.44-19.83,6.7-3.23,1.73-5.59,3.45-9.49,6.29l-8.99,6.54c-20.99,15.31-24.77,18.07-31.1,20.94-9.57,4.34-15.18,6.7-19.35,4.76-4.17-1.94-7.41-7.67-7.38-13.04.02-3.39,1.39-6.22,2.55-8.08.02-.01.02-.02.02-.03.06-.09.12-.18.18-.27.66-1.06,1.08-2.27,1.22-3.59.49-4.67-2.91-8.84-7.58-9.33l-4.76-.49-17.68-1.83c-.41-.04-.82-.05-1.24-.04l-65.47,2.79c-119.26-27.23-177.68-38.42-227.66-43.65v17.03c46.02,4.96,103.92,15.79,224.98,43.45.74.16,1.5.23,2.26.2l66-2.81,10.71,1.11c-.35,1.8-.52,3.61-.53,5.45-.06,12.05,7.01,23.78,17.19,28.53,11.46,5.35,22.2.48,33.56-4.68,7.92-3.59,12.42-6.88,34.1-22.68l8.97-6.54c3.78-2.75,5.4-3.91,7.52-5.05,4.44-2.38,9.35-4.03,14.6-4.91,5.69-.95,11.5.29,16.35,3.5l208.59,137.92c4.76,3.15,10.17,5.18,15.82,6.03,5.61,11.04,5.63,15.94,5.34,17.59,0,.03-.01.06-.01.09-.17.88-2.69,3.55-9.06,5.75-6.37,2.21-11.61.94-16.67-.28-3.5-.85-7.85-1.9-11.92-.79-18.47-7.06-30.74-12.1-56.52-29.23-6.12-4.06-12.1-7.95-17.89-11.71-22.14-14.39-41.27-26.82-53.91-40-3.25-3.39-8.63-3.51-12.02-.26-3.38,3.25-3.5,8.63-.25,12.02,14,14.61,33.89,27.53,56.92,42.49,5.75,3.74,11.7,7.6,17.74,11.62,25.95,17.24,39.53,23.13,57.08,29.88.51,3.51,1.95,7.01,3.23,10.14,2.35,5.73,4.79,11.67,2.77,16.24-1.75,3.95-6.11,6.08-6.29,6.16-3.77,1.81-7.78,1.07-12.02.28-4.6-.85-10.69-1.97-15.72,1.67-11.86-4.31-17.95-7.65-35.87-17.51l-2.81-1.54c-23.18-12.74-45.17-27.89-65.36-45.02-3.59-3.04-8.95-2.6-11.99.98-3.03,3.58-2.59,8.95.99,11.98,21.06,17.87,44,33.67,68.18,46.96l2.8,1.54c18.89,10.39,25.45,13.99,39.04,18.86.07.41.15.8.23,1.17.7,3.32.93,4.93.14,6.45-1.69,3.27-7.13,4.82-10.05,5.64-5.58,1.59-10.09.9-14.45.24-4.71-.72-10.38-1.59-15.51,1.55-11.78-3.84-19.47-7.48-38.15-17.62-16.51-8.96-21.8-12.02-30.93-19.11-.28-2.31-.94-4.63-2.16-7.18-3.52-7.31-11.8-16.32-23.54-17.67-7.49-.86-13.73,1.77-18.7,4.87,1.35-7.42,1.9-16.57-2.91-25.04-7.45-13.1-25.87-20.57-39.41-15.98-8.91,3.02-13.42,10.27-16.41,15.06-.07.12-.15.24-.22.37-2.46-4.48-6.19-10.99-14.04-15.3-10.78-5.92-25.51-5.57-35.83.87-7.52,4.69-10.89,11.4-13.1,16.07-3.03-3.7-7.55-8.64-15.63-11.87-3.55-1.42-11.85-4.73-20.93-1.54-3.86,1.35-6.18,3.33-7.72,4.64-1.01.86-1.11.91-1.3.96-.06,0-.12.03-.17.04-1.46.18-4.14-1.43-6.31-2.75-.79-.48-1.57-.94-2.32-1.36-8.78-4.94-18.3-5.03-35.57-5.21-90.76-.93-136.83,6.72-143.52,7.93-29.53.29-47.5.77-61.96,1.16-5.53.15-10.52.28-15.43.39v16.99c5.05-.1,10.19-.24,15.88-.39,14.52-.38,32.59-.87,62.41-1.16.52,0,1.03-.06,1.54-.15.45-.09,46.5-8.75,140.9-7.77,15.97.16,22.63.34,27.43,3.03.6.34,1.22.71,1.85,1.09,2.45,1.48,5.59,3.38,9.31,4.42h0c3.01.86,6.4,1.16,10.1.23,3.05-.77,5.2-2.13,6.76-3.35.54-.41,1.01-.81,1.42-1.16,1.11-.94,1.5-1.25,2.33-1.54,3.07-1.08,6.78.4,8.99,1.29,4.82,1.92,7.16,4.83,9.63,7.9,1.06,1.32,2.33,2.9,3.92,4.3,2.46,2.19,5.69,3.96,10.04,3.66,2.92-.2,5.22-1.23,7.05-2.68,3.23-2.55,5.04-6.39,6.41-9.29,1.76-3.72,3.41-7.23,6.98-9.46,5.09-3.17,13.29-3.34,18.66-.39,3.73,2.05,5.57,5.41,7.52,8.96.97,1.76,2.13,3.89,3.73,5.81,2.28,2.77,5.44,5.12,10.11,5.33,2.56.1,4.75-.48,6.62-1.45,4.24-2.21,6.92-6.47,8.89-9.64,2.59-4.15,4.5-6.94,7.43-7.94,5.9-1.99,15.75,2.26,19.18,8.28,2.97,5.23,1.3,12.51-.17,18.94-.98,4.31-2.12,9.27-.98,13.48.68,2.51,2.16,4.76,4.97,6.43,3.83,2.29,7.48,1.84,10.76.38,2.67-1.18,5.1-3.04,7.17-4.63,3.95-3.01,8.43-6.44,12.7-5.94,4.29.49,8.43,4.57,10.16,8.15.89,1.85.91,2.7.2,9.14-.36,3.36-.87,7.96-1.19,14.14-.75,14.71-1.21,23.58,2.79,31.51,3.65,7.23,9.21,11.94,14.68,15.2,4.18,2.49,8.31,4.14,11.5,5.41,3.38,1.34,6.67,2.31,9.83,2.99,4.67,1.01,9.06,1.39,13.07,1.39,8.43,0,15.14-1.66,18.98-2.61,7.76-1.92,16.56-4.1,22.14-12.28,3.45-5.05,3.8-9.63,3.98-12.74,0-.1.01-.2.01-.29.01-.16.02-.35.03-.53.18.01.38.03.58.06.92.09,2,.26,2.91.4,5.28.81,12.52,1.91,21.66-.68,4.61-1.31,15.43-4.38,20.5-14.2,3.19-6.16,2.56-11.84,1.75-16.02-.05-.24-.09-.47-.14-.7.18.03.36.06.52.09.02,0,.03.01.05.01,5.45,1.01,13.69,2.53,22.45-1.66,2.39-1.15,10.51-5.59,14.5-14.63,4.94-11.2.41-22.25-2.59-29.56-.1-.24-.2-.49-.3-.74,5.97,1.39,14.35,2.83,24.33-.62,11.49-3.96,18.66-10.58,20.2-18.62l.06-.29c1.01-5.73-.18-12.7-3.62-21.11ZM1078.5,1407.48c-1.74,2.55-5.22,3.64-12.19,5.37-4.63,1.14-13.27,3.28-23.58,1.26-1.55-1.01-3.41-1.5-5.27-1.37-.88-.28-1.76-.6-2.66-.96-5.81-2.31-13.76-5.48-17.29-12.47-1.89-3.73-1.65-10.09-.99-22.98.07-1.52.16-2.93.26-4.24,6.48,4.36,13.01,7.97,24.05,13.96,17.63,9.56,26.31,13.86,38.66,18.06-.11,1.51-.29,2.34-.99,3.37ZM1045.69,1417.45c-.7-1.4-1.73-2.53-2.96-3.34-1.55-1.01-3.41-1.5-5.27-1.37-1.07.08-2.14.37-3.17.87l-17.28,8.56-13.83,6.86c-4.44,2.2-9.8,1.9-13.97-.78l-13.65-8.78c-3.86-2.47-8.17-4.04-12.61-4.66-.15-.19-.21-.32-.27-.47-.5-1.21-1.14-4.23-2.12-8.81l-.28-1.33c-1.32-6.2-1.37-13.35,2.71-28.08,1.06-3.81,1.51-6.37,1.88-8.43.59-3.37.94-5.29,5.63-13.09-3.28,1.46-6.93,1.91-10.76-.38-2.81-1.67-4.29-3.92-4.97-6.43-4.72,8.1-5.68,11.51-6.64,16.93-.32,1.79-.68,3.83-1.52,6.86-4.28,15.46-5.14,25.94-2.96,36.17l.29,1.32c.63,2.97,1.13,5.3,1.61,7.22-3.13-.13-6.17-1.3-8.63-3.4l-9.99-8.54c-3.65-3.11-7.9-5.31-12.44-6.48-4.23-6.4-6.71-12.9-8.43-26.06-.78-6.03.85-11.41,4.14-19.24,2.57-6.13,4.5-11.74,6.36-17.17,1.28-3.71,2.51-7.29,3.86-10.73-1.87.97-4.06,1.55-6.62,1.45-4.67-.21-7.83-2.56-10.11-5.33-1.1,2.98-2.14,5.99-3.2,9.09-1.78,5.16-3.61,10.51-5.97,16.11-3.46,8.25-6.72,17.2-5.31,28.01,1.2,9.23,2.85,16.04,5.06,21.71-1.41-.65-2.71-1.55-3.84-2.65l-30.46-29.78c-1.56-1.52-3.28-2.89-5.15-4.05.59-7.04,2.36-16.63,3.98-25.35.56-3.01,1.09-5.92,1.59-8.72-1.83,1.45-4.13,2.48-7.05,2.68-4.35.3-7.58-1.47-10.04-3.66-.39,2.13-.8,4.34-1.22,6.61-1.37,7.39-2.76,14.93-3.62,21.66-2.55-1.33-4.89-2.93-7-4.8-7.69-6.81-10.19-15.19-13.09-24.89l-.25-.87q-.84-2.78-.94-5.08c-.04-.88-.09-1.97-.17-3.42-.07-1.45-.18-3.25-.35-5.51-.34-4.69-4.42-8.21-9.1-7.86-.5.04-.98.11-1.45.23-.06,0-.12.03-.17.04-3.85,1.05-6.54,4.7-6.24,8.82.26,3.46.38,5.77.45,7.4h0c.02.39.03.73.05,1.04.18,4.09.3,4.77,1.63,9.22l.25.85c3.18,10.65,6.79,22.72,18.1,32.75,5.58,4.94,12.13,8.61,19.52,10.92.72.23,1.44.44,2.18.64,1.76.48,3.4,1.27,4.82,2.33.49.36.96.76,1.39,1.18l30.46,29.77c6.12,5.98,14.52,9.2,23.07,8.86l4.48-.18c.17-.01.33-.01.49-.01,1.43-.01,2.84.2,4.18.6,1.86.56,3.6,1.51,5.12,2.8l9.99,8.54c7.94,6.78,18.69,9.14,28.75,6.29l.21-.05c1.27-.36,2.57-.54,3.86-.54,2.69,0,5.36.77,7.66,2.25l13.66,8.78c5.09,3.28,10.98,4.93,16.88,4.93,4.74,0,9.48-1.06,13.83-3.22l27.61-13.69,3.5-1.73c4.21-2.08,5.93-7.18,3.85-11.39ZM1175.87,1310.88l-4.3-1.64c-1-.38-1.98-.76-2.94-1.12-18.47-7.06-30.74-12.1-56.52-29.23-6.12-4.06-12.1-7.95-17.89-11.71-22.14-14.39-41.27-26.82-53.91-40-3.25-3.39-8.63-3.51-12.02-.26-3.38,3.25-3.5,8.63-.25,12.02,14,14.61,33.89,27.53,56.92,42.49,5.75,3.74,11.7,7.6,17.74,11.62,25.95,17.24,39.53,23.13,57.08,29.88,1.86.72,3.76,1.44,5.73,2.19l4.28,1.63c1,.39,2.02.57,3.03.57,3.42,0,6.65-2.08,7.94-5.47,1.68-4.38-.51-9.29-4.89-10.97ZM1139.67,1360.16c-2.96-.99-5.56-1.89-7.92-2.74-11.86-4.31-17.95-7.65-35.87-17.51l-2.81-1.54c-23.18-12.74-45.17-27.89-65.36-45.02-3.59-3.04-8.95-2.6-11.99.98-3.03,3.58-2.59,8.95.99,11.98,21.06,17.87,44,33.67,68.18,46.96l2.8,1.54c18.89,10.39,25.45,13.99,39.04,18.86,2.29.83,4.77,1.68,7.54,2.61.9.3,1.81.44,2.7.44,2.78,0,5.4-1.36,6.98-3.65.14-.19.27-.4.38-.61.29-.48.52-.99.7-1.54,1.49-4.45-.91-9.26-5.36-10.76ZM1092.69,1390.48c-1.99-.61-3.84-1.18-5.6-1.76-11.78-3.84-19.47-7.48-38.15-17.62-16.51-8.96-21.8-12.02-30.93-19.11-.95-.75-1.95-1.53-3-2.37-3.67-2.92-9.02-2.31-11.94,1.36-2.93,3.67-2.32,9.02,1.35,11.94,4.71,3.75,8.53,6.59,12.36,9.17,6.48,4.36,13.01,7.97,24.05,13.96,17.63,9.56,26.31,13.86,38.66,18.06,2.56.87,5.28,1.73,8.27,2.64.82.24,1.65.36,2.47.36,2.41,0,4.69-1.03,6.28-2.78.22-.24.43-.5.62-.76.53-.74.95-1.58,1.23-2.49,1.36-4.5-1.18-9.24-5.67-10.6ZM854.12,1310.97c-4.63-.76-9,2.39-9.76,7.02-.32,1.98-.68,4.05-1.06,6.19-.39,2.13-.8,4.34-1.22,6.61-1.37,7.39-2.76,14.93-3.62,21.66-.67,5.27-1.02,10.06-.77,13.89.13,1.9.87,3.61,2.01,4.95,1.57,1.84,3.9,2.99,6.47,2.99.17,0,.35,0,.53-.02h.03c4.68-.3,8.23-4.35,7.93-9.03-.11-1.64-.04-3.68.16-6,.59-7.04,2.36-16.63,3.98-25.35.56-3.01,1.09-5.92,1.59-8.72.26-1.51.51-2.98.75-4.43.76-4.63-2.39-9-7.02-9.76ZM918.15,1308.6c-4.28-1.92-9.31,0-11.23,4.28-1.19,2.64-2.24,5.26-3.23,7.91-1.1,2.98-2.14,5.99-3.2,9.09-1.78,5.16-3.61,10.51-5.97,16.11-3.46,8.25-6.72,17.2-5.31,28.01,1.2,9.23,2.85,16.04,5.06,21.71,2.27,5.87,5.15,10.52,8.75,15.39.95,1.28,2.19,2.22,3.57,2.78,1.04.44,2.15.66,3.28.66.3,0,.6-.02.9-.06,1.45-.14,2.88-.67,4.14-1.61,3.78-2.79,4.57-8.11,1.78-11.88-.78-1.06-1.51-2.08-2.2-3.12-4.23-6.4-6.71-12.9-8.43-26.06-.78-6.03.85-11.41,4.14-19.24,2.57-6.13,4.5-11.74,6.36-17.17,1.28-3.71,2.51-7.29,3.86-10.73.64-1.64,1.3-3.25,2.01-4.83,1.92-4.29.01-9.32-4.28-11.24ZM972.57,1335.41c-3.96-2.53-9.22-1.37-11.75,2.58-2.52,3.94-4.49,7.13-6.05,9.8-4.72,8.1-5.68,11.51-6.64,16.93-.32,1.79-.68,3.83-1.52,6.86-4.28,15.46-5.14,25.94-2.96,36.17l.29,1.32c.63,2.97,1.13,5.3,1.61,7.22,1.4,5.62,2.67,7.75,6.83,12.2l.31.33c1.62,1.75,3.8,2.64,6.01,2.7h.21c2.07,0,4.16-.75,5.79-2.28,3.44-3.21,3.62-8.59.42-12.02l-.32-.34c-1.13-1.2-1.61-1.74-1.85-2.07-.15-.19-.21-.32-.27-.47-.5-1.21-1.14-4.23-2.12-8.81l-.28-1.33c-1.32-6.2-1.37-13.35,2.71-28.08,1.06-3.81,1.51-6.37,1.88-8.43.59-3.37.94-5.29,5.63-13.09,1.22-2.04,2.74-4.48,4.64-7.45,2.53-3.95,1.38-9.21-2.57-11.74Z"/>
    <path class="cls-2" d="M1613.17,649.52v716.26c0,31.48-25.52,57-57,57s-57-25.52-57-57v-570.8l-196.67,212.41c-11.41,12.31-27.65,18.97-44.42,18.21-16.77-.76-32.35-8.88-42.58-22.18l-182.15-236.68-183.71,245.61c-9.98,13.35-25.3,21.65-41.94,22.74-16.63,1.08-32.9-5.17-44.53-17.11l-222.34-228.25v576.05c0,31.48-25.52,57-57,57s-57-25.52-57-57v-716.26c0-23.19,14.05-44.07,35.53-52.8,21.49-8.74,46.12-3.58,62.3,13.03l273.64,280.92,188.76-252.37c10.68-14.28,27.43-22.74,45.26-22.86h.39c17.68,0,34.37,8.21,45.17,22.24l186.81,242.74,249.66-269.63c15.93-17.21,40.78-22.9,62.62-14.34,21.83,8.56,36.2,29.62,36.2,53.07Z"/>
  </g>
  <g class="cls-11">
    <path class="cls-5" d="M3665.21,1049.7c-53.39,13.87-119.84,31.13-255.18,35.01-32.1.93-64.54.22-96.44-2.08-3.67-.63-24.77-7.23-40.22-12.07-19-5.94-36.95-11.56-43.6-13.05-13.44-3.01-26.45-7.92-38.67-14.58-10.31-5.62-22.48-6.47-33.38-2.33l-73.42,27.86c-11.19,4.26-19.81,13.2-23.65,24.56-1.27,3.78-2.66,7.56-4.11,11.23l-.5,1.26c-3.59,9.06-5.27,13.16-7.78,15.49-1.6,1.49-3.18,2.48-4.99,3.64-2.63,1.66-5.82,3.69-8.94,7.3l-17.68-1.83c-.41-.04-.82-.05-1.24-.04l-65.47,2.79c-119.26-27.23-177.68-38.42-227.66-43.65v17.03c46.02,4.96,103.92,15.79,224.98,43.45.74.16,1.5.23,2.26.2l66-2.81,10.71,1.11,11.11,1.15c3.24.33,6.23-1.18,7.91-3.69.02-.01.02-.02.02-.03.06-.09.12-.18.18-.27.46-.71.88-1.25,1.15-1.6,1.66-2.15,3.3-3.19,5.77-4.75,2.1-1.34,4.71-2.99,7.46-5.55,5.43-5.05,7.91-11.31,12.02-21.69l.49-1.25c1.56-3.94,3.05-8,4.42-12.05,2.2-6.52,7.15-11.66,13.58-14.1l73.41-27.87c6.26-2.38,13.26-1.88,19.21,1.36,13.61,7.43,28.11,12.89,43.09,16.25,5.96,1.34,25.24,7.37,42.24,12.69,30.94,9.68,40.45,12.53,43.89,12.78,32.52,2.36,65.61,3.08,98.34,2.14,137.26-3.95,204.74-21.47,258.96-35.56,3.77-.98,7.48-1.94,11.14-2.88v-17.54c-5.04,1.27-10.16,2.6-15.41,3.97ZM3045.27,1145.62c.06-.09.12-.18.18-.27.46-.71.88-1.25,1.15-1.6,1.66-2.15,3.3-3.19,5.77-4.75,2.1-1.34,4.71-2.99,7.46-5.55,5.43-5.05,7.91-11.31,12.02-21.69l.49-1.25c1.56-3.94,3.05-8,4.42-12.05,2.2-6.52,7.15-11.66,13.58-14.1l73.41-27.87c6.26-2.38,13.26-1.88,19.21,1.36,13.61,7.43,28.11,12.89,43.09,16.25,5.96,1.34,25.24,7.37,42.24,12.69,30.94,9.68,40.45,12.53,43.89,12.78,32.52,2.36,65.61,3.08,98.34,2.14,137.26-3.95,204.74-21.47,258.96-35.56,3.77-.98,7.48-1.94,11.14-2.88v-17.54c-5.04,1.27-10.16,2.6-15.41,3.97-53.39,13.87-119.84,31.13-255.18,35.01-32.1.93-64.54.22-96.44-2.08-3.67-.63-24.77-7.23-40.22-12.07-19-5.94-36.95-11.56-43.6-13.05-13.44-3.01-26.45-7.92-38.67-14.58-10.31-5.62-22.48-6.47-33.38-2.33l-73.42,27.86c-11.19,4.26-19.81,13.2-23.65,24.56-1.27,3.78-2.66,7.56-4.11,11.23l-.5,1.26c-3.59,9.06-5.27,13.16-7.78,15.49-1.6,1.49-3.18,2.48-4.99,3.64-2.63,1.66-5.82,3.69-8.94,7.3-.4.45-.8.93-1.19,1.44-3.63,4.71-5.95,9.67-6.91,14.81-.35,1.8-.52,3.61-.53,5.45-.06,12.05,7.01,23.78,17.19,28.53,11.46,5.35,22.2.48,33.56-4.68,7.92-3.59,12.42-6.88,34.1-22.68l8.97-6.54c3.78-2.75,5.4-3.91,7.52-5.05,4.44-2.38,9.35-4.03,14.6-4.91,5.69-.95,11.5.29,16.35,3.5l208.59,137.92c4.76,3.15,10.17,5.18,15.82,6.03,5.46.83,11.14.55,16.69-.89.03,0,.05-.01.06-.01.57.13,1.14.26,1.71.38,125.47,28.1,214.09,37.91,279.76,41.75v-17.04c-65.21-3.85-153.23-13.7-277.93-41.72-1.14-.26-2.31-.38-3.49-.38-1.44,0-2.9.19-4.37.57-2.35.61-4.72.87-7.05.8h-.1c-4.22-.15-8.29-1.4-11.73-3.67l-208.58-137.92c-8.45-5.59-18.59-7.75-28.53-6.09-7.08,1.18-13.75,3.44-19.83,6.7-3.23,1.73-5.59,3.45-9.49,6.29l-8.99,6.54c-20.99,15.31-24.77,18.07-31.1,20.94-9.57,4.34-15.18,6.7-19.35,4.76-4.17-1.94-7.41-7.67-7.38-13.04.02-3.39,1.39-6.22,2.55-8.08.02-.01.02-.02.02-.03ZM3400.86,1285.24c-1.47-3.61-3.37-7.48-5.68-11.64-1.54-2.79-4.43-4.37-7.4-4.38h-.1c-4.22-.15-8.29-1.4-11.73-3.67l-208.58-137.92c-8.45-5.59-18.59-7.75-28.53-6.09-7.08,1.18-13.75,3.44-19.83,6.7-3.23,1.73-5.59,3.45-9.49,6.29l-8.99,6.54c-20.99,15.31-24.77,18.07-31.1,20.94-9.57,4.34-15.18,6.7-19.35,4.76-4.17-1.94-7.41-7.67-7.38-13.04.02-3.39,1.39-6.22,2.55-8.08.02-.01.02-.02.02-.03.06-.09.12-.18.18-.27.66-1.06,1.08-2.27,1.22-3.59.49-4.67-2.91-8.84-7.58-9.33l-4.76-.49-17.68-1.83c-.41-.04-.82-.05-1.24-.04l-65.47,2.79c-119.26-27.23-177.68-38.42-227.66-43.65v17.03c46.02,4.96,103.92,15.79,224.98,43.45.74.16,1.5.23,2.26.2l66-2.81,10.71,1.11c-.35,1.8-.52,3.61-.53,5.45-.06,12.05,7.01,23.78,17.19,28.53,11.46,5.35,22.2.48,33.56-4.68,7.92-3.59,12.42-6.88,34.1-22.68l8.97-6.54c3.78-2.75,5.4-3.91,7.52-5.05,4.44-2.38,9.35-4.03,14.6-4.91,5.69-.95,11.5.29,16.35,3.5l208.59,137.92c4.76,3.15,10.17,5.18,15.82,6.03,5.61,11.04,5.63,15.94,5.34,17.59,0,.03-.01.06-.01.09-.17.88-2.69,3.55-9.06,5.75-6.37,2.21-11.61.94-16.67-.28-3.5-.85-7.85-1.9-11.92-.79-18.47-7.06-30.74-12.1-56.52-29.23-6.12-4.06-12.1-7.95-17.89-11.71-22.14-14.39-41.27-26.82-53.91-40-3.25-3.39-8.63-3.51-12.02-.26-3.38,3.25-3.5,8.63-.25,12.02,14,14.61,33.89,27.53,56.92,42.49,5.75,3.74,11.7,7.6,17.74,11.62,25.95,17.24,39.53,23.13,57.08,29.88.51,3.51,1.95,7.01,3.23,10.14,2.35,5.73,4.79,11.67,2.77,16.24-1.75,3.95-6.11,6.08-6.29,6.16-3.77,1.81-7.78,1.07-12.02.28-4.6-.85-10.69-1.97-15.72,1.67-11.86-4.31-17.95-7.65-35.87-17.51l-2.81-1.54c-23.18-12.74-45.17-27.89-65.36-45.02-3.59-3.04-8.95-2.6-11.99.98-3.03,3.58-2.59,8.95.99,11.98,21.06,17.87,44,33.67,68.18,46.96l2.8,1.54c18.89,10.39,25.45,13.99,39.04,18.86.07.41.15.8.23,1.17.7,3.32.93,4.93.14,6.45-1.69,3.27-7.13,4.82-10.05,5.64-5.58,1.59-10.09.9-14.45.24-4.71-.72-10.38-1.59-15.51,1.55-11.78-3.84-19.47-7.48-38.15-17.62-16.51-8.96-21.8-12.02-30.93-19.11-.28-2.31-.94-4.63-2.16-7.18-3.52-7.31-11.8-16.32-23.54-17.67-7.49-.86-13.73,1.77-18.7,4.87,1.35-7.42,1.9-16.57-2.91-25.04-7.45-13.1-25.87-20.57-39.41-15.98-8.91,3.02-13.42,10.27-16.41,15.06-.07.12-.15.24-.22.37-2.46-4.48-6.19-10.99-14.04-15.3-10.78-5.92-25.51-5.57-35.83.87-7.52,4.69-10.89,11.4-13.1,16.07-3.03-3.7-7.55-8.64-15.63-11.87-3.55-1.42-11.85-4.73-20.93-1.54-3.86,1.35-6.18,3.33-7.72,4.64-1.01.86-1.11.91-1.3.96-.06,0-.12.03-.17.04-1.46.18-4.14-1.43-6.31-2.75-.79-.48-1.57-.94-2.32-1.36-8.78-4.94-18.3-5.03-35.57-5.21-90.76-.93-136.83,6.72-143.52,7.93-29.53.29-47.5.77-61.96,1.16-5.53.15-10.52.28-15.43.39v16.99c5.05-.1,10.19-.24,15.88-.39,14.52-.38,32.59-.87,62.41-1.16.52,0,1.03-.06,1.54-.15.45-.09,46.5-8.75,140.9-7.77,15.97.16,22.63.34,27.43,3.03.6.34,1.22.71,1.85,1.09,2.45,1.48,5.59,3.38,9.31,4.42h0c3.01.86,6.4,1.16,10.1.23,3.05-.77,5.2-2.13,6.76-3.35.54-.41,1.01-.81,1.42-1.16,1.11-.94,1.5-1.25,2.33-1.54,3.07-1.08,6.78.4,8.99,1.29,4.82,1.92,7.16,4.83,9.63,7.9,1.06,1.32,2.33,2.9,3.92,4.3,2.46,2.19,5.69,3.96,10.04,3.66,2.92-.2,5.22-1.23,7.05-2.68,3.23-2.55,5.04-6.39,6.41-9.29,1.76-3.72,3.41-7.23,6.98-9.46,5.09-3.17,13.29-3.34,18.66-.39,3.73,2.05,5.57,5.41,7.52,8.96.97,1.76,2.13,3.89,3.73,5.81,2.28,2.77,5.44,5.12,10.11,5.33,2.56.1,4.75-.48,6.62-1.45,4.24-2.21,6.92-6.47,8.89-9.64,2.59-4.15,4.5-6.94,7.43-7.94,5.9-1.99,15.75,2.26,19.18,8.28,2.97,5.23,1.3,12.51-.17,18.94-.98,4.31-2.12,9.27-.98,13.48.68,2.51,2.16,4.76,4.97,6.43,3.83,2.29,7.48,1.84,10.76.38,2.67-1.18,5.1-3.04,7.17-4.63,3.95-3.01,8.43-6.44,12.7-5.94,4.29.49,8.43,4.57,10.16,8.15.89,1.85.91,2.7.2,9.14-.36,3.36-.87,7.96-1.19,14.14-.75,14.71-1.21,23.58,2.79,31.51,3.65,7.23,9.21,11.94,14.68,15.2,4.18,2.49,8.31,4.14,11.5,5.41,3.38,1.34,6.67,2.31,9.83,2.99,4.67,1.01,9.06,1.39,13.07,1.39,8.43,0,15.14-1.66,18.98-2.61,7.76-1.92,16.56-4.1,22.14-12.28,3.45-5.05,3.8-9.63,3.98-12.74,0-.1.01-.2.01-.29.01-.16.02-.35.03-.53.18.01.38.03.58.06.92.09,2,.26,2.91.4,5.28.81,12.52,1.91,21.66-.68,4.61-1.31,15.43-4.38,20.5-14.2,3.19-6.16,2.56-11.84,1.75-16.02-.05-.24-.09-.47-.14-.7.18.03.36.06.52.09.02,0,.03.01.05.01,5.45,1.01,13.69,2.53,22.45-1.66,2.39-1.15,10.51-5.59,14.5-14.63,4.94-11.2.41-22.25-2.59-29.56-.1-.24-.2-.49-.3-.74,5.97,1.39,14.35,2.83,24.33-.62,11.49-3.96,18.66-10.58,20.2-18.62l.06-.29c1.01-5.73-.18-12.7-3.62-21.11ZM3259.95,1407.48c-1.74,2.55-5.22,3.64-12.19,5.37-4.63,1.14-13.27,3.28-23.58,1.26-1.55-1.01-3.41-1.5-5.27-1.37-.88-.28-1.76-.6-2.66-.96-5.81-2.31-13.76-5.48-17.29-12.47-1.89-3.73-1.65-10.09-.99-22.98.07-1.52.16-2.93.26-4.24,6.48,4.36,13.01,7.97,24.05,13.96,17.63,9.56,26.31,13.86,38.66,18.06-.11,1.51-.29,2.34-.99,3.37ZM3227.14,1417.45c-.7-1.4-1.73-2.53-2.96-3.34-1.55-1.01-3.41-1.5-5.27-1.37-1.07.08-2.14.37-3.17.87l-17.28,8.56-13.83,6.86c-4.44,2.2-9.8,1.9-13.97-.78l-13.65-8.78c-3.86-2.47-8.17-4.04-12.61-4.66-.15-.19-.21-.32-.27-.47-.5-1.21-1.14-4.23-2.12-8.81l-.28-1.33c-1.32-6.2-1.37-13.35,2.71-28.08,1.06-3.81,1.51-6.37,1.88-8.43.59-3.37.94-5.29,5.63-13.09-3.28,1.46-6.93,1.91-10.76-.38-2.81-1.67-4.29-3.92-4.97-6.43-4.72,8.1-5.68,11.51-6.64,16.93-.32,1.79-.68,3.83-1.52,6.86-4.28,15.46-5.14,25.94-2.96,36.17l.29,1.32c.63,2.97,1.13,5.3,1.61,7.22-3.13-.13-6.17-1.3-8.63-3.4l-9.99-8.54c-3.65-3.11-7.9-5.31-12.44-6.48-4.23-6.4-6.71-12.9-8.43-26.06-.78-6.03.85-11.41,4.14-19.24,2.57-6.13,4.5-11.74,6.36-17.17,1.28-3.71,2.51-7.29,3.86-10.73-1.87.97-4.06,1.55-6.62,1.45-4.67-.21-7.83-2.56-10.11-5.33-1.1,2.98-2.14,5.99-3.2,9.09-1.78,5.16-3.61,10.51-5.97,16.11-3.46,8.25-6.72,17.2-5.31,28.01,1.2,9.23,2.85,16.04,5.06,21.71-1.41-.65-2.71-1.55-3.84-2.65l-30.46-29.78c-1.56-1.52-3.28-2.89-5.15-4.05.59-7.04,2.36-16.63,3.98-25.35.56-3.01,1.09-5.92,1.59-8.72-1.83,1.45-4.13,2.48-7.05,2.68-4.35.3-7.58-1.47-10.04-3.66-.39,2.13-.8,4.34-1.22,6.61-1.37,7.39-2.76,14.93-3.62,21.66-2.55-1.33-4.89-2.93-7-4.8-7.69-6.81-10.19-15.19-13.09-24.89l-.25-.87q-.84-2.78-.94-5.08c-.04-.88-.09-1.97-.17-3.42-.07-1.45-.18-3.25-.35-5.51-.34-4.69-4.42-8.21-9.1-7.86-.5.04-.98.11-1.45.23-.06,0-.12.03-.17.04-3.85,1.05-6.54,4.7-6.24,8.82.26,3.46.38,5.77.45,7.4h0c.02.39.03.73.05,1.04.18,4.09.3,4.77,1.63,9.22l.25.85c3.18,10.65,6.79,22.72,18.1,32.75,5.58,4.94,12.13,8.61,19.52,10.92.72.23,1.44.44,2.18.64,1.76.48,3.4,1.27,4.82,2.33.49.36.96.76,1.39,1.18l30.46,29.77c6.12,5.98,14.52,9.2,23.07,8.86l4.48-.18c.17-.01.33-.01.49-.01,1.43-.01,2.84.2,4.18.6,1.86.56,3.6,1.51,5.12,2.8l9.99,8.54c7.94,6.78,18.69,9.14,28.75,6.29l.21-.05c1.27-.36,2.57-.54,3.86-.54,2.69,0,5.36.77,7.66,2.25l13.66,8.78c5.09,3.28,10.98,4.93,16.88,4.93,4.74,0,9.48-1.06,13.83-3.22l27.61-13.69,3.5-1.73c4.21-2.08,5.93-7.18,3.85-11.39ZM3357.32,1310.88l-4.3-1.64c-1-.38-1.98-.76-2.94-1.12-18.47-7.06-30.74-12.1-56.52-29.23-6.12-4.06-12.1-7.95-17.89-11.71-22.14-14.39-41.27-26.82-53.91-40-3.25-3.39-8.63-3.51-12.02-.26-3.38,3.25-3.5,8.63-.25,12.02,14,14.61,33.89,27.53,56.92,42.49,5.75,3.74,11.7,7.6,17.74,11.62,25.95,17.24,39.53,23.13,57.08,29.88,1.86.72,3.76,1.44,5.73,2.19l4.28,1.63c1,.39,2.02.57,3.03.57,3.42,0,6.65-2.08,7.94-5.47,1.68-4.38-.51-9.29-4.89-10.97ZM3321.12,1360.16c-2.96-.99-5.56-1.89-7.92-2.74-11.86-4.31-17.95-7.65-35.87-17.51l-2.81-1.54c-23.18-12.74-45.17-27.89-65.36-45.02-3.59-3.04-8.95-2.6-11.99.98-3.03,3.58-2.59,8.95.99,11.98,21.06,17.87,44,33.67,68.18,46.96l2.8,1.54c18.89,10.39,25.45,13.99,39.04,18.86,2.29.83,4.77,1.68,7.54,2.61.9.3,1.81.44,2.7.44,2.78,0,5.4-1.36,6.98-3.65.14-.19.27-.4.38-.61.29-.48.52-.99.7-1.54,1.49-4.45-.91-9.26-5.36-10.76ZM3274.14,1390.48c-1.99-.61-3.84-1.18-5.6-1.76-11.78-3.84-19.47-7.48-38.15-17.62-16.51-8.96-21.8-12.02-30.93-19.11-.95-.75-1.95-1.53-3-2.37-3.67-2.92-9.02-2.31-11.94,1.36-2.93,3.67-2.32,9.02,1.35,11.94,4.71,3.75,8.53,6.59,12.36,9.17,6.48,4.36,13.01,7.97,24.05,13.96,17.63,9.56,26.31,13.86,38.66,18.06,2.56.87,5.28,1.73,8.27,2.64.82.24,1.65.36,2.47.36,2.41,0,4.69-1.03,6.28-2.78.22-.24.43-.5.62-.76.53-.74.95-1.58,1.23-2.49,1.36-4.5-1.18-9.24-5.67-10.6ZM3035.57,1310.97c-4.63-.76-9,2.39-9.76,7.02-.32,1.98-.68,4.05-1.06,6.19-.39,2.13-.8,4.34-1.22,6.61-1.37,7.39-2.76,14.93-3.62,21.66-.67,5.27-1.02,10.06-.77,13.89.13,1.9.87,3.61,2.01,4.95,1.57,1.84,3.9,2.99,6.47,2.99.17,0,.35,0,.53-.02h.03c4.68-.3,8.23-4.35,7.93-9.03-.11-1.64-.04-3.68.16-6,.59-7.04,2.36-16.63,3.98-25.35.56-3.01,1.09-5.92,1.59-8.72.26-1.51.51-2.98.75-4.43.76-4.63-2.39-9-7.02-9.76ZM3099.6,1308.6c-4.28-1.92-9.31,0-11.23,4.28-1.19,2.64-2.24,5.26-3.23,7.91-1.1,2.98-2.14,5.99-3.2,9.09-1.78,5.16-3.61,10.51-5.97,16.11-3.46,8.25-6.72,17.2-5.31,28.01,1.2,9.23,2.85,16.04,5.06,21.71,2.27,5.87,5.15,10.52,8.75,15.39.95,1.28,2.19,2.22,3.57,2.78,1.04.44,2.15.66,3.28.66.3,0,.6-.02.9-.06,1.45-.14,2.88-.67,4.14-1.61,3.78-2.79,4.57-8.11,1.78-11.88-.78-1.06-1.51-2.08-2.2-3.12-4.23-6.4-6.71-12.9-8.43-26.06-.78-6.03.85-11.41,4.14-19.24,2.57-6.13,4.5-11.74,6.36-17.17,1.28-3.71,2.51-7.29,3.86-10.73.64-1.64,1.3-3.25,2.01-4.83,1.92-4.29.01-9.32-4.28-11.24ZM3154.02,1335.41c-3.96-2.53-9.22-1.37-11.75,2.58-2.52,3.94-4.49,7.13-6.05,9.8-4.72,8.1-5.68,11.51-6.64,16.93-.32,1.79-.68,3.83-1.52,6.86-4.28,15.46-5.14,25.94-2.96,36.17l.29,1.32c.63,2.97,1.13,5.3,1.61,7.22,1.4,5.62,2.67,7.75,6.83,12.2l.31.33c1.62,1.75,3.8,2.64,6.01,2.7h.21c2.07,0,4.16-.75,5.79-2.28,3.44-3.21,3.62-8.59.42-12.02l-.32-.34c-1.13-1.2-1.61-1.74-1.85-2.07-.15-.19-.21-.32-.27-.47-.5-1.21-1.14-4.23-2.12-8.81l-.28-1.33c-1.32-6.2-1.37-13.35,2.71-28.08,1.06-3.81,1.51-6.37,1.88-8.43.59-3.37.94-5.29,5.63-13.09,1.22-2.04,2.74-4.48,4.64-7.45,2.53-3.95,1.38-9.21-2.57-11.74Z"/>
    <path class="cls-5" d="M3794.62,649.52v716.26c0,31.48-25.52,57-57,57s-57-25.52-57-57v-570.8l-196.67,212.41c-11.41,12.31-27.65,18.97-44.42,18.21-16.77-.76-32.35-8.88-42.58-22.18l-182.15-236.68-183.71,245.61c-9.98,13.35-25.3,21.65-41.94,22.74-16.63,1.08-32.9-5.17-44.53-17.11l-222.34-228.25v576.05c0,31.48-25.52,57-57,57s-57-25.52-57-57v-716.26c0-23.19,14.05-44.07,35.53-52.8,21.49-8.74,46.12-3.58,62.3,13.03l273.64,280.92,188.76-252.37c10.68-14.28,27.43-22.74,45.26-22.86h.39c17.68,0,34.37,8.21,45.17,22.24l186.81,242.74,249.66-269.63c15.93-17.21,40.78-22.9,62.62-14.34,21.83,8.56,36.2,29.62,36.2,53.07Z"/>
  </g>
  <g class="cls-11">
    <path class="cls-5" d="M5830.31,1049.7c-53.39,13.87-119.84,31.13-255.18,35.01-32.1.93-64.54.22-96.44-2.08-3.67-.63-24.77-7.23-40.22-12.07-19-5.94-36.95-11.56-43.6-13.05-13.44-3.01-26.45-7.92-38.67-14.58-10.31-5.62-22.48-6.47-33.38-2.33l-73.42,27.86c-11.19,4.26-19.81,13.2-23.65,24.56-1.27,3.78-2.66,7.56-4.11,11.23l-.5,1.26c-3.59,9.06-5.27,13.16-7.78,15.49-1.6,1.49-3.18,2.48-4.99,3.64-2.63,1.66-5.82,3.69-8.94,7.3l-17.68-1.83c-.41-.04-.82-.05-1.24-.04l-65.47,2.79c-119.26-27.23-177.68-38.42-227.66-43.65v17.03c46.02,4.96,103.92,15.79,224.98,43.45.74.16,1.5.23,2.26.2l66-2.81,10.71,1.11,11.11,1.15c3.24.33,6.23-1.18,7.91-3.69.02-.01.02-.02.02-.03.06-.09.12-.18.18-.27.46-.71.88-1.25,1.15-1.6,1.66-2.15,3.3-3.19,5.77-4.75,2.1-1.34,4.71-2.99,7.46-5.55,5.43-5.05,7.91-11.31,12.02-21.69l.49-1.25c1.56-3.94,3.05-8,4.42-12.05,2.2-6.52,7.15-11.66,13.58-14.1l73.41-27.87c6.26-2.38,13.26-1.88,19.21,1.36,13.61,7.43,28.11,12.89,43.09,16.25,5.96,1.34,25.24,7.37,42.24,12.69,30.94,9.68,40.45,12.53,43.89,12.78,32.52,2.36,65.61,3.08,98.34,2.14,137.26-3.95,204.74-21.47,258.96-35.56,3.77-.98,7.48-1.94,11.14-2.88v-17.54c-5.04,1.27-10.16,2.6-15.41,3.97ZM5210.37,1145.62c.06-.09.12-.18.18-.27.46-.71.88-1.25,1.15-1.6,1.66-2.15,3.3-3.19,5.77-4.75,2.1-1.34,4.71-2.99,7.46-5.55,5.43-5.05,7.91-11.31,12.02-21.69l.49-1.25c1.56-3.94,3.05-8,4.42-12.05,2.2-6.52,7.15-11.66,13.58-14.1l73.41-27.87c6.26-2.38,13.26-1.88,19.21,1.36,13.61,7.43,28.11,12.89,43.09,16.25,5.96,1.34,25.24,7.37,42.24,12.69,30.94,9.68,40.45,12.53,43.89,12.78,32.52,2.36,65.61,3.08,98.34,2.14,137.26-3.95,204.74-21.47,258.96-35.56,3.77-.98,7.48-1.94,11.14-2.88v-17.54c-5.04,1.27-10.16,2.6-15.41,3.97-53.39,13.87-119.84,31.13-255.18,35.01-32.1.93-64.54.22-96.44-2.08-3.67-.63-24.77-7.23-40.22-12.07-19-5.94-36.95-11.56-43.6-13.05-13.44-3.01-26.45-7.92-38.67-14.58-10.31-5.62-22.48-6.47-33.38-2.33l-73.42,27.86c-11.19,4.26-19.81,13.2-23.65,24.56-1.27,3.78-2.66,7.56-4.11,11.23l-.5,1.26c-3.59,9.06-5.27,13.16-7.78,15.49-1.6,1.49-3.18,2.48-4.99,3.64-2.63,1.66-5.82,3.69-8.94,7.3-.4.45-.8.93-1.19,1.44-3.63,4.71-5.95,9.67-6.91,14.81-.35,1.8-.52,3.61-.53,5.45-.06,12.05,7.01,23.78,17.19,28.53,11.46,5.35,22.2.48,33.56-4.68,7.92-3.59,12.42-6.88,34.1-22.68l8.97-6.54c3.78-2.75,5.4-3.91,7.52-5.05,4.44-2.38,9.35-4.03,14.6-4.91,5.69-.95,11.5.29,16.35,3.5l208.59,137.92c4.76,3.15,10.17,5.18,15.82,6.03,5.46.83,11.14.55,16.69-.89.03,0,.05-.01.06-.01.57.13,1.14.26,1.71.38,125.47,28.1,214.09,37.91,279.76,41.75v-17.04c-65.21-3.85-153.23-13.7-277.93-41.72-1.14-.26-2.31-.38-3.49-.38-1.44,0-2.9.19-4.37.57-2.35.61-4.72.87-7.05.8h-.1c-4.22-.15-8.29-1.4-11.73-3.67l-208.58-137.92c-8.45-5.59-18.59-7.75-28.53-6.09-7.08,1.18-13.75,3.44-19.83,6.7-3.23,1.73-5.59,3.45-9.49,6.29l-8.99,6.54c-20.99,15.31-24.77,18.07-31.1,20.94-9.57,4.34-15.18,6.7-19.35,4.76-4.17-1.94-7.41-7.67-7.38-13.04.02-3.39,1.39-6.22,2.55-8.08.02-.01.02-.02.02-.03ZM5565.96,1285.24c-1.47-3.61-3.37-7.48-5.68-11.64-1.54-2.79-4.43-4.37-7.4-4.38h-.1c-4.22-.15-8.29-1.4-11.73-3.67l-208.58-137.92c-8.45-5.59-18.59-7.75-28.53-6.09-7.08,1.18-13.75,3.44-19.83,6.7-3.23,1.73-5.59,3.45-9.49,6.29l-8.99,6.54c-20.99,15.31-24.77,18.07-31.1,20.94-9.57,4.34-15.18,6.7-19.35,4.76-4.17-1.94-7.41-7.67-7.38-13.04.02-3.39,1.39-6.22,2.55-8.08.02-.01.02-.02.02-.03.06-.09.12-.18.18-.27.66-1.06,1.08-2.27,1.22-3.59.49-4.67-2.91-8.84-7.58-9.33l-4.76-.49-17.68-1.83c-.41-.04-.82-.05-1.24-.04l-65.47,2.79c-119.26-27.23-177.68-38.42-227.66-43.65v17.03c46.02,4.96,103.92,15.79,224.98,43.45.74.16,1.5.23,2.26.2l66-2.81,10.71,1.11c-.35,1.8-.52,3.61-.53,5.45-.06,12.05,7.01,23.78,17.19,28.53,11.46,5.35,22.2.48,33.56-4.68,7.92-3.59,12.42-6.88,34.1-22.68l8.97-6.54c3.78-2.75,5.4-3.91,7.52-5.05,4.44-2.38,9.35-4.03,14.6-4.91,5.69-.95,11.5.29,16.35,3.5l208.59,137.92c4.76,3.15,10.17,5.18,15.82,6.03,5.61,11.04,5.63,15.94,5.34,17.59,0,.03-.01.06-.01.09-.17.88-2.69,3.55-9.06,5.75-6.37,2.21-11.61.94-16.67-.28-3.5-.85-7.85-1.9-11.92-.79-18.47-7.06-30.74-12.1-56.52-29.23-6.12-4.06-12.1-7.95-17.89-11.71-22.14-14.39-41.27-26.82-53.91-40-3.25-3.39-8.63-3.51-12.02-.26-3.38,3.25-3.5,8.63-.25,12.02,14,14.61,33.89,27.53,56.92,42.49,5.75,3.74,11.7,7.6,17.74,11.62,25.95,17.24,39.53,23.13,57.08,29.88.51,3.51,1.95,7.01,3.23,10.14,2.35,5.73,4.79,11.67,2.77,16.24-1.75,3.95-6.11,6.08-6.29,6.16-3.77,1.81-7.78,1.07-12.02.28-4.6-.85-10.69-1.97-15.72,1.67-11.86-4.31-17.95-7.65-35.87-17.51l-2.81-1.54c-23.18-12.74-45.17-27.89-65.36-45.02-3.59-3.04-8.95-2.6-11.99.98-3.03,3.58-2.59,8.95.99,11.98,21.06,17.87,44,33.67,68.18,46.96l2.8,1.54c18.89,10.39,25.45,13.99,39.04,18.86.07.41.15.8.23,1.17.7,3.32.93,4.93.14,6.45-1.69,3.27-7.13,4.82-10.05,5.64-5.58,1.59-10.09.9-14.45.24-4.71-.72-10.38-1.59-15.51,1.55-11.78-3.84-19.47-7.48-38.15-17.62-16.51-8.96-21.8-12.02-30.93-19.11-.28-2.31-.94-4.63-2.16-7.18-3.52-7.31-11.8-16.32-23.54-17.67-7.49-.86-13.73,1.77-18.7,4.87,1.35-7.42,1.9-16.57-2.91-25.04-7.45-13.1-25.87-20.57-39.41-15.98-8.91,3.02-13.42,10.27-16.41,15.06-.07.12-.15.24-.22.37-2.46-4.48-6.19-10.99-14.04-15.3-10.78-5.92-25.51-5.57-35.83.87-7.52,4.69-10.89,11.4-13.1,16.07-3.03-3.7-7.55-8.64-15.63-11.87-3.55-1.42-11.85-4.73-20.93-1.54-3.86,1.35-6.18,3.33-7.72,4.64-1.01.86-1.11.91-1.3.96-.06,0-.12.03-.17.04-1.46.18-4.14-1.43-6.31-2.75-.79-.48-1.57-.94-2.32-1.36-8.78-4.94-18.3-5.03-35.57-5.21-90.76-.93-136.83,6.72-143.52,7.93-29.53.29-47.5.77-61.96,1.16-5.53.15-10.52.28-15.43.39v16.99c5.05-.1,10.19-.24,15.88-.39,14.52-.38,32.59-.87,62.41-1.16.52,0,1.03-.06,1.54-.15.45-.09,46.5-8.75,140.9-7.77,15.97.16,22.63.34,27.43,3.03.6.34,1.22.71,1.85,1.09,2.45,1.48,5.59,3.38,9.31,4.42h0c3.01.86,6.4,1.16,10.1.23,3.05-.77,5.2-2.13,6.76-3.35.54-.41,1.01-.81,1.42-1.16,1.11-.94,1.5-1.25,2.33-1.54,3.07-1.08,6.78.4,8.99,1.29,4.82,1.92,7.16,4.83,9.63,7.9,1.06,1.32,2.33,2.9,3.92,4.3,2.46,2.19,5.69,3.96,10.04,3.66,2.92-.2,5.22-1.23,7.05-2.68,3.23-2.55,5.04-6.39,6.41-9.29,1.76-3.72,3.41-7.23,6.98-9.46,5.09-3.17,13.29-3.34,18.66-.39,3.73,2.05,5.57,5.41,7.52,8.96.97,1.76,2.13,3.89,3.73,5.81,2.28,2.77,5.44,5.12,10.11,5.33,2.56.1,4.75-.48,6.62-1.45,4.24-2.21,6.92-6.47,8.89-9.64,2.59-4.15,4.5-6.94,7.43-7.94,5.9-1.99,15.75,2.26,19.18,8.28,2.97,5.23,1.3,12.51-.17,18.94-.98,4.31-2.12,9.27-.98,13.48.68,2.51,2.16,4.76,4.97,6.43,3.83,2.29,7.48,1.84,10.76.38,2.67-1.18,5.1-3.04,7.17-4.63,3.95-3.01,8.43-6.44,12.7-5.94,4.29.49,8.43,4.57,10.16,8.15.89,1.85.91,2.7.2,9.14-.36,3.36-.87,7.96-1.19,14.14-.75,14.71-1.21,23.58,2.79,31.51,3.65,7.23,9.21,11.94,14.68,15.2,4.18,2.49,8.31,4.14,11.5,5.41,3.38,1.34,6.67,2.31,9.83,2.99,4.67,1.01,9.06,1.39,13.07,1.39,8.43,0,15.14-1.66,18.98-2.61,7.76-1.92,16.56-4.1,22.14-12.28,3.45-5.05,3.8-9.63,3.98-12.74,0-.1.01-.2.01-.29.01-.16.02-.35.03-.53.18.01.38.03.58.06.92.09,2,.26,2.91.4,5.28.81,12.52,1.91,21.66-.68,4.61-1.31,15.43-4.38,20.5-14.2,3.19-6.16,2.56-11.84,1.75-16.02-.05-.24-.09-.47-.14-.7.18.03.36.06.52.09.02,0,.03.01.05.01,5.45,1.01,13.69,2.53,22.45-1.66,2.39-1.15,10.51-5.59,14.5-14.63,4.94-11.2.41-22.25-2.59-29.56-.1-.24-.2-.49-.3-.74,5.97,1.39,14.35,2.83,24.33-.62,11.49-3.96,18.66-10.58,20.2-18.62l.06-.29c1.01-5.73-.18-12.7-3.62-21.11ZM5425.05,1407.48c-1.74,2.55-5.22,3.64-12.19,5.37-4.63,1.14-13.27,3.28-23.58,1.26-1.55-1.01-3.41-1.5-5.27-1.37-.88-.28-1.76-.6-2.66-.96-5.81-2.31-13.76-5.48-17.29-12.47-1.89-3.73-1.65-10.09-.99-22.98.07-1.52.16-2.93.26-4.24,6.48,4.36,13.01,7.97,24.05,13.96,17.63,9.56,26.31,13.86,38.66,18.06-.11,1.51-.29,2.34-.99,3.37ZM5392.24,1417.45c-.7-1.4-1.73-2.53-2.96-3.34-1.55-1.01-3.41-1.5-5.27-1.37-1.07.08-2.14.37-3.17.87l-17.28,8.56-13.83,6.86c-4.44,2.2-9.8,1.9-13.97-.78l-13.65-8.78c-3.86-2.47-8.17-4.04-12.61-4.66-.15-.19-.21-.32-.27-.47-.5-1.21-1.14-4.23-2.12-8.81l-.28-1.33c-1.32-6.2-1.37-13.35,2.71-28.08,1.06-3.81,1.51-6.37,1.88-8.43.59-3.37.94-5.29,5.63-13.09-3.28,1.46-6.93,1.91-10.76-.38-2.81-1.67-4.29-3.92-4.97-6.43-4.72,8.1-5.68,11.51-6.64,16.93-.32,1.79-.68,3.83-1.52,6.86-4.28,15.46-5.14,25.94-2.96,36.17l.29,1.32c.63,2.97,1.13,5.3,1.61,7.22-3.13-.13-6.17-1.3-8.63-3.4l-9.99-8.54c-3.65-3.11-7.9-5.31-12.44-6.48-4.23-6.4-6.71-12.9-8.43-26.06-.78-6.03.85-11.41,4.14-19.24,2.57-6.13,4.5-11.74,6.36-17.17,1.28-3.71,2.51-7.29,3.86-10.73-1.87.97-4.06,1.55-6.62,1.45-4.67-.21-7.83-2.56-10.11-5.33-1.1,2.98-2.14,5.99-3.2,9.09-1.78,5.16-3.61,10.51-5.97,16.11-3.46,8.25-6.72,17.2-5.31,28.01,1.2,9.23,2.85,16.04,5.06,21.71-1.41-.65-2.71-1.55-3.84-2.65l-30.46-29.78c-1.56-1.52-3.28-2.89-5.15-4.05.59-7.04,2.36-16.63,3.98-25.35.56-3.01,1.09-5.92,1.59-8.72-1.83,1.45-4.13,2.48-7.05,2.68-4.35.3-7.58-1.47-10.04-3.66-.39,2.13-.8,4.34-1.22,6.61-1.37,7.39-2.76,14.93-3.62,21.66-2.55-1.33-4.89-2.93-7-4.8-7.69-6.81-10.19-15.19-13.09-24.89l-.25-.87q-.84-2.78-.94-5.08c-.04-.88-.09-1.97-.17-3.42-.07-1.45-.18-3.25-.35-5.51-.34-4.69-4.42-8.21-9.1-7.86-.5.04-.98.11-1.45.23-.06,0-.12.03-.17.04-3.85,1.05-6.54,4.7-6.24,8.82.26,3.46.38,5.77.45,7.4h0c.02.39.03.73.05,1.04.18,4.09.3,4.77,1.63,9.22l.25.85c3.18,10.65,6.79,22.72,18.1,32.75,5.58,4.94,12.13,8.61,19.52,10.92.72.23,1.44.44,2.18.64,1.76.48,3.4,1.27,4.82,2.33.49.36.96.76,1.39,1.18l30.46,29.77c6.12,5.98,14.52,9.2,23.07,8.86l4.48-.18c.17-.01.33-.01.49-.01,1.43-.01,2.84.2,4.18.6,1.86.56,3.6,1.51,5.12,2.8l9.99,8.54c7.94,6.78,18.69,9.14,28.75,6.29l.21-.05c1.27-.36,2.57-.54,3.86-.54,2.69,0,5.36.77,7.66,2.25l13.66,8.78c5.09,3.28,10.98,4.93,16.88,4.93,4.74,0,9.48-1.06,13.83-3.22l27.61-13.69,3.5-1.73c4.21-2.08,5.93-7.18,3.85-11.39ZM5522.42,1310.88l-4.3-1.64c-1-.38-1.98-.76-2.94-1.12-18.47-7.06-30.74-12.1-56.52-29.23-6.12-4.06-12.1-7.95-17.89-11.71-22.14-14.39-41.27-26.82-53.91-40-3.25-3.39-8.63-3.51-12.02-.26-3.38,3.25-3.5,8.63-.25,12.02,14,14.61,33.89,27.53,56.92,42.49,5.75,3.74,11.7,7.6,17.74,11.62,25.95,17.24,39.53,23.13,57.08,29.88,1.86.72,3.76,1.44,5.73,2.19l4.28,1.63c1,.39,2.02.57,3.03.57,3.42,0,6.65-2.08,7.94-5.47,1.68-4.38-.51-9.29-4.89-10.97ZM5486.22,1360.16c-2.96-.99-5.56-1.89-7.92-2.74-11.86-4.31-17.95-7.65-35.87-17.51l-2.81-1.54c-23.18-12.74-45.17-27.89-65.36-45.02-3.59-3.04-8.95-2.6-11.99.98-3.03,3.58-2.59,8.95.99,11.98,21.06,17.87,44,33.67,68.18,46.96l2.8,1.54c18.89,10.39,25.45,13.99,39.04,18.86,2.29.83,4.77,1.68,7.54,2.61.9.3,1.81.44,2.7.44,2.78,0,5.4-1.36,6.98-3.65.14-.19.27-.4.38-.61.29-.48.52-.99.7-1.54,1.49-4.45-.91-9.26-5.36-10.76ZM5439.24,1390.48c-1.99-.61-3.84-1.18-5.6-1.76-11.78-3.84-19.47-7.48-38.15-17.62-16.51-8.96-21.8-12.02-30.93-19.11-.95-.75-1.95-1.53-3-2.37-3.67-2.92-9.02-2.31-11.94,1.36-2.93,3.67-2.32,9.02,1.35,11.94,4.71,3.75,8.53,6.59,12.36,9.17,6.48,4.36,13.01,7.97,24.05,13.96,17.63,9.56,26.31,13.86,38.66,18.06,2.56.87,5.28,1.73,8.27,2.64.82.24,1.65.36,2.47.36,2.41,0,4.69-1.03,6.28-2.78.22-.24.43-.5.62-.76.53-.74.95-1.58,1.23-2.49,1.36-4.5-1.18-9.24-5.67-10.6ZM5200.67,1310.97c-4.63-.76-9,2.39-9.76,7.02-.32,1.98-.68,4.05-1.06,6.19-.39,2.13-.8,4.34-1.22,6.61-1.37,7.39-2.76,14.93-3.62,21.66-.67,5.27-1.02,10.06-.77,13.89.13,1.9.87,3.61,2.01,4.95,1.57,1.84,3.9,2.99,6.47,2.99.17,0,.35,0,.53-.02h.03c4.68-.3,8.23-4.35,7.93-9.03-.11-1.64-.04-3.68.16-6,.59-7.04,2.36-16.63,3.98-25.35.56-3.01,1.09-5.92,1.59-8.72.26-1.51.51-2.98.75-4.43.76-4.63-2.39-9-7.02-9.76ZM5264.7,1308.6c-4.28-1.92-9.31,0-11.23,4.28-1.19,2.64-2.24,5.26-3.23,7.91-1.1,2.98-2.14,5.99-3.2,9.09-1.78,5.16-3.61,10.51-5.97,16.11-3.46,8.25-6.72,17.2-5.31,28.01,1.2,9.23,2.85,16.04,5.06,21.71,2.27,5.87,5.15,10.52,8.75,15.39.95,1.28,2.19,2.22,3.57,2.78,1.04.44,2.15.66,3.28.66.3,0,.6-.02.9-.06,1.45-.14,2.88-.67,4.14-1.61,3.78-2.79,4.57-8.11,1.78-11.88-.78-1.06-1.51-2.08-2.2-3.12-4.23-6.4-6.71-12.9-8.43-26.06-.78-6.03.85-11.41,4.14-19.24,2.57-6.13,4.5-11.74,6.36-17.17,1.28-3.71,2.51-7.29,3.86-10.73.64-1.64,1.3-3.25,2.01-4.83,1.92-4.29.01-9.32-4.28-11.24ZM5319.12,1335.41c-3.96-2.53-9.22-1.37-11.75,2.58-2.52,3.94-4.49,7.13-6.05,9.8-4.72,8.1-5.68,11.51-6.64,16.93-.32,1.79-.68,3.83-1.52,6.86-4.28,15.46-5.14,25.94-2.96,36.17l.29,1.32c.63,2.97,1.13,5.3,1.61,7.22,1.4,5.62,2.67,7.75,6.83,12.2l.31.33c1.62,1.75,3.8,2.64,6.01,2.7h.21c2.07,0,4.16-.75,5.79-2.28,3.44-3.21,3.62-8.59.42-12.02l-.32-.34c-1.13-1.2-1.61-1.74-1.85-2.07-.15-.19-.21-.32-.27-.47-.5-1.21-1.14-4.23-2.12-8.81l-.28-1.33c-1.32-6.2-1.37-13.35,2.71-28.08,1.06-3.81,1.51-6.37,1.88-8.43.59-3.37.94-5.29,5.63-13.09,1.22-2.04,2.74-4.48,4.64-7.45,2.53-3.95,1.38-9.21-2.57-11.74Z"/>
    <path class="cls-5" d="M5959.72,649.52v716.26c0,31.48-25.52,57-57,57s-57-25.52-57-57v-570.8l-196.67,212.41c-11.41,12.31-27.65,18.97-44.42,18.21-16.77-.76-32.35-8.88-42.58-22.18l-182.15-236.68-183.71,245.61c-9.98,13.35-25.3,21.65-41.94,22.74-16.63,1.08-32.9-5.17-44.53-17.11l-222.34-228.25v576.05c0,31.48-25.52,57-57,57s-57-25.52-57-57v-716.26c0-23.19,14.05-44.07,35.53-52.8,21.49-8.74,46.12-3.58,62.3,13.03l273.64,280.92,188.76-252.37c10.68-14.28,27.43-22.74,45.26-22.86h.39c17.68,0,34.37,8.21,45.17,22.24l186.81,242.74,249.66-269.63c15.93-17.21,40.78-22.9,62.62-14.34,21.83,8.56,36.2,29.62,36.2,53.07Z"/>
  </g>
  <g class="cls-11">
    <path class="cls-5" d="M1483.76,3206.64c-53.39,13.87-119.84,31.13-255.18,35.01-32.1.93-64.54.22-96.44-2.08-3.67-.63-24.77-7.23-40.22-12.07-19-5.94-36.95-11.56-43.6-13.05-13.44-3.01-26.45-7.92-38.67-14.58-10.31-5.62-22.48-6.47-33.38-2.33l-73.42,27.86c-11.19,4.26-19.81,13.2-23.65,24.56-1.27,3.78-2.66,7.56-4.11,11.23l-.5,1.26c-3.59,9.06-5.27,13.16-7.78,15.49-1.6,1.49-3.18,2.48-4.99,3.64-2.63,1.66-5.82,3.69-8.94,7.3l-17.68-1.83c-.41-.04-.82-.05-1.24-.04l-65.47,2.79c-119.26-27.23-177.68-38.42-227.66-43.65v17.03c46.02,4.96,103.92,15.79,224.98,43.45.74.16,1.5.23,2.26.2l66-2.81,10.71,1.11,11.11,1.15c3.24.33,6.23-1.18,7.91-3.69.02-.01.02-.02.02-.03.06-.09.12-.18.18-.27.46-.71.88-1.25,1.15-1.6,1.66-2.15,3.3-3.19,5.77-4.75,2.1-1.34,4.71-2.99,7.46-5.55,5.43-5.05,7.91-11.31,12.02-21.69l.49-1.25c1.56-3.94,3.05-8,4.42-12.05,2.2-6.52,7.15-11.66,13.58-14.1l73.41-27.87c6.26-2.38,13.26-1.88,19.21,1.36,13.61,7.43,28.11,12.89,43.09,16.25,5.96,1.34,25.24,7.37,42.24,12.69,30.94,9.68,40.45,12.53,43.89,12.78,32.52,2.36,65.61,3.08,98.34,2.14,137.26-3.95,204.74-21.47,258.96-35.56,3.77-.98,7.48-1.94,11.14-2.88v-17.54c-5.04,1.27-10.16,2.6-15.41,3.97ZM863.82,3302.56c.06-.09.12-.18.18-.27.46-.71.88-1.25,1.15-1.6,1.66-2.15,3.3-3.19,5.77-4.75,2.1-1.34,4.71-2.99,7.46-5.55,5.43-5.05,7.91-11.31,12.02-21.69l.49-1.25c1.56-3.94,3.05-8,4.42-12.05,2.2-6.52,7.15-11.66,13.58-14.1l73.41-27.87c6.26-2.38,13.26-1.88,19.21,1.36,13.61,7.43,28.11,12.89,43.09,16.25,5.96,1.34,25.24,7.37,42.24,12.69,30.94,9.68,40.45,12.53,43.89,12.78,32.52,2.36,65.61,3.08,98.34,2.14,137.26-3.95,204.74-21.47,258.96-35.56,3.77-.98,7.48-1.94,11.14-2.88v-17.54c-5.04,1.27-10.16,2.6-15.41,3.97-53.39,13.87-119.84,31.13-255.18,35.01-32.1.93-64.54.22-96.44-2.08-3.67-.63-24.77-7.23-40.22-12.07-19-5.94-36.95-11.56-43.6-13.05-13.44-3.01-26.45-7.92-38.67-14.58-10.31-5.62-22.48-6.47-33.38-2.33l-73.42,27.86c-11.19,4.26-19.81,13.2-23.65,24.56-1.27,3.78-2.66,7.56-4.11,11.23l-.5,1.26c-3.59,9.06-5.27,13.16-7.78,15.49-1.6,1.49-3.18,2.48-4.99,3.64-2.63,1.66-5.82,3.69-8.94,7.3-.4.45-.8.93-1.19,1.44-3.63,4.71-5.95,9.67-6.91,14.81-.35,1.8-.52,3.61-.53,5.45-.06,12.05,7.01,23.78,17.19,28.53,11.46,5.35,22.2.48,33.56-4.68,7.92-3.59,12.42-6.88,34.1-22.68l8.97-6.54c3.78-2.75,5.4-3.91,7.52-5.05,4.44-2.38,9.35-4.03,14.6-4.91,5.69-.95,11.5.29,16.35,3.5l208.59,137.92c4.76,3.15,10.17,5.18,15.82,6.03,5.46.83,11.14.55,16.69-.89.03,0,.05-.01.06-.01.57.13,1.14.26,1.71.38,125.47,28.1,214.09,37.91,279.76,41.75v-17.04c-65.21-3.85-153.23-13.7-277.93-41.72-1.14-.26-2.31-.38-3.49-.38-1.44,0-2.9.19-4.37.57-2.35.61-4.72.87-7.05.8h-.1c-4.22-.15-8.29-1.4-11.73-3.67l-208.58-137.92c-8.45-5.59-18.59-7.75-28.53-6.09-7.08,1.18-13.75,3.44-19.83,6.7-3.23,1.73-5.59,3.45-9.49,6.29l-8.99,6.54c-20.99,15.31-24.77,18.07-31.1,20.94-9.57,4.34-15.18,6.7-19.35,4.76-4.17-1.94-7.41-7.67-7.38-13.04.02-3.39,1.39-6.22,2.55-8.08.02-.01.02-.02.02-.03ZM1219.41,3442.18c-1.47-3.61-3.37-7.48-5.68-11.64-1.54-2.79-4.43-4.37-7.4-4.38h-.1c-4.22-.15-8.29-1.4-11.73-3.67l-208.58-137.92c-8.45-5.59-18.59-7.75-28.53-6.09-7.08,1.18-13.75,3.44-19.83,6.7-3.23,1.73-5.59,3.45-9.49,6.29l-8.99,6.54c-20.99,15.31-24.77,18.07-31.1,20.94-9.57,4.34-15.18,6.7-19.35,4.76-4.17-1.94-7.41-7.67-7.38-13.04.02-3.39,1.39-6.22,2.55-8.08.02-.01.02-.02.02-.03.06-.09.12-.18.18-.27.66-1.06,1.08-2.27,1.22-3.59.49-4.67-2.91-8.84-7.58-9.33l-4.76-.49-17.68-1.83c-.41-.04-.82-.05-1.24-.04l-65.47,2.79c-119.26-27.23-177.68-38.42-227.66-43.65v17.03c46.02,4.96,103.92,15.79,224.98,43.45.74.16,1.5.23,2.26.2l66-2.81,10.71,1.11c-.35,1.8-.52,3.61-.53,5.45-.06,12.05,7.01,23.78,17.19,28.53,11.46,5.35,22.2.48,33.56-4.68,7.92-3.59,12.42-6.88,34.1-22.68l8.97-6.54c3.78-2.75,5.4-3.91,7.52-5.05,4.44-2.38,9.35-4.03,14.6-4.91,5.69-.95,11.5.29,16.35,3.5l208.59,137.92c4.76,3.15,10.17,5.18,15.82,6.03,5.61,11.04,5.63,15.94,5.34,17.59,0,.03-.01.06-.01.09-.17.88-2.69,3.55-9.06,5.75-6.37,2.21-11.61.94-16.67-.28-3.5-.85-7.85-1.9-11.92-.79-18.47-7.06-30.74-12.1-56.52-29.23-6.12-4.06-12.1-7.95-17.89-11.71-22.14-14.39-41.27-26.82-53.91-40-3.25-3.39-8.63-3.51-12.02-.26-3.38,3.25-3.5,8.63-.25,12.02,14,14.61,33.89,27.53,56.92,42.49,5.75,3.74,11.7,7.6,17.74,11.62,25.95,17.24,39.53,23.13,57.08,29.88.51,3.51,1.95,7.01,3.23,10.14,2.35,5.73,4.79,11.67,2.77,16.24-1.75,3.95-6.11,6.08-6.29,6.16-3.77,1.81-7.78,1.07-12.02.28-4.6-.85-10.69-1.97-15.72,1.67-11.86-4.31-17.95-7.65-35.87-17.51l-2.81-1.54c-23.18-12.74-45.17-27.89-65.36-45.02-3.59-3.04-8.95-2.6-11.99.98-3.03,3.58-2.59,8.95.99,11.98,21.06,17.87,44,33.67,68.18,46.96l2.8,1.54c18.89,10.39,25.45,13.99,39.04,18.86.07.41.15.8.23,1.17.7,3.32.93,4.93.14,6.45-1.69,3.27-7.13,4.82-10.05,5.64-5.58,1.59-10.09.9-14.45.24-4.71-.72-10.38-1.59-15.51,1.55-11.78-3.84-19.47-7.48-38.15-17.62-16.51-8.96-21.8-12.02-30.93-19.11-.28-2.31-.94-4.63-2.16-7.18-3.52-7.31-11.8-16.32-23.54-17.67-7.49-.86-13.73,1.77-18.7,4.87,1.35-7.42,1.9-16.57-2.91-25.04-7.45-13.1-25.87-20.57-39.41-15.98-8.91,3.02-13.42,10.27-16.41,15.06-.07.12-.15.24-.22.37-2.46-4.48-6.19-10.99-14.04-15.3-10.78-5.92-25.51-5.57-35.83.87-7.52,4.69-10.89,11.4-13.1,16.07-3.03-3.7-7.55-8.64-15.63-11.87-3.55-1.42-11.85-4.73-20.93-1.54-3.86,1.35-6.18,3.33-7.72,4.64-1.01.86-1.11.91-1.3.96-.06,0-.12.03-.17.04-1.46.18-4.14-1.43-6.31-2.75-.79-.48-1.57-.94-2.32-1.36-8.78-4.94-18.3-5.03-35.57-5.21-90.76-.93-136.83,6.72-143.52,7.93-29.53.29-47.5.77-61.96,1.16-5.53.15-10.52.28-15.43.39v16.99c5.05-.1,10.19-.24,15.88-.39,14.52-.38,32.59-.87,62.41-1.16.52,0,1.03-.06,1.54-.15.45-.09,46.5-8.75,140.9-7.77,15.97.16,22.63.34,27.43,3.03.6.34,1.22.71,1.85,1.09,2.45,1.48,5.59,3.38,9.31,4.42h0c3.01.86,6.4,1.16,10.1.23,3.05-.77,5.2-2.13,6.76-3.35.54-.41,1.01-.81,1.42-1.16,1.11-.94,1.5-1.25,2.33-1.54,3.07-1.08,6.78.4,8.99,1.29,4.82,1.92,7.16,4.83,9.63,7.9,1.06,1.32,2.33,2.9,3.92,4.3,2.46,2.19,5.69,3.96,10.04,3.66,2.92-.2,5.22-1.23,7.05-2.68,3.23-2.55,5.04-6.39,6.41-9.29,1.76-3.72,3.41-7.23,6.98-9.46,5.09-3.17,13.29-3.34,18.66-.39,3.73,2.05,5.57,5.41,7.52,8.96.97,1.76,2.13,3.89,3.73,5.81,2.28,2.77,5.44,5.12,10.11,5.33,2.56.1,4.75-.48,6.62-1.45,4.24-2.21,6.92-6.47,8.89-9.64,2.59-4.15,4.5-6.94,7.43-7.94,5.9-1.99,15.75,2.26,19.18,8.28,2.97,5.23,1.3,12.51-.17,18.94-.98,4.31-2.12,9.27-.98,13.48.68,2.51,2.16,4.76,4.97,6.43,3.83,2.29,7.48,1.84,10.76.38,2.67-1.18,5.1-3.04,7.17-4.63,3.95-3.01,8.43-6.44,12.7-5.94,4.29.49,8.43,4.57,10.16,8.15.89,1.85.91,2.7.2,9.14-.36,3.36-.87,7.96-1.19,14.14-.75,14.71-1.21,23.58,2.79,31.51,3.65,7.23,9.21,11.94,14.68,15.2,4.18,2.49,8.31,4.14,11.5,5.41,3.38,1.34,6.67,2.31,9.83,2.99,4.67,1.01,9.06,1.39,13.07,1.39,8.43,0,15.14-1.66,18.98-2.61,7.76-1.92,16.56-4.1,22.14-12.28,3.45-5.05,3.8-9.63,3.98-12.74,0-.1.01-.2.01-.29.01-.16.02-.35.03-.53.18.01.38.03.58.06.92.09,2,.26,2.91.4,5.28.81,12.52,1.91,21.66-.68,4.61-1.31,15.43-4.38,20.5-14.2,3.19-6.16,2.56-11.84,1.75-16.02-.05-.24-.09-.47-.14-.7.18.03.36.06.52.09.02,0,.03.01.05.01,5.45,1.01,13.69,2.53,22.45-1.66,2.39-1.15,10.51-5.59,14.5-14.63,4.94-11.2.41-22.25-2.59-29.56-.1-.24-.2-.49-.3-.74,5.97,1.39,14.35,2.83,24.33-.62,11.49-3.96,18.66-10.58,20.2-18.62l.06-.29c1.01-5.73-.18-12.7-3.62-21.11ZM1078.5,3564.42c-1.74,2.55-5.22,3.64-12.19,5.37-4.63,1.14-13.27,3.28-23.58,1.26-1.55-1.01-3.41-1.5-5.27-1.37-.88-.28-1.76-.6-2.66-.96-5.81-2.31-13.76-5.48-17.29-12.47-1.89-3.73-1.65-10.09-.99-22.98.07-1.52.16-2.93.26-4.24,6.48,4.36,13.01,7.97,24.05,13.96,17.63,9.56,26.31,13.86,38.66,18.06-.11,1.51-.29,2.34-.99,3.37ZM1045.69,3574.39c-.7-1.4-1.73-2.53-2.96-3.34-1.55-1.01-3.41-1.5-5.27-1.37-1.07.08-2.14.37-3.17.87l-17.28,8.56-13.83,6.86c-4.44,2.2-9.8,1.9-13.97-.78l-13.65-8.78c-3.86-2.47-8.17-4.04-12.61-4.66-.15-.19-.21-.32-.27-.47-.5-1.21-1.14-4.23-2.12-8.81l-.28-1.33c-1.32-6.2-1.37-13.35,2.71-28.08,1.06-3.81,1.51-6.37,1.88-8.43.59-3.37.94-5.29,5.63-13.09-3.28,1.46-6.93,1.91-10.76-.38-2.81-1.67-4.29-3.92-4.97-6.43-4.72,8.1-5.68,11.51-6.64,16.93-.32,1.79-.68,3.83-1.52,6.86-4.28,15.46-5.14,25.94-2.96,36.17l.29,1.32c.63,2.97,1.13,5.3,1.61,7.22-3.13-.13-6.17-1.3-8.63-3.4l-9.99-8.54c-3.65-3.11-7.9-5.31-12.44-6.48-4.23-6.4-6.71-12.9-8.43-26.06-.78-6.03.85-11.41,4.14-19.24,2.57-6.13,4.5-11.74,6.36-17.17,1.28-3.71,2.51-7.29,3.86-10.73-1.87.97-4.06,1.55-6.62,1.45-4.67-.21-7.83-2.56-10.11-5.33-1.1,2.98-2.14,5.99-3.2,9.09-1.78,5.16-3.61,10.51-5.97,16.11-3.46,8.25-6.72,17.2-5.31,28.01,1.2,9.23,2.85,16.04,5.06,21.71-1.41-.65-2.71-1.55-3.84-2.65l-30.46-29.78c-1.56-1.52-3.28-2.89-5.15-4.05.59-7.04,2.36-16.63,3.98-25.35.56-3.01,1.09-5.92,1.59-8.72-1.83,1.45-4.13,2.48-7.05,2.68-4.35.3-7.58-1.47-10.04-3.66-.39,2.13-.8,4.34-1.22,6.61-1.37,7.39-2.76,14.93-3.62,21.66-2.55-1.33-4.89-2.93-7-4.8-7.69-6.81-10.19-15.19-13.09-24.89l-.25-.87q-.84-2.78-.94-5.08c-.04-.88-.09-1.97-.17-3.42-.07-1.45-.18-3.25-.35-5.51-.34-4.69-4.42-8.21-9.1-7.86-.5.04-.98.11-1.45.23-.06,0-.12.03-.17.04-3.85,1.05-6.54,4.7-6.24,8.82.26,3.46.38,5.77.45,7.4h0c.02.39.03.73.05,1.04.18,4.09.3,4.77,1.63,9.22l.25.85c3.18,10.65,6.79,22.72,18.1,32.75,5.58,4.94,12.13,8.61,19.52,10.92.72.23,1.44.44,2.18.64,1.76.48,3.4,1.27,4.82,2.33.49.36.96.76,1.39,1.18l30.46,29.77c6.12,5.98,14.52,9.2,23.07,8.86l4.48-.18c.17-.01.33-.01.49-.01,1.43-.01,2.84.2,4.18.6,1.86.56,3.6,1.51,5.12,2.8l9.99,8.54c7.94,6.78,18.69,9.14,28.75,6.29l.21-.05c1.27-.36,2.57-.54,3.86-.54,2.69,0,5.36.77,7.66,2.25l13.66,8.78c5.09,3.28,10.98,4.93,16.88,4.93,4.74,0,9.48-1.06,13.83-3.22l27.61-13.69,3.5-1.73c4.21-2.08,5.93-7.18,3.85-11.39ZM1175.87,3467.82l-4.3-1.64c-1-.38-1.98-.76-2.94-1.12-18.47-7.06-30.74-12.1-56.52-29.23-6.12-4.06-12.1-7.95-17.89-11.71-22.14-14.39-41.27-26.82-53.91-40-3.25-3.39-8.63-3.51-12.02-.26-3.38,3.25-3.5,8.63-.25,12.02,14,14.61,33.89,27.53,56.92,42.49,5.75,3.74,11.7,7.6,17.74,11.62,25.95,17.24,39.53,23.13,57.08,29.88,1.86.72,3.76,1.44,5.73,2.19l4.28,1.63c1,.39,2.02.57,3.03.57,3.42,0,6.65-2.08,7.94-5.47,1.68-4.38-.51-9.29-4.89-10.97ZM1139.67,3517.1c-2.96-.99-5.56-1.89-7.92-2.74-11.86-4.31-17.95-7.65-35.87-17.51l-2.81-1.54c-23.18-12.74-45.17-27.89-65.36-45.02-3.59-3.04-8.95-2.6-11.99.98-3.03,3.58-2.59,8.95.99,11.98,21.06,17.87,44,33.67,68.18,46.96l2.8,1.54c18.89,10.39,25.45,13.99,39.04,18.86,2.29.83,4.77,1.68,7.54,2.61.9.3,1.81.44,2.7.44,2.78,0,5.4-1.36,6.98-3.65.14-.19.27-.4.38-.61.29-.48.52-.99.7-1.54,1.49-4.45-.91-9.26-5.36-10.76ZM1092.69,3547.42c-1.99-.61-3.84-1.18-5.6-1.76-11.78-3.84-19.47-7.48-38.15-17.62-16.51-8.96-21.8-12.02-30.93-19.11-.95-.75-1.95-1.53-3-2.37-3.67-2.92-9.02-2.31-11.94,1.36-2.93,3.67-2.32,9.02,1.35,11.94,4.71,3.75,8.53,6.59,12.36,9.17,6.48,4.36,13.01,7.97,24.05,13.96,17.63,9.56,26.31,13.86,38.66,18.06,2.56.87,5.28,1.73,8.27,2.64.82.24,1.65.36,2.47.36,2.41,0,4.69-1.03,6.28-2.78.22-.24.43-.5.62-.76.53-.74.95-1.58,1.23-2.49,1.36-4.5-1.18-9.24-5.67-10.6ZM854.12,3467.91c-4.63-.76-9,2.39-9.76,7.02-.32,1.98-.68,4.05-1.06,6.19-.39,2.13-.8,4.34-1.22,6.61-1.37,7.39-2.76,14.93-3.62,21.66-.67,5.27-1.02,10.06-.77,13.89.13,1.9.87,3.61,2.01,4.95,1.57,1.84,3.9,2.99,6.47,2.99.17,0,.35,0,.53-.02h.03c4.68-.3,8.23-4.35,7.93-9.03-.11-1.64-.04-3.68.16-6,.59-7.04,2.36-16.63,3.98-25.35.56-3.01,1.09-5.92,1.59-8.72.26-1.51.51-2.98.75-4.43.76-4.63-2.39-9-7.02-9.76ZM918.15,3465.54c-4.28-1.92-9.31,0-11.23,4.28-1.19,2.64-2.24,5.26-3.23,7.91-1.1,2.98-2.14,5.99-3.2,9.09-1.78,5.16-3.61,10.51-5.97,16.11-3.46,8.25-6.72,17.2-5.31,28.01,1.2,9.23,2.85,16.04,5.06,21.71,2.27,5.87,5.15,10.52,8.75,15.39.95,1.28,2.19,2.22,3.57,2.78,1.04.44,2.15.66,3.28.66.3,0,.6-.02.9-.06,1.45-.14,2.88-.67,4.14-1.61,3.78-2.79,4.57-8.11,1.78-11.88-.78-1.06-1.51-2.08-2.2-3.12-4.23-6.4-6.71-12.9-8.43-26.06-.78-6.03.85-11.41,4.14-19.24,2.57-6.13,4.5-11.74,6.36-17.17,1.28-3.71,2.51-7.29,3.86-10.73.64-1.64,1.3-3.25,2.01-4.83,1.92-4.29.01-9.32-4.28-11.24ZM972.57,3492.35c-3.96-2.53-9.22-1.37-11.75,2.58-2.52,3.94-4.49,7.13-6.05,9.8-4.72,8.1-5.68,11.51-6.64,16.93-.32,1.79-.68,3.83-1.52,6.86-4.28,15.46-5.14,25.94-2.96,36.17l.29,1.32c.63,2.97,1.13,5.3,1.61,7.22,1.4,5.62,2.67,7.75,6.83,12.2l.31.33c1.62,1.75,3.8,2.64,6.01,2.7h.21c2.07,0,4.16-.75,5.79-2.28,3.44-3.21,3.62-8.59.42-12.02l-.32-.34c-1.13-1.2-1.61-1.74-1.85-2.07-.15-.19-.21-.32-.27-.47-.5-1.21-1.14-4.23-2.12-8.81l-.28-1.33c-1.32-6.2-1.37-13.35,2.71-28.08,1.06-3.81,1.51-6.37,1.88-8.43.59-3.37.94-5.29,5.63-13.09,1.22-2.04,2.74-4.48,4.64-7.45,2.53-3.95,1.38-9.21-2.57-11.74Z"/>
    <path class="cls-5" d="M1613.17,2806.46v716.26c0,31.48-25.52,57-57,57s-57-25.52-57-57v-570.8l-196.67,212.41c-11.41,12.31-27.65,18.97-44.42,18.21-16.77-.76-32.35-8.88-42.58-22.18l-182.15-236.68-183.71,245.61c-9.98,13.35-25.3,21.65-41.94,22.74-16.63,1.08-32.9-5.17-44.53-17.11l-222.34-228.25v576.05c0,31.48-25.52,57-57,57s-57-25.52-57-57v-716.26c0-23.19,14.05-44.07,35.53-52.8,21.49-8.74,46.12-3.58,62.3,13.03l273.64,280.92,188.76-252.37c10.68-14.28,27.43-22.74,45.26-22.86h.39c17.68,0,34.37,8.21,45.17,22.24l186.81,242.74,249.66-269.63c15.93-17.21,40.78-22.9,62.62-14.34,21.83,8.56,36.2,29.62,36.2,53.07Z"/>
  </g>
  <g class="cls-11">
    <path class="cls-5" d="M3665.21,3206.64c-53.39,13.87-119.84,31.13-255.18,35.01-32.1.93-64.54.22-96.44-2.08-3.67-.63-24.77-7.23-40.22-12.07-19-5.94-36.95-11.56-43.6-13.05-13.44-3.01-26.45-7.92-38.67-14.58-10.31-5.62-22.48-6.47-33.38-2.33l-73.42,27.86c-11.19,4.26-19.81,13.2-23.65,24.56-1.27,3.78-2.66,7.56-4.11,11.23l-.5,1.26c-3.59,9.06-5.27,13.16-7.78,15.49-1.6,1.49-3.18,2.48-4.99,3.64-2.63,1.66-5.82,3.69-8.94,7.3l-17.68-1.83c-.41-.04-.82-.05-1.24-.04l-65.47,2.79c-119.26-27.23-177.68-38.42-227.66-43.65v17.03c46.02,4.96,103.92,15.79,224.98,43.45.74.16,1.5.23,2.26.2l66-2.81,10.71,1.11,11.11,1.15c3.24.33,6.23-1.18,7.91-3.69.02-.01.02-.02.02-.03.06-.09.12-.18.18-.27.46-.71.88-1.25,1.15-1.6,1.66-2.15,3.3-3.19,5.77-4.75,2.1-1.34,4.71-2.99,7.46-5.55,5.43-5.05,7.91-11.31,12.02-21.69l.49-1.25c1.56-3.94,3.05-8,4.42-12.05,2.2-6.52,7.15-11.66,13.58-14.1l73.41-27.87c6.26-2.38,13.26-1.88,19.21,1.36,13.61,7.43,28.11,12.89,43.09,16.25,5.96,1.34,25.24,7.37,42.24,12.69,30.94,9.68,40.45,12.53,43.89,12.78,32.52,2.36,65.61,3.08,98.34,2.14,137.26-3.95,204.74-21.47,258.96-35.56,3.77-.98,7.48-1.94,11.14-2.88v-17.54c-5.04,1.27-10.16,2.6-15.41,3.97ZM3045.27,3302.56c.06-.09.12-.18.18-.27.46-.71.88-1.25,1.15-1.6,1.66-2.15,3.3-3.19,5.77-4.75,2.1-1.34,4.71-2.99,7.46-5.55,5.43-5.05,7.91-11.31,12.02-21.69l.49-1.25c1.56-3.94,3.05-8,4.42-12.05,2.2-6.52,7.15-11.66,13.58-14.1l73.41-27.87c6.26-2.38,13.26-1.88,19.21,1.36,13.61,7.43,28.11,12.89,43.09,16.25,5.96,1.34,25.24,7.37,42.24,12.69,30.94,9.68,40.45,12.53,43.89,12.78,32.52,2.36,65.61,3.08,98.34,2.14,137.26-3.95,204.74-21.47,258.96-35.56,3.77-.98,7.48-1.94,11.14-2.88v-17.54c-5.04,1.27-10.16,2.6-15.41,3.97-53.39,13.87-119.84,31.13-255.18,35.01-32.1.93-64.54.22-96.44-2.08-3.67-.63-24.77-7.23-40.22-12.07-19-5.94-36.95-11.56-43.6-13.05-13.44-3.01-26.45-7.92-38.67-14.58-10.31-5.62-22.48-6.47-33.38-2.33l-73.42,27.86c-11.19,4.26-19.81,13.2-23.65,24.56-1.27,3.78-2.66,7.56-4.11,11.23l-.5,1.26c-3.59,9.06-5.27,13.16-7.78,15.49-1.6,1.49-3.18,2.48-4.99,3.64-2.63,1.66-5.82,3.69-8.94,7.3-.4.45-.8.93-1.19,1.44-3.63,4.71-5.95,9.67-6.91,14.81-.35,1.8-.52,3.61-.53,5.45-.06,12.05,7.01,23.78,17.19,28.53,11.46,5.35,22.2.48,33.56-4.68,7.92-3.59,12.42-6.88,34.1-22.68l8.97-6.54c3.78-2.75,5.4-3.91,7.52-5.05,4.44-2.38,9.35-4.03,14.6-4.91,5.69-.95,11.5.29,16.35,3.5l208.59,137.92c4.76,3.15,10.17,5.18,15.82,6.03,5.46.83,11.14.55,16.69-.89.03,0,.05-.01.06-.01.57.13,1.14.26,1.71.38,125.47,28.1,214.09,37.91,279.76,41.75v-17.04c-65.21-3.85-153.23-13.7-277.93-41.72-1.14-.26-2.31-.38-3.49-.38-1.44,0-2.9.19-4.37.57-2.35.61-4.72.87-7.05.8h-.1c-4.22-.15-8.29-1.4-11.73-3.67l-208.58-137.92c-8.45-5.59-18.59-7.75-28.53-6.09-7.08,1.18-13.75,3.44-19.83,6.7-3.23,1.73-5.59,3.45-9.49,6.29l-8.99,6.54c-20.99,15.31-24.77,18.07-31.1,20.94-9.57,4.34-15.18,6.7-19.35,4.76-4.17-1.94-7.41-7.67-7.38-13.04.02-3.39,1.39-6.22,2.55-8.08.02-.01.02-.02.02-.03ZM3400.86,3442.18c-1.47-3.61-3.37-7.48-5.68-11.64-1.54-2.79-4.43-4.37-7.4-4.38h-.1c-4.22-.15-8.29-1.4-11.73-3.67l-208.58-137.92c-8.45-5.59-18.59-7.75-28.53-6.09-7.08,1.18-13.75,3.44-19.83,6.7-3.23,1.73-5.59,3.45-9.49,6.29l-8.99,6.54c-20.99,15.31-24.77,18.07-31.1,20.94-9.57,4.34-15.18,6.7-19.35,4.76-4.17-1.94-7.41-7.67-7.38-13.04.02-3.39,1.39-6.22,2.55-8.08.02-.01.02-.02.02-.03.06-.09.12-.18.18-.27.66-1.06,1.08-2.27,1.22-3.59.49-4.67-2.91-8.84-7.58-9.33l-4.76-.49-17.68-1.83c-.41-.04-.82-.05-1.24-.04l-65.47,2.79c-119.26-27.23-177.68-38.42-227.66-43.65v17.03c46.02,4.96,103.92,15.79,224.98,43.45.74.16,1.5.23,2.26.2l66-2.81,10.71,1.11c-.35,1.8-.52,3.61-.53,5.45-.06,12.05,7.01,23.78,17.19,28.53,11.46,5.35,22.2.48,33.56-4.68,7.92-3.59,12.42-6.88,34.1-22.68l8.97-6.54c3.78-2.75,5.4-3.91,7.52-5.05,4.44-2.38,9.35-4.03,14.6-4.91,5.69-.95,11.5.29,16.35,3.5l208.59,137.92c4.76,3.15,10.17,5.18,15.82,6.03,5.61,11.04,5.63,15.94,5.34,17.59,0,.03-.01.06-.01.09-.17.88-2.69,3.55-9.06,5.75-6.37,2.21-11.61.94-16.67-.28-3.5-.85-7.85-1.9-11.92-.79-18.47-7.06-30.74-12.1-56.52-29.23-6.12-4.06-12.1-7.95-17.89-11.71-22.14-14.39-41.27-26.82-53.91-40-3.25-3.39-8.63-3.51-12.02-.26-3.38,3.25-3.5,8.63-.25,12.02,14,14.61,33.89,27.53,56.92,42.49,5.75,3.74,11.7,7.6,17.74,11.62,25.95,17.24,39.53,23.13,57.08,29.88.51,3.51,1.95,7.01,3.23,10.14,2.35,5.73,4.79,11.67,2.77,16.24-1.75,3.95-6.11,6.08-6.29,6.16-3.77,1.81-7.78,1.07-12.02.28-4.6-.85-10.69-1.97-15.72,1.67-11.86-4.31-17.95-7.65-35.87-17.51l-2.81-1.54c-23.18-12.74-45.17-27.89-65.36-45.02-3.59-3.04-8.95-2.6-11.99.98-3.03,3.58-2.59,8.95.99,11.98,21.06,17.87,44,33.67,68.18,46.96l2.8,1.54c18.89,10.39,25.45,13.99,39.04,18.86.07.41.15.8.23,1.17.7,3.32.93,4.93.14,6.45-1.69,3.27-7.13,4.82-10.05,5.64-5.58,1.59-10.09.9-14.45.24-4.71-.72-10.38-1.59-15.51,1.55-11.78-3.84-19.47-7.48-38.15-17.62-16.51-8.96-21.8-12.02-30.93-19.11-.28-2.31-.94-4.63-2.16-7.18-3.52-7.31-11.8-16.32-23.54-17.67-7.49-.86-13.73,1.77-18.7,4.87,1.35-7.42,1.9-16.57-2.91-25.04-7.45-13.1-25.87-20.57-39.41-15.98-8.91,3.02-13.42,10.27-16.41,15.06-.07.12-.15.24-.22.37-2.46-4.48-6.19-10.99-14.04-15.3-10.78-5.92-25.51-5.57-35.83.87-7.52,4.69-10.89,11.4-13.1,16.07-3.03-3.7-7.55-8.64-15.63-11.87-3.55-1.42-11.85-4.73-20.93-1.54-3.86,1.35-6.18,3.33-7.72,4.64-1.01.86-1.11.91-1.3.96-.06,0-.12.03-.17.04-1.46.18-4.14-1.43-6.31-2.75-.79-.48-1.57-.94-2.32-1.36-8.78-4.94-18.3-5.03-35.57-5.21-90.76-.93-136.83,6.72-143.52,7.93-29.53.29-47.5.77-61.96,1.16-5.53.15-10.52.28-15.43.39v16.99c5.05-.1,10.19-.24,15.88-.39,14.52-.38,32.59-.87,62.41-1.16.52,0,1.03-.06,1.54-.15.45-.09,46.5-8.75,140.9-7.77,15.97.16,22.63.34,27.43,3.03.6.34,1.22.71,1.85,1.09,2.45,1.48,5.59,3.38,9.31,4.42h0c3.01.86,6.4,1.16,10.1.23,3.05-.77,5.2-2.13,6.76-3.35.54-.41,1.01-.81,1.42-1.16,1.11-.94,1.5-1.25,2.33-1.54,3.07-1.08,6.78.4,8.99,1.29,4.82,1.92,7.16,4.83,9.63,7.9,1.06,1.32,2.33,2.9,3.92,4.3,2.46,2.19,5.69,3.96,10.04,3.66,2.92-.2,5.22-1.23,7.05-2.68,3.23-2.55,5.04-6.39,6.41-9.29,1.76-3.72,3.41-7.23,6.98-9.46,5.09-3.17,13.29-3.34,18.66-.39,3.73,2.05,5.57,5.41,7.52,8.96.97,1.76,2.13,3.89,3.73,5.81,2.28,2.77,5.44,5.12,10.11,5.33,2.56.1,4.75-.48,6.62-1.45,4.24-2.21,6.92-6.47,8.89-9.64,2.59-4.15,4.5-6.94,7.43-7.94,5.9-1.99,15.75,2.26,19.18,8.28,2.97,5.23,1.3,12.51-.17,18.94-.98,4.31-2.12,9.27-.98,13.48.68,2.51,2.16,4.76,4.97,6.43,3.83,2.29,7.48,1.84,10.76.38,2.67-1.18,5.1-3.04,7.17-4.63,3.95-3.01,8.43-6.44,12.7-5.94,4.29.49,8.43,4.57,10.16,8.15.89,1.85.91,2.7.2,9.14-.36,3.36-.87,7.96-1.19,14.14-.75,14.71-1.21,23.58,2.79,31.51,3.65,7.23,9.21,11.94,14.68,15.2,4.18,2.49,8.31,4.14,11.5,5.41,3.38,1.34,6.67,2.31,9.83,2.99,4.67,1.01,9.06,1.39,13.07,1.39,8.43,0,15.14-1.66,18.98-2.61,7.76-1.92,16.56-4.1,22.14-12.28,3.45-5.05,3.8-9.63,3.98-12.74,0-.1.01-.2.01-.29.01-.16.02-.35.03-.53.18.01.38.03.58.06.92.09,2,.26,2.91.4,5.28.81,12.52,1.91,21.66-.68,4.61-1.31,15.43-4.38,20.5-14.2,3.19-6.16,2.56-11.84,1.75-16.02-.05-.24-.09-.47-.14-.7.18.03.36.06.52.09.02,0,.03.01.05.01,5.45,1.01,13.69,2.53,22.45-1.66,2.39-1.15,10.51-5.59,14.5-14.63,4.94-11.2.41-22.25-2.59-29.56-.1-.24-.2-.49-.3-.74,5.97,1.39,14.35,2.83,24.33-.62,11.49-3.96,18.66-10.58,20.2-18.62l.06-.29c1.01-5.73-.18-12.7-3.62-21.11ZM3259.95,3564.42c-1.74,2.55-5.22,3.64-12.19,5.37-4.63,1.14-13.27,3.28-23.58,1.26-1.55-1.01-3.41-1.5-5.27-1.37-.88-.28-1.76-.6-2.66-.96-5.81-2.31-13.76-5.48-17.29-12.47-1.89-3.73-1.65-10.09-.99-22.98.07-1.52.16-2.93.26-4.24,6.48,4.36,13.01,7.97,24.05,13.96,17.63,9.56,26.31,13.86,38.66,18.06-.11,1.51-.29,2.34-.99,3.37ZM3227.14,3574.39c-.7-1.4-1.73-2.53-2.96-3.34-1.55-1.01-3.41-1.5-5.27-1.37-1.07.08-2.14.37-3.17.87l-17.28,8.56-13.83,6.86c-4.44,2.2-9.8,1.9-13.97-.78l-13.65-8.78c-3.86-2.47-8.17-4.04-12.61-4.66-.15-.19-.21-.32-.27-.47-.5-1.21-1.14-4.23-2.12-8.81l-.28-1.33c-1.32-6.2-1.37-13.35,2.71-28.08,1.06-3.81,1.51-6.37,1.88-8.43.59-3.37.94-5.29,5.63-13.09-3.28,1.46-6.93,1.91-10.76-.38-2.81-1.67-4.29-3.92-4.97-6.43-4.72,8.1-5.68,11.51-6.64,16.93-.32,1.79-.68,3.83-1.52,6.86-4.28,15.46-5.14,25.94-2.96,36.17l.29,1.32c.63,2.97,1.13,5.3,1.61,7.22-3.13-.13-6.17-1.3-8.63-3.4l-9.99-8.54c-3.65-3.11-7.9-5.31-12.44-6.48-4.23-6.4-6.71-12.9-8.43-26.06-.78-6.03.85-11.41,4.14-19.24,2.57-6.13,4.5-11.74,6.36-17.17,1.28-3.71,2.51-7.29,3.86-10.73-1.87.97-4.06,1.55-6.62,1.45-4.67-.21-7.83-2.56-10.11-5.33-1.1,2.98-2.14,5.99-3.2,9.09-1.78,5.16-3.61,10.51-5.97,16.11-3.46,8.25-6.72,17.2-5.31,28.01,1.2,9.23,2.85,16.04,5.06,21.71-1.41-.65-2.71-1.55-3.84-2.65l-30.46-29.78c-1.56-1.52-3.28-2.89-5.15-4.05.59-7.04,2.36-16.63,3.98-25.35.56-3.01,1.09-5.92,1.59-8.72-1.83,1.45-4.13,2.48-7.05,2.68-4.35.3-7.58-1.47-10.04-3.66-.39,2.13-.8,4.34-1.22,6.61-1.37,7.39-2.76,14.93-3.62,21.66-2.55-1.33-4.89-2.93-7-4.8-7.69-6.81-10.19-15.19-13.09-24.89l-.25-.87q-.84-2.78-.94-5.08c-.04-.88-.09-1.97-.17-3.42-.07-1.45-.18-3.25-.35-5.51-.34-4.69-4.42-8.21-9.1-7.86-.5.04-.98.11-1.45.23-.06,0-.12.03-.17.04-3.85,1.05-6.54,4.7-6.24,8.82.26,3.46.38,5.77.45,7.4h0c.02.39.03.73.05,1.04.18,4.09.3,4.77,1.63,9.22l.25.85c3.18,10.65,6.79,22.72,18.1,32.75,5.58,4.94,12.13,8.61,19.52,10.92.72.23,1.44.44,2.18.64,1.76.48,3.4,1.27,4.82,2.33.49.36.96.76,1.39,1.18l30.46,29.77c6.12,5.98,14.52,9.2,23.07,8.86l4.48-.18c.17-.01.33-.01.49-.01,1.43-.01,2.84.2,4.18.6,1.86.56,3.6,1.51,5.12,2.8l9.99,8.54c7.94,6.78,18.69,9.14,28.75,6.29l.21-.05c1.27-.36,2.57-.54,3.86-.54,2.69,0,5.36.77,7.66,2.25l13.66,8.78c5.09,3.28,10.98,4.93,16.88,4.93,4.74,0,9.48-1.06,13.83-3.22l27.61-13.69,3.5-1.73c4.21-2.08,5.93-7.18,3.85-11.39ZM3357.32,3467.82l-4.3-1.64c-1-.38-1.98-.76-2.94-1.12-18.47-7.06-30.74-12.1-56.52-29.23-6.12-4.06-12.1-7.95-17.89-11.71-22.14-14.39-41.27-26.82-53.91-40-3.25-3.39-8.63-3.51-12.02-.26-3.38,3.25-3.5,8.63-.25,12.02,14,14.61,33.89,27.53,56.92,42.49,5.75,3.74,11.7,7.6,17.74,11.62,25.95,17.24,39.53,23.13,57.08,29.88,1.86.72,3.76,1.44,5.73,2.19l4.28,1.63c1,.39,2.02.57,3.03.57,3.42,0,6.65-2.08,7.94-5.47,1.68-4.38-.51-9.29-4.89-10.97ZM3321.12,3517.1c-2.96-.99-5.56-1.89-7.92-2.74-11.86-4.31-17.95-7.65-35.87-17.51l-2.81-1.54c-23.18-12.74-45.17-27.89-65.36-45.02-3.59-3.04-8.95-2.6-11.99.98-3.03,3.58-2.59,8.95.99,11.98,21.06,17.87,44,33.67,68.18,46.96l2.8,1.54c18.89,10.39,25.45,13.99,39.04,18.86,2.29.83,4.77,1.68,7.54,2.61.9.3,1.81.44,2.7.44,2.78,0,5.4-1.36,6.98-3.65.14-.19.27-.4.38-.61.29-.48.52-.99.7-1.54,1.49-4.45-.91-9.26-5.36-10.76ZM3274.14,3547.42c-1.99-.61-3.84-1.18-5.6-1.76-11.78-3.84-19.47-7.48-38.15-17.62-16.51-8.96-21.8-12.02-30.93-19.11-.95-.75-1.95-1.53-3-2.37-3.67-2.92-9.02-2.31-11.94,1.36-2.93,3.67-2.32,9.02,1.35,11.94,4.71,3.75,8.53,6.59,12.36,9.17,6.48,4.36,13.01,7.97,24.05,13.96,17.63,9.56,26.31,13.86,38.66,18.06,2.56.87,5.28,1.73,8.27,2.64.82.24,1.65.36,2.47.36,2.41,0,4.69-1.03,6.28-2.78.22-.24.43-.5.62-.76.53-.74.95-1.58,1.23-2.49,1.36-4.5-1.18-9.24-5.67-10.6ZM3035.57,3467.91c-4.63-.76-9,2.39-9.76,7.02-.32,1.98-.68,4.05-1.06,6.19-.39,2.13-.8,4.34-1.22,6.61-1.37,7.39-2.76,14.93-3.62,21.66-.67,5.27-1.02,10.06-.77,13.89.13,1.9.87,3.61,2.01,4.95,1.57,1.84,3.9,2.99,6.47,2.99.17,0,.35,0,.53-.02h.03c4.68-.3,8.23-4.35,7.93-9.03-.11-1.64-.04-3.68.16-6,.59-7.04,2.36-16.63,3.98-25.35.56-3.01,1.09-5.92,1.59-8.72.26-1.51.51-2.98.75-4.43.76-4.63-2.39-9-7.02-9.76ZM3099.6,3465.54c-4.28-1.92-9.31,0-11.23,4.28-1.19,2.64-2.24,5.26-3.23,7.91-1.1,2.98-2.14,5.99-3.2,9.09-1.78,5.16-3.61,10.51-5.97,16.11-3.46,8.25-6.72,17.2-5.31,28.01,1.2,9.23,2.85,16.04,5.06,21.71,2.27,5.87,5.15,10.52,8.75,15.39.95,1.28,2.19,2.22,3.57,2.78,1.04.44,2.15.66,3.28.66.3,0,.6-.02.9-.06,1.45-.14,2.88-.67,4.14-1.61,3.78-2.79,4.57-8.11,1.78-11.88-.78-1.06-1.51-2.08-2.2-3.12-4.23-6.4-6.71-12.9-8.43-26.06-.78-6.03.85-11.41,4.14-19.24,2.57-6.13,4.5-11.74,6.36-17.17,1.28-3.71,2.51-7.29,3.86-10.73.64-1.64,1.3-3.25,2.01-4.83,1.92-4.29.01-9.32-4.28-11.24ZM3154.02,3492.35c-3.96-2.53-9.22-1.37-11.75,2.58-2.52,3.94-4.49,7.13-6.05,9.8-4.72,8.1-5.68,11.51-6.64,16.93-.32,1.79-.68,3.83-1.52,6.86-4.28,15.46-5.14,25.94-2.96,36.17l.29,1.32c.63,2.97,1.13,5.3,1.61,7.22,1.4,5.62,2.67,7.75,6.83,12.2l.31.33c1.62,1.75,3.8,2.64,6.01,2.7h.21c2.07,0,4.16-.75,5.79-2.28,3.44-3.21,3.62-8.59.42-12.02l-.32-.34c-1.13-1.2-1.61-1.74-1.85-2.07-.15-.19-.21-.32-.27-.47-.5-1.21-1.14-4.23-2.12-8.81l-.28-1.33c-1.32-6.2-1.37-13.35,2.71-28.08,1.06-3.81,1.51-6.37,1.88-8.43.59-3.37.94-5.29,5.63-13.09,1.22-2.04,2.74-4.48,4.64-7.45,2.53-3.95,1.38-9.21-2.57-11.74Z"/>
    <path class="cls-5" d="M3794.62,2806.46v716.26c0,31.48-25.52,57-57,57s-57-25.52-57-57v-570.8l-196.67,212.41c-11.41,12.31-27.65,18.97-44.42,18.21-16.77-.76-32.35-8.88-42.58-22.18l-182.15-236.68-183.71,245.61c-9.98,13.35-25.3,21.65-41.94,22.74-16.63,1.08-32.9-5.17-44.53-17.11l-222.34-228.25v576.05c0,31.48-25.52,57-57,57s-57-25.52-57-57v-716.26c0-23.19,14.05-44.07,35.53-52.8,21.49-8.74,46.12-3.58,62.3,13.03l273.64,280.92,188.76-252.37c10.68-14.28,27.43-22.74,45.26-22.86h.39c17.68,0,34.37,8.21,45.17,22.24l186.81,242.74,249.66-269.63c15.93-17.21,40.78-22.9,62.62-14.34,21.83,8.56,36.2,29.62,36.2,53.07Z"/>
  </g>
</svg>