<svg version="1.1" id="Layer_1" xmlns="http://www.w3.org/2000/svg" xmlns:xlink="http://www.w3.org/1999/xlink" x="0px" y="0px"
	 width="100%" viewBox="0 0 800 800" enable-background="new 0 0 800 800" xml:space="preserve">
<path opacity="1.000000" stroke="none" 
	d="
M312.010742,675.327881 
	C298.230347,674.431213 284.934113,673.652283 271.660004,672.595520 
	C263.199493,671.921936 254.728928,671.120483 246.341690,669.854187 
	C238.339584,668.646118 230.442886,666.744873 222.493973,665.178284 
	C214.395691,663.582275 206.231476,662.271973 198.203552,660.380676 
	C189.263718,658.274414 180.405884,655.788269 171.585068,653.217896 
	C163.569122,650.882080 155.423904,648.757874 147.739563,645.567627 
	C134.316696,639.994751 120.704155,634.551819 108.125259,627.380615 
	C98.727333,622.022827 90.970932,613.845642 82.234451,607.254089 
	C67.965202,596.488098 61.702621,580.957214 56.669601,564.765198 
	C55.342258,560.494873 55.566998,555.747070 55.034966,551.223755 
	C53.704166,539.909241 52.321800,528.600891 51.010933,517.284119 
	C50.052116,509.006653 49.340870,500.697052 48.211720,492.443817 
	C47.136917,484.587830 45.554699,476.802338 44.404926,468.955170 
	C43.693615,464.100616 43.436008,459.181396 42.864697,454.304108 
	C41.574276,443.287720 40.152580,432.286438 38.911224,421.264709 
	C38.289597,415.745392 38.125374,410.172333 37.436577,404.663300 
	C36.288666,395.482239 34.795708,386.344574 33.623692,377.166199 
	C32.937073,371.789093 32.755390,366.347076 32.054394,360.972351 
	C30.855410,351.779419 29.327036,342.629486 28.124691,333.436981 
	C27.046379,325.192749 26.224857,316.915039 25.282413,308.652954 
	C24.415613,301.054016 22.750603,293.446655 22.843296,285.860199 
	C22.998196,273.182220 18.172771,261.270508 18.320181,248.556656 
	C18.409124,240.885254 15.738595,233.210999 14.673837,225.487579 
	C13.867366,219.637711 13.849409,213.681000 13.094434,207.821609 
	C12.340068,201.966949 10.622607,196.208237 10.208656,190.345261 
	C9.732133,183.596069 9.225491,176.785522 12.189691,170.172180 
	C18.368887,156.385971 29.324408,149.076309 44.640938,149.804367 
	C51.213551,150.116806 57.326431,152.545151 62.039036,157.427261 
	C66.272293,161.812775 70.130783,166.561646 74.389938,170.920242 
	C83.354424,180.094040 92.636314,188.961487 101.487503,198.241241 
	C112.664146,209.959000 123.583702,221.923492 134.533432,233.855637 
	C142.456787,242.489899 150.074692,251.410782 158.161270,259.886627 
	C163.428879,265.407806 169.513901,270.145416 174.831940,275.623138 
	C181.067566,282.046021 186.805313,288.949219 192.878082,295.534271 
	C197.639099,300.696899 202.477112,305.800354 207.525940,310.676392 
	C208.610291,311.723663 210.747879,311.680359 211.900742,312.000671 
	C217.869598,302.373474 223.496048,293.354950 229.064301,284.300598 
	C233.966934,276.328522 238.733780,268.272308 243.687851,260.332672 
	C250.574478,249.295807 257.629181,238.363785 264.508636,227.322510 
	C267.031738,223.273026 268.432983,218.101120 271.821320,215.115646 
	C276.632416,210.876617 277.679138,204.709305 281.709534,200.063293 
	C286.323975,194.744019 288.980316,187.748917 292.638306,181.571243 
	C297.178406,173.903931 301.922882,166.357880 306.488708,158.705536 
	C312.421539,148.762100 318.627136,139.052933 327.039307,130.926849 
	C332.799164,125.362915 342.659760,123.403404 350.420441,126.411522 
	C354.312897,127.920288 359.241882,128.114014 362.078033,130.690338 
	C367.126678,135.276550 371.376465,140.934784 375.155731,146.674469 
	C379.382446,153.093674 381.621460,161.111176 386.699188,166.610840 
	C393.831451,174.335770 397.138031,184.170349 403.470337,192.248230 
	C408.322906,198.438416 411.776703,205.715164 415.962433,212.440277 
	C422.824249,223.465134 429.863953,234.380096 436.653564,245.448792 
	C440.399872,251.556259 443.612885,257.991852 447.383972,264.082886 
	C452.266998,271.969910 457.533112,279.618713 462.511475,287.448212 
	C467.294312,294.970184 471.977600,302.557220 476.591644,310.183960 
	C478.977264,314.127167 479.395813,313.963623 482.228210,310.374603 
	C485.413605,306.338287 489.235474,302.801666 492.807526,299.073608 
	C503.512543,287.901093 514.256897,276.766113 524.935242,265.568207 
	C532.962891,257.149963 540.946167,248.688828 548.882507,240.184540 
	C552.822815,235.962234 556.578003,231.567657 560.479736,227.308533 
	C566.062988,221.213837 571.659851,215.130478 577.330139,209.117020 
	C585.827271,200.105637 594.315796,191.083786 602.951782,182.206284 
	C611.608887,173.306976 620.268188,164.396072 629.260437,155.841263 
	C635.185547,150.204422 648.865967,148.348831 657.039185,150.913315 
	C666.062500,153.744507 671.264099,160.166946 675.654968,167.248734 
	C679.553467,173.536591 680.506958,181.031815 678.865845,188.593185 
	C677.971558,192.713486 677.342041,196.897125 676.735840,201.072906 
	C675.381104,210.404114 674.090698,219.744919 672.837830,229.090378 
	C672.618103,230.729782 672.831360,232.425339 672.636414,234.070282 
	C671.333496,245.063812 669.951416,256.047974 668.643860,267.040985 
	C668.104736,271.574188 667.746033,276.128906 667.201416,280.661377 
	C665.900330,291.489319 664.523438,302.308105 663.206665,313.134216 
	C662.713745,317.186676 662.269104,321.245728 661.860901,325.307648 
	C660.488770,338.962158 659.410950,352.652924 657.704041,366.265015 
	C656.291748,377.527710 654.015320,388.679352 652.375854,399.917236 
	C651.247375,407.652374 650.598755,415.456451 649.653748,423.219757 
	C648.355347,433.886627 646.914429,444.536469 645.657043,455.208038 
	C644.645325,463.795227 643.995605,472.427887 642.852295,480.995941 
	C641.802246,488.865082 639.993164,496.640015 639.118896,504.523071 
	C638.536621,509.773621 639.008423,515.141052 639.008423,521.252075 
	C640.892090,521.252075 642.806946,521.252380 644.721802,521.252014 
	C691.718323,521.243958 738.714783,521.236206 785.711304,521.227173 
	C791.608704,521.226013 792.250610,522.002014 790.360596,527.455139 
	C784.427490,544.573181 778.527100,561.703857 772.380920,578.745605 
	C771.000916,582.571960 768.555298,584.981812 763.489502,584.953735 
	C719.327454,584.708801 675.163452,584.823181 631.000061,584.777222 
	C627.576233,584.773682 625.247009,585.235107 622.968933,588.726685 
	C618.275024,595.920959 613.113892,603.091553 606.884888,608.926758 
	C600.183777,615.204224 592.345581,620.447937 584.445984,625.219604 
	C574.878723,630.998840 564.898987,636.178711 554.767090,640.909790 
	C548.121948,644.012756 540.898621,645.883484 533.920288,648.265137 
	C527.966919,650.296936 522.086304,652.631042 516.009033,654.190918 
	C505.090607,656.993469 494.053406,659.335693 483.057251,661.832520 
	C473.618134,663.975708 464.182922,666.141235 454.713501,668.143250 
	C450.898041,668.949951 447.013306,669.537537 443.129700,669.888489 
	C436.598328,670.478699 430.037323,670.733032 423.498383,671.249756 
	C412.568939,672.113403 401.647217,673.074768 390.721832,673.990234 
	C385.331818,674.441833 379.948486,675.052795 374.548828,675.294678 
	C360.712433,675.914368 346.871613,676.614075 333.026428,676.783142 
	C326.192657,676.866638 319.345428,675.847900 312.010742,675.327881 
M293.658783,298.281830 
	C292.924957,299.746796 292.315796,301.291473 291.438019,302.664337 
	C283.061066,315.766144 274.513947,328.761047 266.288086,341.956482 
	C262.789032,347.569427 260.225861,353.766449 256.717438,359.372650 
	C251.921921,367.035522 246.178391,374.128357 241.685440,381.950500 
	C237.625610,389.018585 230.900024,393.292480 224.281082,395.118988 
	C212.083923,398.484772 200.493744,394.793488 191.420395,385.334351 
	C185.467026,379.127838 179.684448,372.756561 173.865784,366.421967 
	C164.366745,356.080627 154.978424,345.636322 145.389267,335.379517 
	C140.270676,329.904572 134.741028,324.815796 129.558914,319.397766 
	C124.538315,314.148590 119.783028,308.646667 114.808144,303.352631 
	C106.418449,294.424683 97.987221,285.534515 89.452888,276.745575 
	C88.532204,275.797424 86.814705,275.623016 84.333183,274.641144 
	C85.547066,280.825989 86.806580,285.709564 87.420517,290.673004 
	C88.962715,303.141052 90.130493,315.654907 91.605949,328.131775 
	C92.847458,338.630280 94.437172,349.088043 95.643410,359.590179 
	C97.100693,372.278137 98.295494,384.996094 99.643921,397.696808 
	C100.505699,405.813873 101.331886,413.937256 102.384331,422.030487 
	C102.967026,426.511383 104.070808,430.921906 104.782372,435.389221 
	C105.828812,441.959015 108.155937,448.741089 107.308907,455.081604 
	C106.424988,461.698334 109.238220,467.351624 109.248589,473.560394 
	C109.253357,476.415314 111.563614,477.485199 114.281898,476.059692 
	C120.274582,472.917053 125.995461,469.137573 132.224670,466.589539 
	C144.630371,461.515045 157.179260,456.714752 169.912567,452.544952 
	C177.841431,449.948456 186.208588,448.678345 194.395645,446.888855 
	C197.242157,446.266693 200.164108,445.987335 203.007385,445.353088 
	C212.445953,443.247772 221.819733,440.821594 231.308456,438.983673 
	C236.431290,437.991425 241.777451,438.205780 246.951218,437.410034 
	C254.149185,436.302948 261.232910,434.370758 268.450836,433.495300 
	C278.685211,432.253967 288.986572,431.485870 299.279144,430.825287 
	C309.981689,430.138397 320.709290,429.407288 331.423431,429.443085 
	C345.389099,429.489716 359.354889,430.207245 373.315491,430.764587 
	C380.702576,431.059509 388.086823,431.523254 395.457977,432.095795 
	C405.895203,432.906403 416.322327,433.852966 426.747772,434.807190 
	C435.830017,435.638428 444.937103,436.313965 453.969849,437.529297 
	C460.030823,438.344788 465.986603,439.957611 471.979614,441.258850 
	C478.592468,442.694672 485.209717,444.115784 491.796844,445.663452 
	C500.424927,447.690704 509.139771,449.458801 517.607483,452.029449 
	C527.282654,454.966644 536.844543,458.369141 546.237793,462.115601 
	C554.896484,465.569122 563.236389,469.815277 571.784790,473.556671 
	C573.935425,474.497925 576.346741,474.843475 579.193604,475.612885 
	C580.651428,467.130951 582.281494,459.199219 583.328735,451.191315 
	C584.915222,439.060638 586.032532,426.869385 587.468384,414.717957 
	C588.725586,404.078400 590.255188,393.470581 591.468506,382.826385 
	C592.968384,369.668549 594.261292,356.487152 595.653137,343.316925 
	C596.099731,339.090912 596.463745,334.852020 597.063049,330.647186 
	C598.303223,321.946686 599.747375,313.275085 600.971436,304.572449 
	C601.971008,297.465851 602.856567,290.340363 603.618042,283.204590 
	C603.893616,280.622589 603.662292,277.986481 603.662292,275.105011 
	C602.033508,275.491669 601.608459,275.460297 601.418762,275.656525 
	C589.422485,288.063599 577.451477,300.495056 565.462646,312.909332 
	C562.064453,316.428162 558.518311,319.809021 555.213318,323.412079 
	C541.962158,337.858368 528.864197,352.446075 515.531616,366.816376 
	C509.653412,373.152161 502.828461,378.665894 497.371979,385.322296 
	C490.657593,393.513153 481.478577,396.605988 472.149902,396.389709 
	C461.115356,396.133942 451.982635,389.970001 445.965027,380.254639 
	C436.291412,364.636749 426.682068,348.978455 417.146820,333.275757 
	C411.592224,324.128418 406.391724,314.763580 400.736176,305.680786 
	C396.612091,299.057465 391.807709,292.858795 387.655853,286.251373 
	C379.916199,273.934174 372.440521,261.451233 364.832642,249.050980 
	C362.973480,246.020706 360.980865,243.072083 359.131226,240.036194 
	C354.564972,232.541336 350.046051,225.017609 344.965302,216.606964 
	C342.698395,219.107910 340.576599,220.823624 339.247772,223.019257 
	C332.262177,234.561768 325.565063,246.278641 318.599121,257.833344 
	C310.546356,271.190796 302.318115,284.442444 293.658783,298.281830 
M178.512573,515.848450 
	C169.926559,519.425476 161.405136,523.168701 152.738449,526.538208 
	C141.525711,530.897705 132.106628,538.114929 122.532471,545.070801 
	C118.928452,547.689209 118.352394,555.556946 121.430527,558.552063 
	C125.797295,562.801086 129.991409,567.520752 135.109573,570.647400 
	C148.534149,578.848328 163.158295,584.664429 177.897919,590.094788 
	C182.126129,591.652588 186.422195,593.127502 190.801025,594.155151 
	C201.655685,596.702698 212.557510,599.059631 223.475311,601.324829 
	C234.351364,603.581299 245.219360,605.959961 256.188202,607.655640 
	C263.146729,608.731262 270.285858,608.616943 277.338806,609.110596 
	C282.890259,609.499207 288.442871,609.911865 293.978607,610.474792 
	C302.091187,611.299744 310.174988,612.858093 318.296295,613.053467 
	C335.114868,613.457886 351.950104,613.171692 368.778473,613.163940 
	C370.108246,613.163330 371.446777,613.209290 372.766388,613.080872 
	C381.701904,612.211243 390.627350,611.233032 399.568359,610.426147 
	C405.781616,609.865417 412.051331,609.810059 418.230896,609.020752 
	C430.626526,607.437500 443.001740,605.655151 455.338287,603.663208 
	C462.850403,602.450195 470.333679,600.933350 477.723358,599.119019 
	C487.068695,596.824463 496.322510,594.148010 505.583679,591.522949 
	C512.075195,589.682983 518.701965,588.115479 524.919312,585.572876 
	C530.616089,583.243225 535.729980,579.529724 541.306213,576.854187 
	C550.529358,572.428772 559.106750,567.261475 566.129639,559.620972 
	C569.569885,555.878235 571.395447,552.177795 567.554749,548.105835 
	C563.922180,544.254578 560.106812,540.218872 555.588928,537.631470 
	C545.250671,531.710510 534.693298,526.012268 523.737061,521.376587 
	C513.408752,517.006592 502.553955,513.770630 491.748505,510.671326 
	C482.139221,507.915039 472.314606,505.864319 462.518555,503.820953 
	C456.492767,502.564087 450.334351,501.953278 444.249847,500.964172 
	C439.133789,500.132538 434.062073,498.992859 428.927368,498.321259 
	C423.730560,497.641571 418.469666,497.467926 413.255890,496.898315 
	C401.588043,495.623688 389.942841,493.236938 378.268982,493.111725 
	C354.229401,492.853851 330.170074,493.556213 306.132782,494.308136 
	C292.703583,494.728241 279.292755,495.923676 265.894470,497.023834 
	C262.064545,497.338287 258.323242,498.628235 254.513458,499.316742 
	C248.588455,500.387451 242.648117,501.380829 236.698639,502.306641 
	C229.948807,503.356934 223.045242,503.751190 216.451523,505.401581 
	C203.986908,508.521393 191.696060,512.335449 178.512573,515.848450 
z"/>
</svg>