<svg version="1.1" id="Layer_1" xmlns="http://www.w3.org/2000/svg" xmlns:xlink="http://www.w3.org/1999/xlink" x="0px" y="0px"
	 width="100%" viewBox="0 0 800 800" enable-background="new 0 0 800 800" xml:space="preserve">
<path opacity="1.000000" stroke="none" 
	d="
M16.999949,552.000000 
	C16.999937,422.181580 16.968283,292.863129 17.063763,163.544769 
	C17.070915,153.857590 21.303751,145.574905 27.330858,138.077209 
	C32.285286,131.913910 38.767807,128.471756 46.163406,126.397522 
	C51.197193,124.985710 55.498348,120.606613 61.202026,122.058006 
	C69.828117,124.253067 78.535965,126.173531 85.115280,133.174744 
	C89.608147,137.955704 95.037186,141.842972 99.742294,146.442215 
	C104.596870,151.187576 109.073250,156.319153 113.734344,161.263611 
	C114.904037,162.504410 116.183632,163.641739 117.350555,164.884979 
	C121.682579,169.500290 125.869728,174.258713 130.339432,178.735596 
	C134.443924,182.846680 139.020782,186.490585 143.070541,190.650833 
	C149.517670,197.273849 155.565079,204.287033 162.038467,210.883057 
	C166.868149,215.804276 172.237762,220.193451 177.108200,225.077576 
	C180.065903,228.043579 182.318115,231.710083 185.256287,234.699158 
	C195.908279,245.535614 206.717972,256.216980 217.464676,266.960388 
	C224.725983,274.219513 232.043365,281.423981 239.218704,288.767181 
	C244.440796,294.111450 249.381516,299.731415 254.627304,305.051392 
	C257.134613,307.594147 260.059113,309.725616 263.510468,312.649841 
	C266.441437,308.186798 269.192871,303.906921 272.037537,299.689941 
	C275.107178,295.139465 278.432129,290.753143 281.343353,286.105804 
	C285.691956,279.164001 289.623718,271.959686 294.015900,265.046906 
	C298.316254,258.278595 303.021973,251.769211 307.450867,245.080673 
	C310.058228,241.142975 312.501923,237.095459 314.968170,233.066071 
	C319.668030,225.387482 323.938690,217.410278 329.107117,210.063263 
	C335.895599,200.413315 341.959076,190.351959 348.013550,180.254990 
	C351.460541,174.506485 355.418427,169.066849 359.009705,163.401566 
	C362.434967,157.998077 365.606079,152.433548 369.025482,147.026199 
	C375.605957,136.620071 384.953430,129.345505 395.923553,124.139351 
	C398.605469,122.866585 401.794525,122.153297 404.768341,122.094864 
	C416.415894,121.865952 426.599915,126.334526 435.116028,133.829895 
	C442.435303,140.271881 448.290497,148.109589 452.165771,157.284653 
	C453.093109,159.480286 455.200928,161.149475 456.575409,163.189102 
	C461.418243,170.375443 466.091064,177.677429 470.995209,184.821014 
	C475.554016,191.461548 480.411835,197.896729 484.974335,204.534821 
	C488.078003,209.050400 490.837677,213.800995 493.871124,218.366806 
	C495.588989,220.952393 497.619232,223.328430 499.387695,225.882690 
	C506.904968,236.739868 514.326538,247.663544 521.882202,258.493774 
	C527.514038,266.566284 533.358643,274.490356 538.994568,282.559998 
	C543.412964,288.886230 547.753296,295.272034 551.935730,301.755615 
	C553.880066,304.769775 555.038513,304.791199 557.592041,302.077454 
	C562.677856,296.672516 568.537109,292.000305 573.692871,286.654999 
	C582.307861,277.723236 590.580505,268.462402 599.075073,259.412994 
	C605.792297,252.257034 612.832947,245.393784 619.338257,238.053345 
	C623.959656,232.838623 627.897522,227.021255 632.217773,221.533737 
	C632.998718,220.541855 634.104614,219.774567 635.152466,219.033630 
	C636.045898,218.401840 637.291931,218.162369 638.004639,217.397675 
	C645.119568,209.763641 652.001343,201.906067 659.271179,194.424774 
	C663.895508,189.665985 669.125305,185.500687 673.946106,180.924484 
	C675.252991,179.683914 675.867737,177.732056 677.127319,176.421112 
	C687.757935,165.357437 698.917664,154.759476 708.950256,143.182587 
	C713.708618,137.691696 718.703613,132.831329 724.678589,128.948074 
	C727.686584,126.993088 731.045898,125.358849 734.471130,124.322983 
	C738.445190,123.121170 742.841980,121.595001 746.748108,122.198364 
	C761.291260,124.444740 774.161621,129.756088 781.991089,143.617004 
	C786.737610,152.019882 788.134888,160.703018 788.124146,170.249222 
	C787.951355,324.064606 788.014221,477.880280 787.918457,631.695801 
	C787.916443,634.950317 787.158630,638.408386 785.902832,641.416382 
	C783.130676,648.056335 780.475830,655.104126 774.665466,659.645630 
	C769.511658,663.674133 763.853638,667.801086 757.740723,669.677795 
	C749.390991,672.241028 740.194519,671.155396 731.958801,668.714600 
	C724.071167,666.377014 716.719482,661.808594 712.505432,653.964661 
	C709.899231,649.113403 707.410339,644.189270 705.125244,639.180847 
	C704.346497,637.473938 704.041504,635.410095 704.040771,633.509155 
	C703.994141,515.856079 704.004272,398.203033 703.983582,280.549957 
	C703.983154,278.388916 703.674927,276.227936 703.510315,274.066925 
	C702.957520,273.868317 702.404785,273.669678 701.852051,273.471069 
	C699.936951,275.434570 698.039856,277.416016 696.103455,279.358185 
	C690.869263,284.607971 685.556213,289.780762 680.388855,295.095215 
	C673.000366,302.694000 665.629211,310.313232 658.409973,318.071960 
	C652.665955,324.245239 647.405518,330.884003 641.469055,336.857727 
	C636.984924,341.369995 631.257812,344.674774 628.515076,350.802429 
	C623.067078,350.406830 623.764526,358.389648 618.454285,358.181824 
	C616.428223,367.200653 606.817688,370.077820 602.744080,377.510040 
	C601.804993,379.223389 599.372559,380.046387 597.964233,381.586975 
	C592.631775,387.420227 587.866516,393.843628 582.091614,399.183960 
	C573.451904,407.173462 564.396240,414.098816 551.304565,414.272736 
	C539.727295,414.426544 529.855164,411.449371 521.467712,403.941681 
	C517.142395,400.070068 513.480408,395.609192 510.708282,390.079681 
	C507.195740,383.073364 501.711487,377.056152 497.085144,370.606934 
	C496.334076,369.559937 495.410217,368.571991 494.931000,367.406738 
	C493.322296,363.495239 491.106964,360.440094 487.599243,357.649597 
	C484.279053,355.008331 482.593842,350.320923 480.163239,346.550354 
	C475.987518,340.072571 471.971497,333.481781 467.551971,327.174164 
	C463.337067,321.158569 458.685944,315.449036 454.245300,309.590790 
	C453.663940,308.823883 453.007507,308.037140 452.701050,307.150604 
	C449.848694,298.899567 443.237091,293.091217 438.861969,285.811462 
	C433.974243,277.678864 428.207611,270.079895 423.050415,262.101990 
	C419.678558,256.885925 416.701996,251.413834 413.563843,246.047394 
	C411.348694,242.259308 407.825745,242.248291 405.447296,246.040894 
	C400.394165,254.098373 395.339111,262.154633 390.290802,270.215149 
	C384.839783,278.918549 379.447693,287.659393 373.934509,296.323212 
	C367.800110,305.963287 361.475464,315.482880 355.392120,325.154602 
	C351.349182,331.582306 347.769714,338.304932 343.644318,344.676361 
	C339.232697,351.489929 334.231110,357.922211 329.838257,364.747009 
	C324.685852,372.751923 320.629303,381.570526 314.751556,388.966675 
	C309.871063,395.107941 307.162018,402.647430 301.905151,408.140045 
	C298.206329,412.004761 293.637299,416.470001 288.886108,418.163910 
	C276.133881,422.710297 262.464661,423.919128 250.247803,416.743835 
	C244.001404,413.075195 237.863541,408.400909 233.749741,401.660583 
	C231.694229,398.292725 227.720718,396.135834 224.823456,393.223541 
	C223.466003,391.859131 222.602890,390.002930 221.231064,388.730927 
	C219.258286,387.091858 217.178162,385.564362 215.334946,383.790680 
	C211.414566,380.018250 207.676773,376.055969 203.754440,372.285675 
	C198.948120,367.665619 193.929367,363.262817 189.210861,358.557129 
	C187.418762,356.769897 186.468369,354.138916 184.676987,352.350708 
	C180.299179,347.980713 175.378265,344.133423 171.189529,339.601044 
	C166.302261,334.312866 162.227570,328.270477 157.307999,323.016266 
	C152.321640,317.690735 146.620209,313.041595 141.463242,307.865784 
	C139.218857,305.613190 137.566422,302.774078 135.612991,300.226044 
	C135.109314,299.569061 134.589294,298.662903 133.898651,298.450531 
	C124.791267,295.649811 121.541283,286.394196 114.687592,281.105164 
	C110.168427,277.617737 105.970749,273.713684 101.438988,269.833374 
	C101.321663,271.287842 101.020943,273.278351 101.020561,275.268951 
	C100.998177,393.255341 100.994911,511.241760 101.018425,629.228149 
	C101.019516,634.719666 99.209709,639.310608 96.927834,644.389465 
	C94.777748,649.174988 92.640190,653.661987 89.146133,657.354065 
	C82.225067,664.667297 73.924507,669.723022 63.540306,669.923645 
	C57.802197,670.034485 51.477734,670.724365 46.451530,668.649109 
	C40.628887,666.245056 33.424381,664.986023 29.927902,658.337585 
	C29.390944,657.316589 27.620386,656.947266 27.075829,655.926758 
	C24.263424,650.656372 21.950972,645.102356 18.914156,639.972961 
	C15.560578,634.308594 17.146957,628.309998 17.091654,622.493896 
	C16.869816,599.164368 16.999949,575.831604 16.999949,552.000000 
z"/>
<path opacity="1.000000" stroke="none" 
	d="
M422.778259,681.001343 
	C418.471008,681.001282 414.638397,680.965271 410.806671,681.008179 
	C400.819183,681.119934 391.729462,677.607239 384.015442,671.969238 
	C380.466705,669.375671 377.631866,664.920715 375.565094,659.934448 
	C371.388519,649.857910 372.391602,639.746277 371.959625,629.540955 
	C371.812927,626.075012 372.953094,624.859741 376.510681,624.942078 
	C385.813904,625.157410 395.125397,625.014709 404.719025,625.014709 
	C404.719025,622.706238 404.719025,620.638550 404.719025,618.158020 
	C394.041321,618.158020 383.290100,618.158020 371.997467,618.158020 
	C371.997467,615.499023 371.881622,613.226440 372.025452,610.970398 
	C372.225647,607.830322 374.214935,606.932678 377.126099,606.997925 
	C382.113922,607.109741 387.107910,606.938782 392.096130,607.041992 
	C394.196869,607.085449 396.289062,607.726990 398.385773,607.730286 
	C400.857727,607.734253 403.731903,609.561035 405.172821,605.194641 
	C406.585297,600.914368 405.535858,599.900024 401.425171,599.958069 
	C391.790985,600.094116 382.153564,600.001587 372.695038,600.001587 
	C372.360168,599.444702 372.069519,599.184570 372.061890,598.916382 
	C371.808807,589.997192 371.812775,589.997192 380.760864,589.997314 
	C388.717072,589.997437 396.673309,589.997314 404.809998,589.997314 
	C404.809998,587.646423 404.809998,585.693970 404.809998,583.003296 
	C397.870209,583.003296 390.793579,583.003357 383.716949,583.003357 
	C383.050476,583.003357 382.383636,583.018372 381.717621,583.001038 
	C371.095673,582.724854 371.830383,585.298218 372.123169,572.261108 
	C382.838898,572.261108 393.582672,572.261108 404.666321,572.261108 
	C404.666321,569.114258 404.666321,566.380188 404.666321,563.234619 
	C394.126099,563.234619 383.377075,563.234619 372.314026,563.234619 
	C372.314026,559.785522 372.314026,556.711243 372.314026,553.228455 
	C382.863129,553.228455 393.608673,553.228455 404.677612,553.228455 
	C404.677612,550.770569 404.677612,548.703857 404.677612,546.005127 
	C396.941162,546.005127 389.004486,546.005188 381.067841,546.005127 
	C371.683014,546.005005 371.683014,546.004944 372.194214,536.167603 
	C382.905975,536.167603 393.652924,536.167603 404.700989,536.167603 
	C404.700989,533.371216 404.700989,530.967346 404.700989,528.001587 
	C395.549042,528.001587 386.274353,527.812683 377.013550,528.089294 
	C372.995300,528.209351 371.559326,526.904602 371.952301,522.962280 
	C372.215424,520.322937 371.978485,517.635498 372.000336,514.969971 
	C372.058136,507.915009 376.793549,502.075439 383.600250,501.141663 
	C386.616882,500.727844 387.914917,502.635773 388.042664,505.659668 
	C388.177124,508.842438 386.673096,513.973877 391.723297,513.657593 
	C396.059845,513.385986 393.449310,508.530273 393.914429,505.757599 
	C394.315887,503.364349 393.997772,500.850372 393.997772,498.196838 
	C396.816589,498.196838 399.219818,498.196838 402.009613,498.196838 
	C402.009613,502.361206 402.110992,506.322937 401.975342,510.276550 
	C401.878754,513.092346 403.017303,514.063477 405.805237,514.066650 
	C408.667114,514.069824 410.193115,513.356567 410.041199,510.149780 
	C409.860565,506.337128 409.998627,502.509399 409.998627,498.333435 
	C412.540466,498.333435 414.946960,498.333435 418.009430,498.333435 
	C418.009430,502.044342 418.183807,505.979767 417.957001,509.891907 
	C417.757690,513.330261 419.300964,514.217163 422.413147,514.047180 
	C425.445587,513.881470 426.652527,513.022644 426.125092,509.596558 
	C425.575928,506.029388 426.002594,502.312012 426.002594,498.319427 
	C428.889923,498.319427 431.625610,498.319427 434.795898,498.319427 
	C434.795898,503.261810 434.795898,508.343811 434.795898,513.714661 
	C436.591980,513.714661 437.987244,513.714661 439.795593,513.714661 
	C440.732758,509.758301 441.711670,505.625671 442.744995,501.263367 
	C450.141022,498.674438 458.633942,507.524902 458.059021,515.019043 
	C457.768707,518.803711 458.008362,522.629089 458.008362,527.002930 
	C451.356628,527.002930 444.917328,526.880554 438.485413,527.045288 
	C434.075806,527.158203 429.576843,527.240417 425.323517,528.225037 
	C423.713196,528.597717 422.680054,531.463806 421.383789,533.193298 
	C422.819824,534.127136 424.239014,535.838684 425.694702,535.870300 
	C436.315948,536.101318 446.944550,535.994751 457.788086,535.994751 
	C457.788086,539.391357 457.788086,542.468201 457.788086,546.004944 
	C447.767029,546.004944 437.824097,546.004883 427.881165,546.005066 
	C426.714844,546.005066 425.270264,545.573730 424.445190,546.104675 
	C423.091278,546.975952 422.139526,548.472107 421.018188,549.704773 
	C422.301331,550.802124 423.562622,552.820618 424.871063,552.851685 
	C435.685547,553.108276 446.508789,552.996826 457.668762,552.996826 
	C457.668762,556.182617 457.668762,559.258850 457.668762,563.002014 
	C448.001190,563.002014 438.076294,562.869629 428.160492,563.111206 
	C426.123718,563.160828 423.843567,564.259766 422.215332,565.554016 
	C421.353088,566.239380 421.091583,568.623230 421.592743,569.800049 
	C422.039917,570.850220 423.899719,571.894043 425.151703,571.912964 
	C435.944580,572.076477 446.741028,572.006958 457.364105,572.006958 
	C457.675537,572.616516 457.937653,572.891357 457.939972,573.168274 
	C458.037537,585.078308 459.015839,582.830322 448.299011,582.982178 
	C440.636139,583.090820 432.970306,583.029907 425.306122,582.987549 
	C422.976349,582.974670 421.014801,583.010254 420.937286,586.228760 
	C420.859009,589.477539 422.469055,590.049805 425.267242,590.022339 
	C436.051910,589.916565 446.838226,589.979492 457.814392,589.979492 
	C457.814392,593.352051 457.814392,596.305969 457.814392,600.000610 
	C451.388824,600.000610 444.807770,600.000427 438.226715,600.000732 
	C434.061279,600.000916 429.859924,599.687012 425.747864,600.155823 
	C424.078308,600.346130 422.603058,602.240784 421.039429,603.359985 
	C422.669556,604.572571 424.258453,606.762390 425.936768,606.833130 
	C434.419189,607.191162 442.924835,606.997375 451.422363,606.998108 
	C458.018311,606.998657 458.017975,606.999329 458.008881,613.441284 
	C458.007019,614.763062 458.008606,616.084839 458.008606,618.004822 
	C447.621307,618.004822 437.358704,617.923584 427.099396,618.070618 
	C424.941620,618.101562 421.208008,616.591370 421.206573,620.388123 
	C421.205322,623.750183 423.819458,625.217163 427.635559,625.100342 
	C437.589874,624.795654 447.559723,624.997803 457.470032,624.997803 
	C460.001221,640.516296 454.273254,660.580505 443.568237,659.856873 
	C440.903229,651.766541 446.496765,642.349731 439.058655,634.106140 
	C437.812988,635.997437 436.272278,637.301636 436.118134,638.753174 
	C435.510132,644.477844 435.169647,650.245056 435.045868,656.003296 
	C434.890137,663.245605 435.023651,663.248474 427.416595,662.794617 
	C426.938538,655.942322 426.495392,649.070618 425.958740,642.206177 
	C425.790619,640.055603 427.277100,636.437134 423.548706,636.639404 
	C420.493256,636.805298 417.918457,639.048950 417.986237,642.939148 
	C418.076141,648.102783 417.920929,653.271057 418.041138,658.433411 
	C418.108612,661.332092 417.681335,663.056213 414.039917,663.115967 
	C410.360931,663.176270 409.112854,661.792419 408.961700,658.364624 
	C408.671661,651.787659 408.162659,645.220459 407.743164,638.627563 
	C401.008759,636.173096 401.007355,636.173096 401.003021,643.169495 
	C401.000519,647.168152 401.006195,651.166870 401.003387,655.165527 
	C400.997711,663.191711 400.665009,663.479431 391.991455,662.619873 
	C391.991455,657.033936 392.031036,651.401489 391.966553,645.770203 
	C391.948029,644.149353 391.934021,642.415344 391.369934,640.943237 
	C390.699432,639.193359 389.438049,637.669800 388.432739,636.048218 
	C386.854187,637.632874 384.366455,638.994995 383.911316,640.854614 
	C383.237762,643.606567 383.635071,646.793518 384.261200,649.644897 
	C384.965790,652.853516 386.412445,655.901978 387.569031,659.007874 
	C389.490936,664.168701 394.140747,666.445007 398.681885,667.853027 
	C407.049194,670.447205 415.607391,671.936035 424.598114,670.178406 
	C429.431824,669.233459 434.602142,670.010376 439.825073,670.010376 
	C439.825073,671.986694 439.825073,674.614746 439.825073,677.630859 
	C434.414032,678.731384 428.833679,679.866333 422.778259,681.001343 
z"/>
<path opacity="1.000000" stroke="none" 
	d="
M294.002655,574.000000 
	C294.001709,589.661987 294.017731,604.824036 293.990417,619.985962 
	C293.981171,625.118347 291.041534,629.049805 286.956421,628.879761 
	C283.014404,628.715515 278.836456,624.963501 278.873322,619.989258 
	C279.081879,591.832947 278.866577,563.673279 279.144806,535.518188 
	C279.172699,532.698120 280.840118,528.514648 282.994873,527.419189 
	C286.211151,525.784058 290.583588,526.452942 292.857025,530.455566 
	C293.602966,531.768738 293.950745,533.479797 293.960632,535.012268 
	C294.043274,547.841064 294.004669,560.670654 294.002655,574.000000 
z"/>
<path opacity="1.000000" stroke="none" 
	d="
M158.995972,556.973938 
	C158.996292,550.316467 159.164139,544.148438 158.928619,537.995911 
	C158.804657,534.758240 159.378448,531.940979 162.249146,530.383118 
	C164.381775,529.225769 167.682312,527.521057 169.110397,528.360535 
	C171.619354,529.835327 174.715759,533.048279 174.751572,535.573242 
	C175.148148,563.544312 175.067245,591.523315 174.951874,619.499512 
	C174.927856,625.324158 173.619019,626.159729 167.255127,625.983521 
	C162.288055,625.845886 161.114868,624.477600 161.003510,618.930847 
	C160.684158,603.025208 160.382645,587.118774 159.959564,571.215698 
	C159.837524,566.628479 159.327911,562.051514 158.995972,556.973938 
z"/>
<path opacity="1.000000" stroke="none" 
	d="
M594.000488,567.000000 
	C594.000549,557.353027 593.999817,548.206116 594.000793,539.059143 
	C594.001282,534.748474 598.336914,529.799561 601.905884,530.032471 
	C604.406982,530.195740 608.984619,536.175415 608.990417,539.413757 
	C609.013855,552.552063 608.891968,565.691711 609.045044,578.828186 
	C609.123474,585.555115 609.899902,592.275452 609.931152,599.000854 
	C609.956238,604.406006 609.298279,609.812439 609.024231,615.222351 
	C608.949402,616.700439 608.975159,618.234619 609.285400,619.671631 
	C610.191345,623.867432 607.992737,627.619507 603.486816,628.798523 
	C599.561462,629.825684 597.467407,626.791260 596.154480,624.151306 
	C594.782227,621.392151 594.129333,618.015137 594.090637,614.896729 
	C593.894470,599.099915 594.000427,583.299255 594.000488,567.000000 
z"/>
<path opacity="1.000000" stroke="none" 
	d="
M479.992035,608.969482 
	C479.992035,583.437500 479.992035,558.400513 479.992035,532.997864 
	C483.208801,532.997864 485.178528,532.996460 487.148254,532.998169 
	C492.432190,533.002747 494.901855,535.070251 494.926178,540.510437 
	C495.048370,567.827698 494.971039,595.145935 495.021484,622.463623 
	C495.029694,626.906189 490.952698,627.713562 488.689026,627.631775 
	C486.103027,627.538330 482.155121,625.279602 481.394989,623.069092 
	C479.950958,618.869995 480.355316,614.035278 479.992035,608.969482 
z"/>
<path opacity="1.000000" stroke="none" 
	d="
M650.999573,596.995422 
	C650.996277,580.838867 650.803589,565.176575 651.181152,549.528076 
	C651.242249,546.995056 653.256287,543.664917 655.393188,542.220520 
	C658.752686,539.949707 662.669373,540.463684 664.968384,544.563904 
	C665.634277,545.751343 665.961731,547.286255 665.965881,548.663330 
	C666.026489,568.985046 666.014282,589.307068 665.997375,609.628967 
	C665.994690,612.852234 661.635925,617.971252 658.988342,617.964905 
	C655.463135,617.956421 651.030396,613.282532 651.002075,609.487427 
	C650.972229,605.489929 650.998047,601.492004 650.999573,596.995422 
z"/>
<path opacity="1.000000" stroke="none" 
	d="
M234.008469,561.010071 
	C234.007889,574.980103 234.021393,588.452148 233.999954,601.924194 
	C233.990952,607.578308 231.983948,609.906921 227.172668,609.988708 
	C222.224579,610.072754 219.024933,606.947571 219.010925,601.742249 
	C218.965759,584.943909 218.982178,568.145325 219.015976,551.346924 
	C219.025650,546.541626 222.164017,543.988586 227.852524,543.998840 
	C232.914856,544.007996 233.947693,545.179749 233.993134,551.032288 
	C234.017654,554.192078 234.004578,557.352173 234.008469,561.010071 
z"/>
<path opacity="1.000000" stroke="none" 
	d="
M536.998962,595.844727 
	C537.000183,583.544861 536.995239,571.725281 537.005432,559.905640 
	C537.009888,554.756042 540.634644,550.788086 545.069092,551.041077 
	C548.402039,551.231201 552.024292,555.735107 552.022217,559.690308 
	C552.015564,572.342224 552.007446,584.994080 552.000305,597.645996 
	C551.997131,603.150879 549.200073,606.759338 544.761292,606.983887 
	C540.473816,607.200745 537.012146,603.115601 536.999084,597.823303 
	C536.997864,597.323853 536.998962,596.824463 536.998962,595.844727 
z"/>
<path opacity="1.000000" stroke="none" 
	d="
M348.002258,568.021729 
	C348.002258,578.167847 348.026855,587.818054 347.991150,597.468018 
	C347.975037,601.828796 344.343292,605.958862 340.595795,606.019165 
	C336.815552,606.080078 334.001282,602.415100 333.999359,597.401855 
	C333.994507,584.756897 333.943970,572.111572 334.036804,559.467285 
	C334.059113,556.427124 334.568054,553.390503 334.833405,550.563293 
	C335.630524,550.268005 335.931824,550.064453 336.238403,550.056091 
	C347.045074,549.762085 347.956116,550.653381 348.001251,561.535950 
	C348.009552,563.532532 348.002319,565.529053 348.002258,568.021729 
z"/>
</svg>