<svg version="1.1" id="Layer_1" xmlns="http://www.w3.org/2000/svg" xmlns:xlink="http://www.w3.org/1999/xlink" x="0px" y="0px"
	 width="100%" viewBox="0 0 596 477" enable-background="new 0 0 596 477" xml:space="preserve">
<path opacity="1.000000" stroke="none" 
	d="
M560.204834,28.703066 
	C572.316345,39.530445 580.066895,52.556698 583.515564,68.051384 
	C584.361633,71.852531 584.937561,75.805702 584.939880,79.689400 
	C585.013000,202.842941 584.973633,325.996582 585.050293,449.150116 
	C585.056396,458.940765 578.037842,467.175751 567.080811,467.103821 
	C527.086731,466.841309 487.089325,466.878906 447.094666,467.087006 
	C437.371796,467.137573 431.742401,460.655121 430.148041,454.990326 
	C427.708679,446.323242 431.918671,437.710907 439.885498,434.095520 
	C441.585175,433.324249 443.641449,433.063751 445.537781,433.046539 
	C456.176666,432.949982 466.816895,433.000000 477.727448,433.000000 
	C477.727448,418.350586 477.727448,403.945892 477.727448,389.269775 
	C358.683197,389.269775 239.620361,389.269775 120.278763,389.269775 
	C120.278763,403.636688 120.278763,418.041504 120.278763,433.000000 
	C122.000130,433.000000 123.768143,433.000000 125.536148,433.000000 
	C210.527130,433.000000 295.518127,432.999756 380.509094,433.000336 
	C391.165100,433.000397 396.999939,438.836884 397.000000,449.490021 
	C397.000092,461.366089 391.343384,467.000000 379.419067,467.000000 
	C263.098083,467.000031 146.776871,466.910706 30.456470,467.172821 
	C21.341944,467.193359 12.799487,458.760956 12.820033,449.389069 
	C13.090391,326.069397 12.872606,202.748688 13.149154,79.429062 
	C13.186902,62.596012 19.963940,47.797230 31.306273,35.109573 
	C42.456455,22.636858 56.483150,15.629866 72.565742,12.217611 
	C74.003426,11.912576 75.537491,12.007752 77.026794,12.007670 
	C225.011093,11.999455 372.995544,11.912040 520.979431,12.155459 
	C533.771912,12.176502 545.311890,17.675777 555.690796,25.204716 
	C557.135437,26.252628 558.537903,27.358677 560.204834,28.703066 
M550.000000,160.500000 
	C550.000000,134.500824 549.767578,108.498878 550.075867,82.503349 
	C550.309143,62.830433 533.181702,46.045204 513.545349,46.035965 
	C371.213379,45.968994 228.881424,46.008347 86.549454,45.991718 
	C63.062241,45.988976 47.131981,62.900249 47.092060,85.644226 
	C46.891384,199.976120 46.999146,314.308533 47.009758,428.640778 
	C47.009888,430.064728 47.156799,431.488647 47.221123,432.656982 
	C60.087147,432.656982 72.495079,432.656982 85.000000,432.656982 
	C85.000000,413.154480 85.072243,393.994476 84.975510,374.835327 
	C84.906952,361.254944 92.081726,353.769348 106.038200,353.985748 
	C111.632111,354.072510 117.228485,354.000000 123.000000,354.000000 
	C123.000000,351.580933 123.000000,349.765350 123.000000,347.949768 
	C123.000000,287.783691 122.996689,227.617584 123.004021,167.451492 
	C123.004982,159.582291 127.053360,153.356339 133.896240,150.588882 
	C140.831894,147.783890 147.842224,149.258469 153.346588,154.902542 
	C156.444321,158.078918 159.256393,161.531769 162.290298,164.772903 
	C172.683365,175.875885 183.174561,186.887558 193.511658,198.042191 
	C198.529266,203.456619 203.205200,209.186630 208.186188,214.636337 
	C213.368378,220.306213 218.731857,225.810394 224.095795,231.471161 
	C244.157516,201.264740 263.842224,171.583023 283.576294,141.934128 
	C291.403503,130.174377 307.430481,131.781479 314.006622,141.747314 
	C327.053619,161.519333 340.246338,181.195358 353.420380,200.883255 
	C360.190155,211.000351 367.049438,221.057587 374.151733,231.561096 
	C376.417603,228.850342 378.285797,226.390335 380.383118,224.144287 
	C390.762634,213.028763 401.245300,202.009399 411.601837,190.872650 
	C416.183960,185.945312 420.467438,180.740555 425.039917,175.803833 
	C432.233398,168.037323 439.177063,159.968765 447.023499,152.914597 
	C449.906067,150.323105 455.324097,148.676956 459.116150,149.329163 
	C469.811462,151.168594 474.899689,156.461456 474.931824,169.058838 
	C475.084381,228.891220 475.000000,288.724182 475.000000,348.556946 
	C475.000000,350.316193 475.000000,352.075439 475.000000,354.000000 
	C481.434479,354.000000 487.277130,353.671631 493.060150,354.117157 
	C496.823425,354.407043 500.797455,355.216431 504.153198,356.861633 
	C511.079224,360.257202 512.875183,366.947998 512.942932,373.979095 
	C513.114807,391.810608 513.000000,409.644867 513.000000,427.478027 
	C513.000000,429.244812 513.000000,431.011597 513.000000,432.714539 
	C525.637268,432.714539 537.710022,432.714539 550.000000,432.714539 
	C550.000000,342.119476 550.000000,251.809738 550.000000,160.500000 
M222.187592,276.716644 
	C219.023254,274.875397 215.230804,273.632446 212.805969,271.086792 
	C203.510376,261.328033 194.680359,251.126938 185.625000,241.137711 
	C178.432968,233.203964 171.189575,225.316299 163.912872,217.460159 
	C162.336929,215.758759 160.521133,214.279526 158.346527,212.262726 
	C158.346527,260.184692 158.346527,307.043121 158.346527,353.687866 
	C252.406158,353.687866 346.119049,353.687866 439.516785,353.687866 
	C439.516785,306.598480 439.516785,259.822235 439.516785,211.554031 
	C431.659149,220.289948 424.859222,228.062393 417.827423,235.619095 
	C406.559357,247.728378 394.948975,259.523773 383.844482,271.779083 
	C375.904999,280.541443 362.397034,277.248535 357.126465,269.375153 
	C342.257446,247.163101 327.635498,224.785858 312.858673,202.511826 
	C308.440155,195.851517 303.832458,189.316711 299.258881,182.647751 
	C298.425629,183.273453 297.924500,183.484787 297.672760,183.862350 
	C279.437683,211.213089 261.063293,238.473267 243.109131,266.007477 
	C238.161209,273.595520 232.034393,277.587616 222.187592,276.716644 
z"/>
</svg>