<svg version="1.1" id="Layer_1" xmlns="http://www.w3.org/2000/svg" xmlns:xlink="http://www.w3.org/1999/xlink" x="0px" y="0px"
	 width="100%" viewBox="0 0 800 800" enable-background="new 0 0 800 800" xml:space="preserve">
<path opacity="1.000000" stroke="none" 
	d="
M458.000000,681.000061 
	C323.670593,681.000061 189.841202,680.963806 56.011848,681.044861 
	C38.802273,681.055237 23.754938,668.527710 20.108290,652.559143 
	C18.751120,646.616211 18.089573,640.383301 18.085060,634.281860 
	C17.976582,487.619598 18.000368,340.957214 18.000555,194.294876 
	C18.000568,182.881790 29.918257,166.226913 40.487103,161.942551 
	C51.375580,157.528610 62.346279,157.451294 72.529587,162.527939 
	C78.490585,165.499649 83.367828,170.956512 88.185753,175.835449 
	C95.060379,182.797119 101.378746,190.304749 108.032318,197.488785 
	C121.617523,212.157074 135.313156,226.723221 148.876541,241.411545 
	C159.116501,252.500809 169.179504,263.753296 179.396454,274.864014 
	C195.539001,292.418671 211.760483,309.900726 227.910736,327.448334 
	C231.362244,331.198425 234.652161,335.097260 238.449173,339.420135 
	C240.537369,336.459045 242.405243,333.957397 244.120422,331.355103 
	C258.131470,310.097290 272.014160,288.754059 286.143463,267.575348 
	C294.304016,255.343338 303.020081,243.481598 311.163483,231.238632 
	C317.178864,222.195068 322.491455,212.685486 328.458374,203.607819 
	C332.998383,196.701004 338.223755,190.248352 342.881714,183.414734 
	C353.127014,168.384171 363.122162,153.182922 373.389801,138.167847 
	C378.271515,131.029037 385.691803,127.480293 393.702423,125.010201 
	C395.992706,124.303993 398.356567,122.942307 400.595276,123.109009 
	C414.380219,124.135506 425.869324,129.734360 433.764435,141.420532 
	C442.239014,153.964447 450.471741,166.671783 458.807831,179.309250 
	C471.585754,198.680634 484.258087,218.122757 497.174469,237.401398 
	C506.066376,250.673218 515.396667,263.650787 524.343872,276.886353 
	C532.366211,288.753784 540.111938,300.807892 548.019287,312.753387 
	C553.903687,321.642761 559.851318,330.490204 566.360718,340.239960 
	C572.916870,331.864166 578.599182,324.242889 584.701050,316.973846 
	C587.438293,313.713013 591.214172,311.347137 594.175476,308.247162 
	C604.258179,297.692322 614.278259,287.074402 624.153992,276.326019 
	C637.320740,261.995728 650.299500,247.492981 663.417725,233.117859 
	C671.604370,224.146866 679.884827,215.261261 688.149353,206.361618 
	C697.253357,196.557892 706.378479,186.773575 715.520264,177.005035 
	C716.603943,175.847076 717.850586,174.841599 719.751587,174.222488 
	C716.180420,186.811539 712.526611,199.377899 709.063782,211.996674 
	C706.179077,222.508835 703.654297,233.120392 700.723206,243.619003 
	C697.287109,255.926834 693.539368,268.147278 690.007874,280.428925 
	C685.708740,295.380432 681.582031,310.382355 677.157043,325.296112 
	C676.414673,327.798157 674.903137,330.298584 673.127258,332.230042 
	C662.834839,343.424469 652.252808,354.352814 641.968201,365.554199 
	C629.373657,379.271362 617.110474,393.294189 604.440552,406.940125 
	C597.130371,414.813446 589.793701,422.799042 581.555298,429.632538 
	C574.345337,435.612946 565.297424,436.922699 555.812378,435.484802 
	C543.166748,433.567810 534.588745,426.768250 528.143982,415.880157 
	C522.643494,406.587402 515.692627,398.165771 509.674805,389.163910 
	C497.680573,371.222137 485.964935,353.094238 473.987183,335.141327 
	C462.528137,317.965881 450.785889,300.979187 439.349304,283.789001 
	C430.053436,269.816528 421.067200,255.638443 411.855713,241.609314 
	C408.824371,236.992538 405.517975,232.556351 402.177521,227.810532 
	C396.756622,235.823166 391.380859,243.741104 386.033691,251.678299 
	C373.143646,270.811951 360.174133,289.892975 347.413544,309.112640 
	C336.723511,325.213623 326.450256,341.592377 315.689270,357.644897 
	C303.363281,376.031982 290.504791,394.063873 278.297089,412.527405 
	C274.153198,418.794769 270.389954,425.002075 264.094543,429.554047 
	C249.437531,440.151947 225.710114,437.379822 214.142166,421.931244 
	C207.752808,413.398468 199.825974,406.008759 192.511429,398.179260 
	C185.360748,390.525146 178.052612,383.017944 170.914612,375.352203 
	C163.794647,367.705841 156.809784,359.933807 149.748520,352.232605 
	C136.161224,337.414001 122.555077,322.612701 108.971527,307.790680 
	C104.796562,303.235077 100.715279,298.592560 96.481033,294.093384 
	C95.668442,293.229980 94.341225,292.850861 93.094200,292.161407 
	C93.094200,397.156952 93.094200,501.775421 93.094200,606.999207 
	C95.115280,606.999207 97.043808,606.999207 98.972328,606.999207 
	C283.633545,606.999268 468.294769,606.998352 652.955994,607.000305 
	C676.874390,607.000549 692.199463,624.085266 691.712280,645.526978 
	C691.388550,659.772644 682.615173,674.222839 665.370911,678.907104 
	C660.419861,680.252014 655.127869,680.903503 649.990234,680.914124 
	C586.160400,681.045715 522.330139,681.000122 458.000000,681.000061 
z"/>
<path opacity="1.000000" stroke="none" 
	d="
M710.997559,453.000000 
	C710.997559,407.010895 710.996643,361.521820 710.998535,316.032715 
	C710.998840,308.999451 711.005066,308.999207 718.139771,308.999146 
	C740.266418,308.999023 762.393127,308.999084 785.000061,308.999084 
	C785.000061,310.914581 785.000061,312.525055 785.000061,314.135559 
	C785.000061,424.775726 784.903198,535.416138 785.147827,646.055725 
	C785.172607,657.283447 773.698792,673.515076 761.695801,678.432983 
	C744.695007,685.398560 725.307190,676.693542 717.047058,663.566956 
	C712.493774,656.331116 711.088928,648.201538 711.071045,639.955017 
	C710.936523,577.803589 710.997620,515.651733 710.997559,453.000000 
z"/>
<path opacity="1.000000" stroke="none" 
	d="
M713.026001,286.219849 
	C715.176392,278.223450 717.266357,270.644470 719.437927,263.088959 
	C723.503784,248.942963 727.697754,234.833298 731.687439,220.666016 
	C735.556641,206.926620 739.154480,193.110489 743.069580,179.384567 
	C743.831726,176.712418 745.503906,174.299820 746.686035,171.909668 
	C754.188965,173.315445 753.495117,179.542068 754.816223,183.822083 
	C758.828796,196.821213 762.006042,210.075790 765.656616,223.189667 
	C771.376221,243.735626 777.210205,264.249786 783.018555,284.770966 
	C783.537964,286.605804 784.225098,288.393127 784.845337,290.234985 
	C782.156677,292.352753 732.312256,293.412933 711.989624,291.682159 
	C712.332886,289.975830 712.667603,288.311859 713.026001,286.219849 
z"/>
</svg>