<svg version="1.1" id="Layer_1" xmlns="http://www.w3.org/2000/svg" xmlns:xlink="http://www.w3.org/1999/xlink" x="0px" y="0px"
	 width="100%" viewBox="0 0 167 167" enable-background="new 0 0 167 167" xml:space="preserve">
<path opacity="1.000000" stroke="none" 
	d="
M126.845718,68.995369 
	C126.845718,55.522121 126.845718,42.048874 126.845718,28.823849 
	C127.493759,28.393328 127.754013,28.069298 128.014954,28.068748 
	C141.406586,28.040627 138.889069,26.500757 138.964096,38.556702 
	C139.104095,61.054256 138.818115,83.555283 139.056641,106.051178 
	C139.295441,128.574539 129.705566,145.771667 110.845329,157.382278 
	C103.207863,162.084015 94.237167,163.901550 84.887878,164.172714 
	C70.945091,164.577118 59.292336,159.767044 48.742191,151.240143 
	C38.032368,142.584183 32.202900,131.169113 30.078835,117.797577 
	C29.308558,112.948456 29.058033,107.973625 29.043154,103.054718 
	C28.952417,73.057083 28.997799,43.059044 28.997915,13.061135 
	C28.997921,11.894551 28.569111,10.466479 29.087107,9.614318 
	C30.265583,7.675589 31.598982,5.206749 33.458637,4.496838 
	C35.048553,3.889896 38.046696,4.819302 39.410065,6.125420 
	C47.464455,13.841592 55.223309,21.866261 63.316261,30.023617 
	C67.985390,22.883209 72.498779,16.008921 76.982887,9.115582 
	C81.380783,2.354766 86.875557,2.332633 91.471306,8.939602 
	C95.990738,15.436860 100.675858,21.818874 105.749039,28.894051 
	C112.760338,21.506756 119.334999,14.579513 125.909660,7.652268 
	C126.237991,7.833100 126.566315,8.013932 126.894646,8.194764 
	C125.436844,15.126534 124.270721,22.140280 122.358475,28.944334 
	C121.714165,31.236887 119.316582,33.139824 117.467468,34.964634 
	C115.135742,37.265724 112.518272,39.274479 110.072067,41.462990 
	C105.714691,45.361336 102.048096,44.722866 98.901505,39.663029 
	C94.236816,32.162045 89.452194,24.735643 84.320183,16.649700 
	C81.283524,22.303774 78.461960,27.583904 75.613991,32.849751 
	C74.003128,35.828224 72.351868,38.784889 70.713486,41.748440 
	C67.901253,46.835320 64.082932,47.419479 59.803783,43.276459 
	C53.955387,37.614109 48.197445,31.858351 42.390770,26.152765 
	C42.294628,26.058292 42.072258,26.092289 41.455208,25.994318 
	C41.455208,41.970917 41.455208,57.882401 41.455208,74.449409 
	C65.330322,51.453854 90.805176,48.171574 118.714455,67.382767 
	C121.101715,69.944473 123.012222,72.134064 125.708878,75.224655 
	C126.261497,72.196609 126.553612,70.595985 126.845718,68.995369 
M98.881264,149.644852 
	C100.873032,148.637589 102.905800,147.703293 104.849716,146.610870 
	C115.149567,140.822647 122.346886,132.297394 124.895706,120.796211 
	C128.645615,103.875328 125.016335,89.118340 111.062996,77.372734 
	C102.341423,70.031113 92.361557,66.780930 81.576355,67.236328 
	C71.282440,67.670998 61.793377,71.909882 54.296349,79.298561 
	C44.568241,88.886070 40.331722,100.419769 41.889385,114.321266 
	C43.580887,129.417267 50.808178,140.630325 64.085640,147.423477 
	C74.843239,152.927383 86.455093,153.475723 98.881264,149.644852 
z"/>
<path opacity="1.000000" stroke="none" 
	d="
M129.023804,14.145538 
	C130.111710,10.389087 131.186783,7.058508 132.261856,3.727930 
	C132.790161,3.786649 133.318466,3.845368 133.846771,3.904087 
	C135.371933,10.757441 136.897095,17.610796 138.500717,24.816685 
	C134.262634,24.816685 130.847122,24.816685 126.575073,24.816685 
	C127.432343,21.211081 128.221664,17.891245 129.023804,14.145538 
z"/>
<path opacity="1.000000" stroke="none" 
	d="
M58.731457,86.696686 
	C73.196754,70.463875 99.376312,72.908867 111.034431,88.653824 
	C121.879463,103.300636 122.079468,119.321182 110.042969,133.033188 
	C92.882797,152.582123 65.587387,147.065109 54.057896,128.133972 
	C45.804161,114.581558 48.283600,101.375473 56.133030,88.585197 
	C56.585041,87.848663 57.699223,87.518509 58.731457,86.696686 
M65.464355,122.985069 
	C73.512917,134.442520 86.259819,135.893097 96.571785,129.530975 
	C104.894592,124.396095 108.811035,113.798164 106.412918,104.851952 
	C103.054787,92.324417 93.265137,87.000610 83.395638,87.191498 
	C75.201027,87.349998 68.034569,91.225342 64.119186,98.839752 
	C60.101673,106.652794 59.254356,114.761978 65.464355,122.985069 
z"/>
<path opacity="1.000000" stroke="none" 
	d="
M74.346214,121.827293 
	C65.232948,111.068207 68.397064,99.095840 81.082199,95.427338 
	C86.079613,93.982101 90.347275,95.852089 93.904694,99.383888 
	C97.484383,102.937798 99.909195,106.830727 98.335892,112.318230 
	C95.668930,121.620270 90.537155,125.785141 81.575211,124.879654 
	C79.193260,124.638985 76.947563,123.049942 74.346214,121.827293 
z"/>
</svg>