<svg version="1.1" id="Layer_1" xmlns="http://www.w3.org/2000/svg" xmlns:xlink="http://www.w3.org/1999/xlink" x="0px" y="0px"
	 width="100%" viewBox="0 0 634 760" enable-background="new 0 0 634 760" xml:space="preserve">
<path opacity="1.000000" stroke="none" 
	d="
M393.250000,465.750000 
	C415.770721,488.270691 438.090820,510.492310 460.302277,532.821960 
	C512.317017,585.113342 564.285034,637.451172 616.229248,689.812561 
	C617.412720,691.005554 618.867371,692.695740 618.881409,694.166504 
	C619.060669,712.957703 618.999634,731.751221 618.999634,750.771118 
	C426.278625,750.771118 233.892792,750.771118 41.000000,750.771118 
	C41.000000,741.449341 41.000000,732.176392 41.000000,722.903442 
	C41.000000,713.738098 40.808937,704.565918 41.133904,695.412109 
	C41.215481,693.114136 42.403332,690.335510 44.015190,688.692627 
	C59.418999,672.992798 75.054771,657.520874 90.564346,641.924255 
	C143.864288,588.325195 197.160904,534.722778 250.339142,481.003265 
	C252.205673,479.117706 253.441940,476.075134 253.856461,473.399048 
	C254.658432,468.221527 254.739304,462.924255 254.986115,457.670349 
	C255.780365,440.762909 256.634064,423.940033 262.861298,407.811890 
	C266.198853,399.167847 268.341339,390.057037 270.886627,381.118011 
	C271.280884,379.733429 270.941711,378.139954 270.941711,375.908936 
	C262.863678,377.674164 257.080475,372.446747 250.575790,369.199310 
	C249.863647,368.843750 248.882385,368.580933 248.547485,367.983032 
	C243.631729,359.206512 238.782074,350.392609 233.962189,341.562836 
	C228.246750,331.092407 229.949631,321.091492 236.673645,311.924316 
	C247.791977,296.766113 259.068573,281.710083 270.796478,267.024628 
	C273.156311,264.069641 277.654999,262.490631 281.468384,261.105652 
	C287.334442,258.975220 293.557312,257.824005 299.413239,255.671036 
	C301.005768,255.085526 302.343231,252.538330 302.862427,250.636154 
	C303.454010,248.468796 302.999268,246.015823 302.999268,244.493347 
	C297.751312,239.562164 291.208221,235.892258 288.641479,230.373123 
	C285.454407,223.520157 284.288239,215.087128 284.591370,207.429276 
	C284.901550,199.593155 289.854980,193.257812 296.878235,188.785797 
	C298.296844,187.882523 298.952240,184.167709 298.416748,182.160812 
	C297.448883,178.533737 298.573486,176.947601 301.785553,175.977081 
	C304.692627,175.098709 307.564178,174.103043 310.455414,173.171494 
	C310.759430,173.073532 311.287170,172.907227 311.380585,173.028076 
	C315.481720,178.334900 320.297272,173.190735 324.755493,173.846741 
	C327.477570,174.247269 328.937317,174.770462 329.331055,177.654266 
	C329.754761,180.757843 331.283600,182.692764 334.980103,182.091049 
	C336.283203,181.878937 338.341766,182.233688 339.058563,183.128296 
	C345.773682,191.509232 357.430359,188.991913 365.228638,195.423447 
	C372.778442,201.650055 381.390350,206.584473 389.501160,212.136917 
	C394.136780,215.310333 396.188446,221.597977 393.651337,226.683197 
	C385.193573,243.635422 377.572266,261.098541 364.916382,275.600159 
	C361.594452,279.406616 358.321747,283.269531 355.277527,287.296326 
	C354.401123,288.455658 354.241516,290.255341 354.024963,291.799530 
	C352.085449,305.632812 349.976257,319.448395 348.395508,333.323669 
	C347.428894,341.808350 344.254181,350.256653 347.036346,358.923981 
	C347.901550,361.619324 348.825409,364.437988 350.394073,366.743073 
	C363.936859,386.643402 371.289124,408.935944 375.922791,432.272369 
	C376.683411,436.103088 376.625671,440.092743 377.010193,444.002655 
	C377.378204,447.744781 378.132294,451.175903 381.278717,453.921844 
	C385.408539,457.526001 389.112732,461.617889 393.250000,465.750000 
M246.039932,513.684570 
	C247.869217,505.663757 249.698486,497.642944 251.527771,489.622101 
	C251.070694,489.434906 250.613617,489.247681 250.156555,489.060455 
	C183.176224,556.536072 116.195900,624.011658 48.993256,691.711243 
	C236.607300,691.711243 423.606903,691.711243 609.617981,691.711243 
	C532.890625,614.983459 455.813782,537.906189 379.038269,461.130280 
	C379.244751,461.883881 379.597778,463.259247 379.998505,464.620575 
	C382.754578,473.983215 385.075043,483.505096 388.405853,492.659088 
	C391.901917,502.267242 399.190399,509.445801 405.510315,517.327820 
	C421.456635,537.215515 430.863831,560.733948 441.153076,583.809448 
	C449.576599,602.700745 459.500458,620.928345 468.930481,639.362610 
	C472.089996,645.538940 475.777985,651.445007 479.524750,658.000000 
	C471.080170,658.000000 463.588104,657.982117 456.096191,658.004517 
	C446.244446,658.033936 437.035126,660.964233 427.764862,663.938049 
	C418.310638,666.970947 408.767914,670.021118 399.033051,671.800781 
	C389.820953,673.484863 381.195435,669.555115 372.849731,665.949402 
	C364.058258,662.151001 354.883118,661.265808 345.545044,662.259338 
	C334.474457,663.437256 324.769287,668.538940 314.970276,673.449463 
	C302.083496,679.907227 288.357300,681.782898 274.189209,678.997437 
	C259.816132,676.171509 245.630844,671.974731 231.140945,670.284119 
	C218.482346,668.807129 205.513611,669.888367 192.684006,670.030762 
	C188.159073,670.080933 183.640411,670.697510 178.263107,671.123291 
	C181.889282,657.791260 184.901733,645.118042 188.800461,632.723694 
	C196.259506,609.010681 207.194931,586.916199 221.158707,566.324219 
	C232.019897,550.307556 242.035995,533.866150 246.039932,513.684570 
M281.770752,361.237396 
	C288.885315,361.415253 291.696899,355.357941 295.817474,351.325958 
	C297.312469,349.863098 298.785156,347.570312 298.863098,345.600586 
	C299.291962,334.767639 294.555359,325.230743 290.098145,315.837036 
	C287.260071,309.855652 282.985382,304.555969 279.474487,299.135284 
	C270.155640,309.179352 260.179138,319.932251 250.227966,330.657806 
	C256.036072,341.403839 261.827759,352.119476 267.923340,363.397400 
	C272.141754,362.628693 276.568329,361.822052 281.770752,361.237396 
M342.655884,250.951859 
	C346.229065,251.331192 349.446411,251.060715 351.859802,247.728363 
	C353.868866,244.954361 356.590302,242.688507 358.539093,239.880356 
	C362.275421,234.496323 365.797516,228.951706 369.107971,223.297760 
	C369.573364,222.502960 368.745026,220.254395 367.834137,219.464432 
	C362.422211,214.770996 356.836212,210.275925 351.256989,205.778366 
	C345.717468,201.312820 339.342010,198.973602 332.193329,198.241669 
	C337.059845,210.334335 334.405426,220.570221 325.926086,229.611359 
	C322.549164,233.212021 323.888184,245.754364 327.994873,248.463516 
	C328.506714,248.801163 329.206329,248.923569 329.836700,249.000824 
	C333.865295,249.494415 337.898865,249.947464 342.655884,250.951859 
z"/>
<path opacity="1.000000" stroke="none" 
	d="
M268.756409,177.663940 
	C261.033386,187.932541 253.497696,197.881424 246.020081,207.873779 
	C240.688126,214.998871 235.792725,222.484650 230.067886,229.274384 
	C219.469681,241.843979 199.272308,244.600342 185.994980,231.487930 
	C178.525421,224.111191 171.087814,216.700394 163.732727,209.209778 
	C149.767670,194.987350 135.865067,180.703552 121.950157,166.431961 
	C109.896217,154.069061 97.815918,141.731277 85.841225,129.291946 
	C81.407059,124.685722 77.240593,119.821785 72.000000,114.021706 
	C72.000000,117.048485 72.000000,118.774193 72.000000,120.499893 
	C72.000000,216.652420 71.900398,312.805176 72.096786,408.957306 
	C72.130013,425.226227 58.289673,439.100739 42.263851,439.393829 
	C26.640873,439.679565 11.885943,425.210571 11.908868,408.586578 
	C12.077537,286.271484 11.962952,163.955963 12.054442,41.640694 
	C12.064123,28.698336 17.925499,18.822018 30.006903,13.577594 
	C41.594086,8.547708 53.987144,10.358229 63.521832,20.039646 
	C83.003601,39.821220 102.476067,59.612045 121.913139,79.437515 
	C134.467667,92.242912 146.953537,105.115631 159.468475,117.959839 
	C172.332230,131.162048 185.216202,144.344727 198.032455,157.592880 
	C199.952240,159.577393 201.550415,161.873032 203.459595,164.224564 
	C210.416199,155.099945 217.266449,146.263931 223.956085,137.307968 
	C236.257721,120.838829 248.411423,104.259125 260.725861,87.799629 
	C273.929260,70.151917 287.668121,52.886971 300.371033,34.888737 
	C309.305267,22.230185 329.756012,18.757633 341.333710,28.176197 
	C347.525360,33.213139 352.534698,39.838017 357.537842,46.172562 
	C367.284088,58.512497 376.642426,71.158615 386.176575,83.666374 
	C396.892792,97.724892 407.567902,111.815376 418.370239,125.807541 
	C426.699951,136.596954 435.198547,147.255981 443.985840,158.435791 
	C450.976074,151.104004 457.970032,143.921768 464.781738,136.570694 
	C469.460114,131.521912 473.781006,126.142319 478.449310,121.083748 
	C484.734558,114.273102 491.246033,107.671852 497.579285,100.904800 
	C511.344727,86.196533 525.073303,71.453613 538.788330,56.698326 
	C546.760498,48.121536 554.684937,39.500332 562.615601,30.885122 
	C566.073608,27.128651 569.354858,23.199047 572.954529,19.585321 
	C588.812378,3.665657 616.305481,10.840322 622.570007,32.189487 
	C623.792664,36.356369 623.941895,40.949806 623.944397,45.346851 
	C624.013794,166.495667 623.932678,287.644623 624.078857,408.793304 
	C624.098816,425.313995 609.276550,439.525787 594.033203,439.394562 
	C577.669128,439.253693 563.851929,425.154602 563.890747,408.750519 
	C564.114746,314.098297 564.000000,219.445267 564.000000,124.792519 
	C564.000000,122.979568 564.000000,121.166618 564.000000,118.001671 
	C561.992249,119.790680 560.664978,120.794678 559.548950,121.995117 
	C546.965820,135.530075 534.420044,149.099655 521.854492,162.650955 
	C509.062988,176.445923 496.233368,190.205673 483.474365,204.030624 
	C476.887634,211.167709 470.539978,218.528183 463.869720,225.584885 
	C450.344421,239.893753 427.729248,237.401367 416.676544,221.566727 
	C406.553833,207.064499 394.939667,193.609116 384.131378,179.577896 
	C374.937988,167.643082 366.051575,155.471741 356.855255,143.539215 
	C347.031891,130.793045 337.001678,118.206322 327.072510,105.541580 
	C326.410004,104.696564 325.838226,103.780411 324.857361,102.369606 
	C306.053253,127.601524 287.510925,152.482178 268.756409,177.663940 
z"/>
</svg>